  0
SECTION
  2
HEADER
  9
$ACADVER
  1
AC1015
  9
$ACADMAINTVER
 70
     6
  9
$DWGCODEPAGE
  3
ANSI_1252
  9
$INSBASE
 10
0.0
 20
0.0
 30
0.0
  9
$EXTMIN
 10
6.000000000000006
 20
155.9999999999999
 30
-0.00000001
  9
$EXTMAX
 10
141.0
 20
236.4999999999999
 30
0.00000001
  9
$LIMMIN
 10
0.0
 20
0.0
  9
$LIMMAX
 10
8.271666666666666
 20
11.69666666666666
  9
$ORTHOMODE
 70
     0
  9
$REGENMODE
 70
     1
  9
$FILLMODE
 70
     1
  9
$QTEXTMODE
 70
     0
  9
$MIRRTEXT
 70
     1
  9
$LTSCALE
 40
1.0
  9
$ATTMODE
 70
     1
  9
$TEXTSIZE
 40
9.999999999999998
  9
$TRACEWID
 40
0.05
  9
$TEXTSTYLE
  7
Standard
  9
$CLAYER
  8
0
  9
$CELTYPE
  6
ByLayer
  9
$CECOLOR
 62
     7
  9
$CELTSCALE
 40
1.0
  9
$DISPSILH
 70
     0
  9
$DIMSCALE
 40
1.0
  9
$DIMASZ
 40
0.18
  9
$DIMEXO
 40
0.0625
  9
$DIMDLI
 40
0.38
  9
$DIMRND
 40
0.0
  9
$DIMDLE
 40
0.0
  9
$DIMEXE
 40
0.18
  9
$DIMTP
 40
0.0
  9
$DIMTM
 40
0.0
  9
$DIMTXT
 40
0.1574803149606299
  9
$DIMCEN
 40
0.09
  9
$DIMTSZ
 40
0.0
  9
$DIMTOL
 70
     0
  9
$DIMLIM
 70
     0
  9
$DIMTIH
 70
     1
  9
$DIMTOH
 70
     1
  9
$DIMSE1
 70
     0
  9
$DIMSE2
 70
     0
  9
$DIMTAD
 70
     0
  9
$DIMZIN
 70
     0
  9
$DIMBLK
  1

  9
$DIMASO
 70
     1
  9
$DIMSHO
 70
     1
  9
$DIMPOST
  1

  9
$DIMAPOST
  1

  9
$DIMALT
 70
     0
  9
$DIMALTD
 70
     2
  9
$DIMALTF
 40
25.4
  9
$DIMLFAC
 40
1.0
  9
$DIMTOFL
 70
     0
  9
$DIMTVP
 40
0.0
  9
$DIMTIX
 70
     0
  9
$DIMSOXD
 70
     0
  9
$DIMSAH
 70
     0
  9
$DIMBLK1
  1

  9
$DIMBLK2
  1

  9
$DIMSTYLE
  2
Standard
  9
$DIMCLRD
 70
     0
  9
$DIMCLRE
 70
     0
  9
$DIMCLRT
 70
     0
  9
$DIMTFAC
 40
1.0
  9
$DIMGAP
 40
0.09
  9
$DIMJUST
 70
     0
  9
$DIMSD1
 70
     0
  9
$DIMSD2
 70
     0
  9
$DIMTOLJ
 70
     1
  9
$DIMTZIN
 70
     0
  9
$DIMALTZ
 70
     0
  9
$DIMALTTZ
 70
     0
  9
$DIMUPT
 70
     0
  9
$DIMDEC
 70
     2
  9
$DIMTDEC
 70
     4
  9
$DIMALTU
 70
     2
  9
$DIMALTTD
 70
     2
  9
$DIMTXSTY
  7
Standard
  9
$DIMAUNIT
 70
     1
  9
$DIMADEC
 70
     0
  9
$DIMALTRND
 40
0.0
  9
$DIMAZIN
 70
     0
  9
$DIMDSEP
 70
    46
  9
$DIMATFIT
 70
     3
  9
$DIMFRAC
 70
     0
  9
$DIMLDRBLK
  1

  9
$DIMLUNIT
 70
     4
  9
$DIMLWD
 70
    -2
  9
$DIMLWE
 70
    -2
  9
$DIMTMOVE
 70
     0
  9
$LUNITS
 70
     2
  9
$LUPREC
 70
     2
  9
$SKETCHINC
 40
0.1
  9
$FILLETRAD
 40
4.999999999999999
  9
$AUNITS
 70
     0
  9
$AUPREC
 70
     2
  9
$MENU
  1
.
  9
$ELEVATION
 40
0.0
  9
$PELEVATION
 40
0.0
  9
$THICKNESS
 40
0.0
  9
$LIMCHECK
 70
     0
  9
$CHAMFERA
 40
4.999999999999999
  9
$CHAMFERB
 40
4.999999999999999
  9
$CHAMFERC
 40
0.0
  9
$CHAMFERD
 40
0.0
  9
$SKPOLY
 70
     0
  9
$TDCREATE
 40
2461288.907844965
  9
$TDUCREATE
 40
2461288.824511632
  9
$TDUPDATE
 40
2311953.243986261
  9
$TDUUPDATE
 40
0.0000000000
  9
$TDINDWG
 40
0.0000001736
  9
$TDUSRTIMER
 40
0.0000001736
  9
$USRTIMER
 70
     1
  9
$ANGBASE
 50
0.0
  9
$ANGDIR
 70
     0
  9
$PDMODE
 70
     0
  9
$PDSIZE
 40
0.0
  9
$PLINEWID
 40
0.0
  9
$SPLFRAME
 70
     0
  9
$SPLINETYPE
 70
     6
  9
$SPLINESEGS
 70
     8
  9
$HANDSEED
  5
17C
  9
$SURFTAB1
 70
     6
  9
$SURFTAB2
 70
     6
  9
$SURFTYPE
 70
     6
  9
$SURFU
 70
     6
  9
$SURFV
 70
     6
  9
$UCSBASE
  2

  9
$UCSNAME
  2

  9
$UCSORG
 10
0.0
 20
0.0
 30
0.0
  9
$UCSXDIR
 10
1.0
 20
0.0
 30
0.0
  9
$UCSYDIR
 10
0.0
 20
1.0
 30
0.0
  9
$UCSORTHOREF
  2

  9
$UCSORTHOVIEW
 70
     0
  9
$UCSORGTOP
 10
0.0
 20
0.0
 30
0.0
  9
$UCSORGBOTTOM
 10
0.0
 20
0.0
 30
0.0
  9
$UCSORGLEFT
 10
0.0
 20
0.0
 30
0.0
  9
$UCSORGRIGHT
 10
0.0
 20
0.0
 30
0.0
  9
$UCSORGFRONT
 10
0.0
 20
0.0
 30
0.0
  9
$UCSORGBACK
 10
0.0
 20
0.0
 30
0.0
  9
$PUCSBASE
  2

  9
$PUCSNAME
  2

  9
$PUCSORG
 10
0.0
 20
0.0
 30
0.0
  9
$PUCSXDIR
 10
1.0
 20
0.0
 30
0.0
  9
$PUCSYDIR
 10
0.0
 20
1.0
 30
0.0
  9
$PUCSORTHOREF
  2

  9
$PUCSORTHOVIEW
 70
     0
  9
$PUCSORGTOP
 10
0.0
 20
0.0
 30
0.0
  9
$PUCSORGBOTTOM
 10
0.0
 20
0.0
 30
0.0
  9
$PUCSORGLEFT
 10
0.0
 20
0.0
 30
0.0
  9
$PUCSORGRIGHT
 10
0.0
 20
0.0
 30
0.0
  9
$PUCSORGFRONT
 10
0.0
 20
0.0
 30
0.0
  9
$PUCSORGBACK
 10
0.0
 20
0.0
 30
0.0
  9
$USERI1
 70
     0
  9
$USERI2
 70
     0
  9
$USERI3
 70
     0
  9
$USERI4
 70
     0
  9
$USERI5
 70
     0
  9
$USERR1
 40
0.0
  9
$USERR2
 40
0.0
  9
$USERR3
 40
0.0
  9
$USERR4
 40
0.0
  9
$USERR5
 40
0.0
  9
$WORLDVIEW
 70
     1
  9
$SHADEDGE
 70
     3
  9
$SHADEDIF
 70
    70
  9
$TILEMODE
 70
     1
  9
$MAXACTVP
 70
    64
  9
$PINSBASE
 10
0.0
 20
0.0
 30
0.0
  9
$PLIMCHECK
 70
     0
  9
$PEXTMIN
 10
1.000000000000000E+20
 20
1.000000000000000E+20
 30
1.000000000000000E+20
  9
$PEXTMAX
 10
-1.000000000000000E+20
 20
-1.000000000000000E+20
 30
-1.000000000000000E+20
  9
$PLIMMIN
 10
0.0
 20
0.0
  9
$PLIMMAX
 10
12.0
 20
9.0
  9
$UNITMODE
 70
     0
  9
$VISRETAIN
 70
     1
  9
$PLINEGEN
 70
     0
  9
$PSLTSCALE
 70
     1
  9
$TREEDEPTH
 70
  3020
  9
$CMLSTYLE
  2
Standard
  9
$CMLJUST
 70
     0
  9
$CMLSCALE
 40
1.0
  9
$PROXYGRAPHICS
 70
     1
  9
$MEASUREMENT
 70
     1
  9
$CELWEIGHT
370
    -1
  9
$ENDCAPS
280
     0
  9
$JOINSTYLE
280
     0
  9
$LWDISPLAY
290
     0
  9
$INSUNITS
 70
     0
  9
$HYPERLINKBASE
  1

  9
$STYLESHEET
  1

  9
$XEDIT
290
     1
  9
$CEPSNTYPE
380
     0
  9
$PSTYLEMODE
290
     1
  9
$FINGERPRINTGUID
  2
{47EB2EC4-4530-4439-AE47-7CFEF4311408}
  9
$VERSIONGUID
  2
{216908A1-C1D4-47BB-A55E-C0530464AC5A}
  9
$EXTNAMES
290
     1
  9
$PSVPSCALE
 40
0.0
  9
$OLESTARTUP
290
     0
  0
ENDSEC
  0
SECTION
  2
CLASSES
  0
CLASS
  1
ACDBDICTIONARYWDFLT
  2
AcDbDictionaryWithDefault
  3
AutoCAD 2000
 90
        0
280
     0
281
     0
  0
CLASS
  1
ACDBPLACEHOLDER
  2
AcDbPlaceHolder
  3
AutoCAD 2000
 90
        0
280
     0
281
     0
  0
CLASS
  1
LAYOUT
  2
AcDbLayout
  3
AutoCAD 2000
 90
        0
280
     0
281
     0
  0
ENDSEC
  0
SECTION
  2
TABLES
  0
TABLE
  2
VPORT
  5
8
330
0
100
AcDbSymbolTable
 70
     1
  0
VPORT
  5
13
330
8
100
AcDbSymbolTableRecord
100
AcDbViewportTableRecord
  2
*Active
 70
     0
 10
0.0
 20
0.0
 11
1.0
 21
1.0
 12
70.5
 22
118.2499999999999
 13
0.0
 23
0.0
 14
1.0
 24
1.0
 15
0.0
 25
0.0
 16
0.0
 26
0.0
 36
1.0
 17
0.0
 27
0.0
 37
0.0
 40
236.4999999999999
 41
0.5961945031712475
 42
50.0
 43
0.0
 44
0.0
 50
0.0
 51
0.0
 71
     0
 72
   100
 73
     1
 74
     1
 75
     0
 76
     0
 77
     0
 78
     0
281
     0
 65
     1
110
0.0
120
0.0
130
0.0
111
1.0
121
0.0
131
0.0
112
0.0
122
1.0
132
0.0
 79
     0
146
0.0
  0
ENDTAB
  0
TABLE
  2
LTYPE
  5
5
330
0
100
AcDbSymbolTable
 70
    47
  0
LTYPE
  5
14
330
5
100
AcDbSymbolTableRecord
100
AcDbLinetypeTableRecord
  2
ByBlock
 70
     0
  3

 72
    65
 73
     0
 40
0.0
  0
LTYPE
  5
15
330
5
100
AcDbSymbolTableRecord
100
AcDbLinetypeTableRecord
  2
ByLayer
 70
     0
  3

 72
    65
 73
     0
 40
0.0
  0
LTYPE
  5
16
330
5
100
AcDbSymbolTableRecord
100
AcDbLinetypeTableRecord
  2
Continuous
 70
     0
  3
Solid line
 72
    65
 73
     0
 40
0.0
  0
LTYPE
  5
28
330
5
100
AcDbSymbolTableRecord
100
AcDbLinetypeTableRecord
  2
HIDDEN
 70
     0
  3
_ _ _ _ _ _ _ _ _ _ _ _ _ _ 
 72
    65
 73
     2
 40
9.524999999999998
 49
6.349999999999999
 74
     0
 49
-3.174999999999999
 74
     0
  0
LTYPE
  5
29
330
5
100
AcDbSymbolTableRecord
100
AcDbLinetypeTableRecord
  2
DASHED
 70
     0
  3
__ __ __ __ __ __ __ __ __ 
 72
    65
 73
     2
 40
19.04999999999999
 49
12.7
 74
     0
 49
-6.349999999999999
 74
     0
  0
LTYPE
  5
2A
330
5
100
AcDbSymbolTableRecord
100
AcDbLinetypeTableRecord
  2
CENTER
 70
     0
  3
____ _ ____ _ ____ _ ____ _ 
 72
    65
 73
     4
 40
50.8
 49
31.75
 74
     0
 49
-6.349999999999999
 74
     0
 49
6.349999999999999
 74
     0
 49
-6.349999999999999
 74
     0
  0
LTYPE
  5
2B
330
5
100
AcDbSymbolTableRecord
100
AcDbLinetypeTableRecord
  2
PHANTOM
 70
     0
  3
_____ _ _ _____ _ _ _____ _ _ 
 72
    65
 73
     6
 40
63.50000000000001
 49
31.75
 74
     0
 49
-6.349999999999999
 74
     0
 49
6.349999999999999
 74
     0
 49
-6.349999999999999
 74
     0
 49
6.349999999999999
 74
     0
 49
-6.349999999999999
 74
     0
  0
LTYPE
  5
2C
330
5
100
AcDbSymbolTableRecord
100
AcDbLinetypeTableRecord
  2
DOT
 70
     0
  3
...........................
 72
    65
 73
     2
 40
6.349999999999999
 49
0.0
 74
     0
 49
-6.349999999999999
 74
     0
  0
LTYPE
  5
2D
330
5
100
AcDbSymbolTableRecord
100
AcDbLinetypeTableRecord
  2
DASHDOT
 70
     0
  3
__ . __ . __ . __ . __ . __ . 
 72
    65
 73
     4
 40
25.4
 49
12.7
 74
     0
 49
-6.349999999999999
 74
     0
 49
0.0
 74
     0
 49
-6.349999999999999
 74
     0
  0
LTYPE
  5
2E
330
5
100
AcDbSymbolTableRecord
100
AcDbLinetypeTableRecord
  2
DIVIDE
 70
     0
  3
__ . . __ . . __ . . __ . . 
 72
    65
 73
     6
 40
31.75
 49
12.7
 74
     0
 49
-6.349999999999999
 74
     0
 49
0.0
 74
     0
 49
-6.349999999999999
 74
     0
 49
0.0
 74
     0
 49
-6.349999999999999
 74
     0
  0
LTYPE
  5
2F
330
5
100
AcDbSymbolTableRecord
100
AcDbLinetypeTableRecord
  2
BORDER
 70
     0
  3
__ __ . __ __ . __ __ . __ __ .
 72
    65
 73
     6
 40
44.44999999999999
 49
12.7
 74
     0
 49
-6.349999999999999
 74
     0
 49
12.7
 74
     0
 49
-6.349999999999999
 74
     0
 49
0.0
 74
     0
 49
-6.349999999999999
 74
     0
  0
LTYPE
  5
30
330
5
100
AcDbSymbolTableRecord
100
AcDbLinetypeTableRecord
  2
RAND
 70
     0
  3
Rand __ __ . __ __ . __ __ . __
 72
    65
 73
     6
 40
1.75
 49
0.5
 74
     0
 49
-0.25
 74
     0
 49
0.5
 74
     0
 49
-0.25
 74
     0
 49
0.0
 74
     0
 49
-0.25
 74
     0
  0
LTYPE
  5
31
330
5
100
AcDbSymbolTableRecord
100
AcDbLinetypeTableRecord
  2
RAND2
 70
     0
  3
Rand (.5x) __.__.__.__.__.__.__
 72
    65
 73
     6
 40
0.875
 49
0.25
 74
     0
 49
-0.125
 74
     0
 49
0.25
 74
     0
 49
-0.125
 74
     0
 49
0.0
 74
     0
 49
-0.125
 74
     0
  0
LTYPE
  5
32
330
5
100
AcDbSymbolTableRecord
100
AcDbLinetypeTableRecord
  2
RANDX2
 70
     0
  3
Rand (2x) ____  ____  .  ____  
 72
    65
 73
     6
 40
3.5
 49
1.0
 74
     0
 49
-0.5
 74
     0
 49
1.0
 74
     0
 49
-0.5
 74
     0
 49
0.0
 74
     0
 49
-0.5
 74
     0
  0
LTYPE
  5
33
330
5
100
AcDbSymbolTableRecord
100
AcDbLinetypeTableRecord
  2
MITTE
 70
     0
  3
Mitte ____ _ ____ _ ____ _ ____
 72
    65
 73
     4
 40
2.0
 49
1.25
 74
     0
 49
-0.25
 74
     0
 49
0.25
 74
     0
 49
-0.25
 74
     0
  0
LTYPE
  5
34
330
5
100
AcDbSymbolTableRecord
100
AcDbLinetypeTableRecord
  2
MITTE2
 70
     0
  3
Mitte (.5x) ___ _ ___ _ ___ _ _
 72
    65
 73
     4
 40
1.125
 49
0.7500000000000001
 74
     0
 49
-0.125
 74
     0
 49
0.125
 74
     0
 49
-0.125
 74
     0
  0
LTYPE
  5
35
330
5
100
AcDbSymbolTableRecord
100
AcDbLinetypeTableRecord
  2
MITTEX2
 70
     0
  3
Mitte (2x) ________  __  ______
 72
    65
 73
     4
 40
4.0
 49
2.5
 74
     0
 49
-0.5
 74
     0
 49
0.5
 74
     0
 49
-0.5
 74
     0
  0
LTYPE
  5
36
330
5
100
AcDbSymbolTableRecord
100
AcDbLinetypeTableRecord
  2
STRICHPUNKT
 70
     0
  3
Strichpunkt __ . __ . __ . __ .
 72
    65
 73
     4
 40
1.0
 49
0.5
 74
     0
 49
-0.25
 74
     0
 49
0.0
 74
     0
 49
-0.25
 74
     0
  0
LTYPE
  5
37
330
5
100
AcDbSymbolTableRecord
100
AcDbLinetypeTableRecord
  2
STRICHPUNKT2
 70
     0
  3
Strichpunkt (.5x) _._._._._._._
 72
    65
 73
     4
 40
0.5
 49
0.25
 74
     0
 49
-0.125
 74
     0
 49
0.0
 74
     0
 49
-0.125
 74
     0
  0
LTYPE
  5
38
330
5
100
AcDbSymbolTableRecord
100
AcDbLinetypeTableRecord
  2
STRICHPUNKTX2
 70
     0
  3
Strichpunkt (2x) ____  .  ____ 
 72
    65
 73
     4
 40
2.0
 49
1.0
 74
     0
 49
-0.5
 74
     0
 49
0.0
 74
     0
 49
-0.5
 74
     0
  0
LTYPE
  5
39
330
5
100
AcDbSymbolTableRecord
100
AcDbLinetypeTableRecord
  2
STRICHLINIE
 70
     0
  3
Strichlinie __ __ __ __ __ __ _
 72
    65
 73
     2
 40
0.75
 49
0.5
 74
     0
 49
-0.25
 74
     0
  0
LTYPE
  5
3A
330
5
100
AcDbSymbolTableRecord
100
AcDbLinetypeTableRecord
  2
STRICHLINIE2
 70
     0
  3
Strichlinie (.5x) _ _ _ _ _ _ _
 72
    65
 73
     2
 40
0.375
 49
0.25
 74
     0
 49
-0.125
 74
     0
  0
LTYPE
  5
3B
330
5
100
AcDbSymbolTableRecord
100
AcDbLinetypeTableRecord
  2
STRICHLINIEX2
 70
     0
  3
Strichlinie (2x) ____  ____  __
 72
    65
 73
     2
 40
1.5
 49
1.0
 74
     0
 49
-0.5
 74
     0
  0
LTYPE
  5
3C
330
5
100
AcDbSymbolTableRecord
100
AcDbLinetypeTableRecord
  2
GETRENNT
 70
     0
  3
Getrennt ____ . . ____ . . ____
 72
    65
 73
     6
 40
1.25
 49
0.5
 74
     0
 49
-0.25
 74
     0
 49
0.0
 74
     0
 49
-0.25
 74
     0
 49
0.0
 74
     0
 49
-0.25
 74
     0
  0
LTYPE
  5
3D
330
5
100
AcDbSymbolTableRecord
100
AcDbLinetypeTableRecord
  2
GETRENNT2
 70
     0
  3
Getrennt (.5x) __..__..__..__..
 72
    65
 73
     6
 40
0.625
 49
0.25
 74
     0
 49
-0.125
 74
     0
 49
0.0
 74
     0
 49
-0.125
 74
     0
 49
0.0
 74
     0
 49
-0.125
 74
     0
  0
LTYPE
  5
3E
330
5
100
AcDbSymbolTableRecord
100
AcDbLinetypeTableRecord
  2
GETRENNTX2
 70
     0
  3
Getrennt (2x) ________  .  .  _
 72
    65
 73
     6
 40
2.5
 49
1.0
 74
     0
 49
-0.5
 74
     0
 49
0.0
 74
     0
 49
-0.5
 74
     0
 49
0.0
 74
     0
 49
-0.5
 74
     0
  0
LTYPE
  5
3F
330
5
100
AcDbSymbolTableRecord
100
AcDbLinetypeTableRecord
  2
PUNKT
 70
     0
  3
Punkt . . . . . . . . . . . . .
 72
    65
 73
     2
 40
0.25
 49
0.0
 74
     0
 49
-0.25
 74
     0
  0
LTYPE
  5
40
330
5
100
AcDbSymbolTableRecord
100
AcDbLinetypeTableRecord
  2
PUNKT2
 70
     0
  3
Punkt (.5x) ...................
 72
    65
 73
     2
 40
0.125
 49
0.0
 74
     0
 49
-0.125
 74
     0
  0
LTYPE
  5
41
330
5
100
AcDbSymbolTableRecord
100
AcDbLinetypeTableRecord
  2
PUNKTX2
 70
     0
  3
Punkt (2x) .  .  .  .  .  .  . 
 72
    65
 73
     2
 40
0.5
 49
0.0
 74
     0
 49
-0.5
 74
     0
  0
LTYPE
  5
42
330
5
100
AcDbSymbolTableRecord
100
AcDbLinetypeTableRecord
  2
VERDECKT
 70
     0
  3
Verdeckt __ __ __ __ __ __ __ _
 72
    65
 73
     2
 40
0.375
 49
0.25
 74
     0
 49
-0.125
 74
     0
  0
LTYPE
  5
43
330
5
100
AcDbSymbolTableRecord
100
AcDbLinetypeTableRecord
  2
VERDECKT2
 70
     0
  3
Verdeckt (.5x) _ _ _ _ _ _ _ _ 
 72
    65
 73
     2
 40
0.1875
 49
0.125
 74
     0
 49
-0.0625
 74
     0
  0
LTYPE
  5
44
330
5
100
AcDbSymbolTableRecord
100
AcDbLinetypeTableRecord
  2
VERDECKTX2
 70
     0
  3
Verdeckt (2x) ____ ____ ____ __
 72
    65
 73
     2
 40
0.75
 49
0.5
 74
     0
 49
-0.25
 74
     0
  0
LTYPE
  5
45
330
5
100
AcDbSymbolTableRecord
100
AcDbLinetypeTableRecord
  2
PHANTOM2
 70
     0
  3
Phantom (.5x) ___ _ _ ___ _ _ _
 72
    65
 73
     6
 40
1.25
 49
0.6250000000000001
 74
     0
 49
-0.125
 74
     0
 49
0.125
 74
     0
 49
-0.125
 74
     0
 49
0.125
 74
     0
 49
-0.125
 74
     0
  0
LTYPE
  5
46
330
5
100
AcDbSymbolTableRecord
100
AcDbLinetypeTableRecord
  2
PHANTOMX2
 70
     0
  3
Phantom (2x) ____________    __
 72
    65
 73
     6
 40
5.0
 49
2.5
 74
     0
 49
-0.5
 74
     0
 49
0.5
 74
     0
 49
-0.5
 74
     0
 49
0.5
 74
     0
 49
-0.5
 74
     0
  0
LTYPE
  5
47
330
5
100
AcDbSymbolTableRecord
100
AcDbLinetypeTableRecord
  2
PUNKTE
 70
     0
  3
Punkte - - - - - - - - - - - - 
 72
    65
 73
     2
 40
0.1
 49
0.05
 74
     0
 49
-0.05
 74
     0
  0
LTYPE
  5
48
330
5
100
AcDbSymbolTableRecord
100
AcDbLinetypeTableRecord
  2
ACAD_ISO02W100
 70
     0
  3
__ __ __ __ __ __ __ __ __ __ _
 72
    65
 73
     2
 40
15.0
 49
12.0
 74
     0
 49
-3.0
 74
     0
  0
LTYPE
  5
49
330
5
100
AcDbSymbolTableRecord
100
AcDbLinetypeTableRecord
  2
ACAD_ISO03W100
 70
     0
  3
__    __    __    __    __    _
 72
    65
 73
     2
 40
30.0
 49
12.0
 74
     0
 49
-18.0
 74
     0
  0
LTYPE
  5
4A
330
5
100
AcDbSymbolTableRecord
100
AcDbLinetypeTableRecord
  2
ACAD_ISO04W100
 70
     0
  3
____ . ____ . ____ . ____ . ___
 72
    65
 73
     4
 40
30.5
 49
24.0
 74
     0
 49
-3.0
 74
     0
 49
0.5
 74
     0
 49
-3.0
 74
     0
  0
LTYPE
  5
4B
330
5
100
AcDbSymbolTableRecord
100
AcDbLinetypeTableRecord
  2
ACAD_ISO05W100
 70
     0
  3
____ .. ____ .. ____ .. ____ ..
 72
    65
 73
     6
 40
34.0
 49
24.0
 74
     0
 49
-3.0
 74
     0
 49
0.5
 74
     0
 49
-3.0
 74
     0
 49
0.5
 74
     0
 49
-3.0
 74
     0
  0
LTYPE
  5
4C
330
5
100
AcDbSymbolTableRecord
100
AcDbLinetypeTableRecord
  2
ACAD_ISO06W100
 70
     0
  3
____ ... ____ ... ____ ... ____
 72
    65
 73
     6
 40
34.0
 49
24.0
 74
     0
 49
-3.0
 74
     0
 49
0.5
 74
     0
 49
-3.0
 74
     0
 49
0.5
 74
     0
 49
-3.0
 74
     0
  0
LTYPE
  5
4D
330
5
100
AcDbSymbolTableRecord
100
AcDbLinetypeTableRecord
  2
ACAD_ISO07W100
 70
     0
  3
. . . . . . . . . . . . . . . .
 72
    65
 73
     2
 40
3.5
 49
0.5
 74
     0
 49
-3.0
 74
     0
  0
LTYPE
  5
4E
330
5
100
AcDbSymbolTableRecord
100
AcDbLinetypeTableRecord
  2
ACAD_ISO08W100
 70
     0
  3
____ __ ____ __ ____ __ ____ __
 72
    65
 73
     4
 40
36.0
 49
24.0
 74
     0
 49
-3.0
 74
     0
 49
6.0
 74
     0
 49
-3.0
 74
     0
  0
LTYPE
  5
4F
330
5
100
AcDbSymbolTableRecord
100
AcDbLinetypeTableRecord
  2
ACAD_ISO09W100
 70
     0
  3
____ __ __ ____ __ __ ____ __ _
 72
    65
 73
     6
 40
45.0
 49
24.0
 74
     0
 49
-3.0
 74
     0
 49
6.0
 74
     0
 49
-3.0
 74
     0
 49
6.0
 74
     0
 49
-3.0
 74
     0
  0
LTYPE
  5
50
330
5
100
AcDbSymbolTableRecord
100
AcDbLinetypeTableRecord
  2
ACAD_ISO10W100
 70
     0
  3
__ . __ . __ . __ . __ . __ . _
 72
    65
 73
     4
 40
18.5
 49
12.0
 74
     0
 49
-3.0
 74
     0
 49
0.5
 74
     0
 49
-3.0
 74
     0
  0
LTYPE
  5
51
330
5
100
AcDbSymbolTableRecord
100
AcDbLinetypeTableRecord
  2
ACAD_ISO11W100
 70
     0
  3
__ __ . __ __ . __ __ . __ __ .
 72
    65
 73
     6
 40
33.5
 49
12.0
 74
     0
 49
-3.0
 74
     0
 49
12.0
 74
     0
 49
-3.0
 74
     0
 49
0.5
 74
     0
 49
-3.0
 74
     0
  0
LTYPE
  5
52
330
5
100
AcDbSymbolTableRecord
100
AcDbLinetypeTableRecord
  2
ACAD_ISO12W100
 70
     0
  3
__ . . __ . . __ . . __ . . __ 
 72
    65
 73
     6
 40
22.0
 49
12.0
 74
     0
 49
-3.0
 74
     0
 49
0.5
 74
     0
 49
-3.0
 74
     0
 49
0.5
 74
     0
 49
-3.0
 74
     0
  0
LTYPE
  5
53
330
5
100
AcDbSymbolTableRecord
100
AcDbLinetypeTableRecord
  2
ACAD_ISO13W100
 70
     0
  3
__ __ . . __ __ . . __ __ . . _
 72
    65
 73
     6
 40
33.5
 49
12.0
 74
     0
 49
-3.0
 74
     0
 49
12.0
 74
     0
 49
-3.0
 74
     0
 49
0.5
 74
     0
 49
-3.0
 74
     0
  0
LTYPE
  5
54
330
5
100
AcDbSymbolTableRecord
100
AcDbLinetypeTableRecord
  2
ACAD_ISO14W100
 70
     0
  3
__ . . . __ . . . __ . . . __ .
 72
    65
 73
     6
 40
22.0
 49
12.0
 74
     0
 49
-3.0
 74
     0
 49
0.5
 74
     0
 49
-3.0
 74
     0
 49
0.5
 74
     0
 49
-3.0
 74
     0
  0
LTYPE
  5
55
330
5
100
AcDbSymbolTableRecord
100
AcDbLinetypeTableRecord
  2
ACAD_ISO15W100
 70
     0
  3
__ __ . . . __ __ . . . __ __ .
 72
    65
 73
     6
 40
33.5
 49
12.0
 74
     0
 49
-3.0
 74
     0
 49
12.0
 74
     0
 49
-3.0
 74
     0
 49
0.5
 74
     0
 49
-3.0
 74
     0
  0
ENDTAB
  0
TABLE
  2
LAYER
  5
2
330
0
100
AcDbSymbolTable
 70
     5
  0
LAYER
  5
10
330
2
100
AcDbSymbolTableRecord
100
AcDbLayerTableRecord
  2
0
 70
     0
 62
     7
  6
Continuous
370
    -3
390
F
  0
LAYER
  5
56
330
2
100
AcDbSymbolTableRecord
100
AcDbLayerTableRecord
  2
APARATE
 70
     0
 62
     3
  6
Continuous
370
    -3
390
F
  0
LAYER
  5
57
330
2
100
AcDbSymbolTableRecord
100
AcDbLayerTableRecord
  2
BEMASSUNG
 70
     0
 62
    14
  6
Continuous
370
    -3
390
F
  0
LAYER
  5
58
330
2
100
AcDbSymbolTableRecord
100
AcDbLayerTableRecord
  2
GEH훃SE
 70
     0
 62
     7
  6
Continuous
370
    -3
390
F
  0
LAYER
  5
59
330
2
100
AcDbSymbolTableRecord
100
AcDbLayerTableRecord
  2
LUFTAUSLASS
 70
     0
 62
     2
  6
Continuous
370
    -3
390
F
  0
ENDTAB
  0
TABLE
  2
STYLE
  5
3
330
0
100
AcDbSymbolTable
 70
     5
  0
STYLE
  5
11
330
3
100
AcDbSymbolTableRecord
100
AcDbTextStyleTableRecord
  2
Standard
 70
     0
 40
0.0
 41
1.0
 50
0.0
 71
     0
 42
9.999999999999998
  3
txt
  4

  0
STYLE
  5
5A
330
3
100
AcDbSymbolTableRecord
100
AcDbTextStyleTableRecord
  2
ITALIC
 70
     0
 40
0.0
 41
1.0
 50
0.0
 71
     0
 42
9.999999999999998
  3
ITALIC
  4

  0
STYLE
  5
5B
330
3
100
AcDbSymbolTableRecord
100
AcDbTextStyleTableRecord
  2
SIMPLEX
 70
     0
 40
0.0
 41
1.0
 50
0.0
 71
     0
 42
9.999999999999998
  3
SIMPLEX
  4

  0
STYLE
  5
5C
330
3
100
AcDbSymbolTableRecord
100
AcDbTextStyleTableRecord
  2
COMPLEX
 70
     0
 40
0.0
 41
1.0
 50
0.0
 71
     0
 42
9.999999999999998
  3
COMPLEX
  4

  0
STYLE
  5
62
330
3
100
AcDbSymbolTableRecord
100
AcDbTextStyleTableRecord
  2
ARIAL
 70
     0
 40
0.0
 41
1.0
 50
0.0
 71
     0
 42
9.999999999999998
  3
arial.ttf
  4

1001
ACAD
1000
Arial
1071
        0
  0
ENDTAB
  0
TABLE
  2
VIEW
  5
6
330
0
100
AcDbSymbolTable
 70
     0
  0
ENDTAB
  0
TABLE
  2
UCS
  5
7
330
0
100
AcDbSymbolTable
 70
     0
  0
ENDTAB
  0
TABLE
  2
APPID
  5
9
330
0
100
AcDbSymbolTable
 70
     1
  0
APPID
  5
12
330
9
100
AcDbSymbolTableRecord
100
AcDbRegAppTableRecord
  2
ACAD
 70
     0
  0
ENDTAB
  0
TABLE
  2
DIMSTYLE
  5
A
330
0
100
AcDbSymbolTable
 70
     1
100
AcDbDimStyleTable
 71
     0
  0
DIMSTYLE
105
27
330
A
100
AcDbSymbolTableRecord
100
AcDbDimStyleTableRecord
  2
Standard
 70
     0
340
11
  0
ENDTAB
  0
TABLE
  2
BLOCK_RECORD
  5
1
330
0
100
AcDbSymbolTable
 70
     2
  0
BLOCK_RECORD
  5
1F
330
1
100
AcDbSymbolTableRecord
100
AcDbBlockTableRecord
  2
*Model_Space
340
22
  0
BLOCK_RECORD
  5
1B
330
1
100
AcDbSymbolTableRecord
100
AcDbBlockTableRecord
  2
*Paper_Space
340
1E
  0
BLOCK_RECORD
  5
23
330
1
100
AcDbSymbolTableRecord
100
AcDbBlockTableRecord
  2
*Paper_Space0
340
26
  0
BLOCK_RECORD
  5
68
330
1
100
AcDbSymbolTableRecord
100
AcDbBlockTableRecord
  2
LONGARROW
340
0
102
{BLKREFS
331
6D
331
6E
331
74
331
75
331
7B
331
7C
331
82
331
83
331
89
331
8A
331
90
331
91
331
98
331
99
331
9F
331
A0
331
C4
331
C5
331
CB
331
CC
331
D2
331
D3
331
D9
331
DA
331
E0
331
E1
331
E7
331
E8
331
EE
331
EF
331
F5
331
F6
331
FC
331
FD
331
103
331
104
331
10A
331
10B
331
111
331
112
331
118
331
119
331
11F
331
120
331
126
331
127
331
12D
331
12E
331
134
331
135
331
13B
331
13C
331
142
331
143
331
149
331
14A
331
150
331
151
331
157
331
158
331
15E
331
15F
331
165
331
166
331
16C
331
16D
331
173
331
174
331
17A
331
17B
102
}
  0
ENDTAB
  0
ENDSEC
  0
SECTION
  2
BLOCKS
  0
BLOCK
  5
20
330
1F
100
AcDbEntity
  8
0
100
AcDbBlockBegin
  2
*Model_Space
 70
     0
 10
0.0
 20
0.0
 30
0.0
  3
*Model_Space
  1

  0
ENDBLK
  5
21
330
1F
100
AcDbEntity
  8
0
100
AcDbBlockEnd
  0
BLOCK
  5
1C
330
1B
100
AcDbEntity
 67
     1
  8
0
100
AcDbBlockBegin
  2
*Paper_Space
 70
     0
 10
0.0
 20
0.0
 30
0.0
  3
*Paper_Space
  1

  0
ENDBLK
  5
1D
330
1B
100
AcDbEntity
 67
     1
  8
0
100
AcDbBlockEnd
  0
BLOCK
  5
24
330
23
100
AcDbEntity
  8
0
100
AcDbBlockBegin
  2
*Paper_Space0
 70
     0
 10
0.0
 20
0.0
 30
0.0
  3
*Paper_Space0
  1

  0
ENDBLK
  5
25
330
23
100
AcDbEntity
  8
0
100
AcDbBlockEnd
  0
BLOCK
  5
6B
330
68
100
AcDbEntity
  8
0
 62
     7
100
AcDbBlockBegin
  2
LONGARROW
 70
     0
 10
0.0
 20
0.0
 30
0.0
  3
LONGARROW
  1

  0
LWPOLYLINE
  5
69
102
{ACAD_REACTORS
330
6A
102
}
330
68
100
AcDbEntity
  8
APARATE
  6
Continuous
 62
     0
100
AcDbPolyline
 90
        3
 70
     1
 43
0.0
 10
0.0
 20
0.0
 10
50.8
 20
-6.349999999999999
 10
50.8
 20
6.349999999999999
  0
HATCH
  5
6A
330
68
100
AcDbEntity
  8
APARATE
  6
Continuous
 62
     0
100
AcDbHatch
 10
0.0
 20
0.0
 30
0.0
210
0.0
220
0.0
230
1.0
  2
SOLID
 70
     1
 71
     1
 91
        1
 92
        1
 93
        3
 72
     1
 10
0.0
 20
0.0
 11
50.8
 21
-6.349999999999999
 72
     1
 10
50.8
 20
-6.349999999999999
 11
50.8
 21
6.349999999999999
 72
     1
 10
50.8
 20
6.349999999999999
 11
0.0
 21
0.0
 97
        1
330
69
 75
     0
 76
     1
 98
        1
 10
0.0
 20
0.0
  0
ENDBLK
  5
6C
330
68
100
AcDbEntity
  8
0
 62
     7
100
AcDbBlockEnd
  0
ENDSEC
  0
SECTION
  2
ENTITIES
  0
LWPOLYLINE
  5
5D
330
1F
100
AcDbEntity
  8
GEH훃SE
  6
Continuous
 62
     7
100
AcDbPolyline
 90
        4
 70
     1
 43
0.0
 10
32.99999999999999
 20
219.0
 10
135.0
 20
219.0
 10
135.0
 20
183.0
 10
32.99999999999999
 20
183.0
  0
LWPOLYLINE
  5
5E
330
1F
100
AcDbEntity
  8
APARATE
  6
Continuous
 62
     3
100
AcDbPolyline
 90
        4
 70
     1
 43
0.0
 10
116.9999999999999
 20
184.9999999999999
 10
127.0
 20
184.9999999999999
 10
127.0
 20
194.9999999999999
 10
116.9999999999999
 20
194.9999999999999
  0
CIRCLE
  5
5F
330
1F
100
AcDbEntity
  8
APARATE
  6
Continuous
 62
     3
100
AcDbCircle
 10
122.0
 20
190.0
 30
0.0
 40
2.999999999999994
  0
LWPOLYLINE
  5
60
330
1F
100
AcDbEntity
  8
APARATE
  6
Continuous
 62
     3
100
AcDbPolyline
 90
        4
 70
     1
 43
0.0
 10
113.0
 20
184.9999999999999
 10
97.99999999999997
 20
184.9999999999999
 10
97.99999999999997
 20
201.0
 10
113.0
 20
201.0
  0
CIRCLE
  5
61
330
1F
100
AcDbEntity
  8
GEH훃SE
  6
Continuous
 62
     7
100
AcDbCircle
 10
122.0
 20
190.0
 30
0.0
 40
3.605551275463982
  0
TEXT
  5
63
330
1F
100
AcDbEntity
  8
BEMASSUNG
  6
Continuous
 62
    14
100
AcDbText
 10
135.8788924269378
 20
198.0
 30
0.0
 40
3.999999999999999
  1
3.00 mm
  7
ARIAL
 72
     1
 11
145.63667794317
 21
200.0
 31
0.0
100
AcDbText
 73
     2
  0
LINE
  5
64
330
1F
100
AcDbEntity
  8
BEMASSUNG
  6
Continuous
 62
    14
100
AcDbLine
 10
122.0
 20
192.0
 30
0.0
 11
122.0
 21
203.0
 31
0.0
  0
LINE
  5
65
330
1F
100
AcDbEntity
  8
BEMASSUNG
  6
Continuous
 62
    14
100
AcDbLine
 10
125.0
 20
192.0
 30
0.0
 11
125.0
 21
203.0
 31
0.0
  0
LINE
  5
66
330
1F
100
AcDbEntity
  8
BEMASSUNG
  6
Continuous
 62
    14
100
AcDbLine
 10
122.0
 20
200.0
 30
0.0
 11
116.0
 21
200.0
 31
0.0
  0
LINE
  5
67
330
1F
100
AcDbEntity
  8
BEMASSUNG
  6
Continuous
 62
    14
100
AcDbLine
 10
125.0
 20
200.0
 30
0.0
 11
130.9999999999999
 21
200.0
 31
0.0
  0
INSERT
  5
6D
330
1F
100
AcDbEntity
  8
BEMASSUNG
  6
Continuous
 62
    14
100
AcDbBlockReference
  2
LONGARROW
 10
122.0
 20
200.0
 30
0.0
 41
0.078740157480315
 42
0.078740157480315
 50
180.0
  0
INSERT
  5
6E
330
1F
100
AcDbEntity
  8
BEMASSUNG
  6
Continuous
 62
    14
100
AcDbBlockReference
  2
LONGARROW
 10
125.0
 20
200.0
 30
0.0
 41
0.078740157480315
 42
0.078740157480315
  0
TEXT
  5
6F
330
1F
100
AcDbEntity
  8
BEMASSUNG
  6
Continuous
 62
    14
100
AcDbText
 10
91.6055365405977
 20
178.0
 30
0.0
 40
3.999999999999999
  1
3.50 mm
  7
ARIAL
 72
     1
 11
101.3633220568299
 21
180.0
 31
0.0
100
AcDbText
 73
     2
  0
LINE
  5
70
330
1F
100
AcDbEntity
  8
BEMASSUNG
  6
Continuous
 62
    14
100
AcDbLine
 10
125.5
 20
188.0
 30
0.0
 11
125.5
 21
177.0
 31
0.0
  0
LINE
  5
71
330
1F
100
AcDbEntity
  8
BEMASSUNG
  6
Continuous
 62
    14
100
AcDbLine
 10
122.0
 20
188.0
 30
0.0
 11
122.0
 21
177.0
 31
0.0
  0
LINE
  5
72
330
1F
100
AcDbEntity
  8
BEMASSUNG
  6
Continuous
 62
    14
100
AcDbLine
 10
125.5
 20
180.0
 30
0.0
 11
131.4999999999999
 21
180.0
 31
0.0
  0
LINE
  5
73
330
1F
100
AcDbEntity
  8
BEMASSUNG
  6
Continuous
 62
    14
100
AcDbLine
 10
122.0
 20
180.0
 30
0.0
 11
116.0
 21
180.0
 31
0.0
  0
INSERT
  5
74
330
1F
100
AcDbEntity
  8
BEMASSUNG
  6
Continuous
 62
    14
100
AcDbBlockReference
  2
LONGARROW
 10
125.5
 20
180.0
 30
0.0
 41
0.078740157480315
 42
0.078740157480315
  0
INSERT
  5
75
330
1F
100
AcDbEntity
  8
BEMASSUNG
  6
Continuous
 62
    14
100
AcDbBlockReference
  2
LONGARROW
 10
122.0
 20
180.0
 30
0.0
 41
0.078740157480315
 42
0.078740157480315
 50
180.0
  0
TEXT
  5
76
330
1F
100
AcDbEntity
  8
BEMASSUNG
  6
Continuous
 62
    14
100
AcDbText
 10
132.8788924269378
 20
203.0
 30
0.0
 40
3.999999999999999
  1
5.00 mm
  7
ARIAL
 72
     1
 11
142.63667794317
 21
204.9999999999999
 31
0.0
100
AcDbText
 73
     2
  0
LINE
  5
77
330
1F
100
AcDbEntity
  8
BEMASSUNG
  6
Continuous
 62
    14
100
AcDbLine
 10
116.9999999999999
 20
196.9999999999999
 30
0.0
 11
116.9999999999999
 21
207.9999999999999
 31
0.0
  0
LINE
  5
78
330
1F
100
AcDbEntity
  8
BEMASSUNG
  6
Continuous
 62
    14
100
AcDbLine
 10
122.0
 20
196.9999999999999
 30
0.0
 11
122.0
 21
207.9999999999999
 31
0.0
  0
LINE
  5
79
330
1F
100
AcDbEntity
  8
BEMASSUNG
  6
Continuous
 62
    14
100
AcDbLine
 10
116.9999999999999
 20
204.9999999999999
 30
0.0
 11
111.0
 21
204.9999999999999
 31
0.0
  0
LINE
  5
7A
330
1F
100
AcDbEntity
  8
BEMASSUNG
  6
Continuous
 62
    14
100
AcDbLine
 10
122.0
 20
204.9999999999999
 30
0.0
 11
127.9999999999999
 21
204.9999999999999
 31
0.0
  0
INSERT
  5
7B
330
1F
100
AcDbEntity
  8
BEMASSUNG
  6
Continuous
 62
    14
100
AcDbBlockReference
  2
LONGARROW
 10
116.9999999999999
 20
204.9999999999999
 30
0.0
 41
0.078740157480315
 42
0.078740157480315
 50
180.0
  0
INSERT
  5
7C
330
1F
100
AcDbEntity
  8
BEMASSUNG
  6
Continuous
 62
    14
100
AcDbBlockReference
  2
LONGARROW
 10
122.0
 20
204.9999999999999
 30
0.0
 41
0.078740157480315
 42
0.078740157480315
  0
TEXT
  5
7D
330
1F
100
AcDbEntity
  8
BEMASSUNG
  6
Continuous
 62
    14
100
AcDbText
 10
96.60553654059768
 20
172.9999999999999
 30
0.0
 40
3.999999999999999
  1
8.00 mm
  7
ARIAL
 72
     1
 11
106.3633220568299
 21
174.9999999999999
 31
0.0
100
AcDbText
 73
     2
  0
LINE
  5
7E
330
1F
100
AcDbEntity
  8
BEMASSUNG
  6
Continuous
 62
    14
100
AcDbLine
 10
135.0
 20
182.9999999999999
 30
0.0
 11
135.0
 21
171.9999999999999
 31
0.0
  0
LINE
  5
7F
330
1F
100
AcDbEntity
  8
BEMASSUNG
  6
Continuous
 62
    14
100
AcDbLine
 10
127.0
 20
182.9999999999999
 30
0.0
 11
127.0
 21
171.9999999999999
 31
0.0
  0
LINE
  5
80
330
1F
100
AcDbEntity
  8
BEMASSUNG
  6
Continuous
 62
    14
100
AcDbLine
 10
135.0
 20
174.9999999999999
 30
0.0
 11
141.0
 21
174.9999999999999
 31
0.0
  0
LINE
  5
81
330
1F
100
AcDbEntity
  8
BEMASSUNG
  6
Continuous
 62
    14
100
AcDbLine
 10
127.0
 20
174.9999999999999
 30
0.0
 11
121.0
 21
174.9999999999999
 31
0.0
  0
INSERT
  5
82
330
1F
100
AcDbEntity
  8
BEMASSUNG
  6
Continuous
 62
    14
100
AcDbBlockReference
  2
LONGARROW
 10
135.0
 20
174.9999999999999
 30
0.0
 41
0.078740157480315
 42
0.078740157480315
  0
INSERT
  5
83
330
1F
100
AcDbEntity
  8
BEMASSUNG
  6
Continuous
 62
    14
100
AcDbBlockReference
  2
LONGARROW
 10
127.0
 20
174.9999999999999
 30
0.0
 41
0.078740157480315
 42
0.078740157480315
 50
180.0
  0
TEXT
  5
84
330
1F
100
AcDbEntity
  8
BEMASSUNG
  6
Continuous
 62
    14
100
AcDbText
 10
138.5764702334999
 20
214.9999999999999
 30
0.0
 40
3.999999999999999
  1
10.00 mm
  7
ARIAL
 72
     1
 11
149.7294114574789
 21
216.9999999999999
 31
0.0
100
AcDbText
 73
     2
  0
LINE
  5
85
330
1F
100
AcDbEntity
  8
BEMASSUNG
  6
Continuous
 62
    14
100
AcDbLine
 10
116.9999999999999
 20
208.9999999999999
 30
0.0
 11
116.9999999999999
 21
219.9999999999999
 31
0.0
  0
LINE
  5
86
330
1F
100
AcDbEntity
  8
BEMASSUNG
  6
Continuous
 62
    14
100
AcDbLine
 10
127.0
 20
196.4999999999999
 30
0.0
 11
127.0
 21
219.9999999999999
 31
0.0
  0
LINE
  5
87
330
1F
100
AcDbEntity
  8
BEMASSUNG
  6
Continuous
 62
    14
100
AcDbLine
 10
116.9999999999999
 20
216.9999999999999
 30
0.0
 11
111.0
 21
216.9999999999999
 31
0.0
  0
LINE
  5
88
330
1F
100
AcDbEntity
  8
BEMASSUNG
  6
Continuous
 62
    14
100
AcDbLine
 10
127.0
 20
216.9999999999999
 30
0.0
 11
132.9999999999999
 21
216.9999999999999
 31
0.0
  0
INSERT
  5
89
330
1F
100
AcDbEntity
  8
BEMASSUNG
  6
Continuous
 62
    14
100
AcDbBlockReference
  2
LONGARROW
 10
116.9999999999999
 20
216.9999999999999
 30
0.0
 41
0.078740157480315
 42
0.078740157480315
 50
180.0
  0
INSERT
  5
8A
330
1F
100
AcDbEntity
  8
BEMASSUNG
  6
Continuous
 62
    14
100
AcDbBlockReference
  2
LONGARROW
 10
127.0
 20
216.9999999999999
 30
0.0
 41
0.078740157480315
 42
0.078740157480315
  0
TEXT
  5
8B
330
1F
100
AcDbEntity
  8
BEMASSUNG
  6
Continuous
 62
    14
100
AcDbText
 10
71.45190306827426
 20
231.4999999999999
 30
0.0
 40
3.999999999999999
  1
102.00 mm
  7
ARIAL
 72
     1
 11
84.0
 21
233.4999999999999
 31
0.0
100
AcDbText
 73
     2
  0
LINE
  5
8C
330
1F
100
AcDbEntity
  8
BEMASSUNG
  6
Continuous
 62
    14
100
AcDbLine
 10
32.99999999999999
 20
225.4999999999999
 30
0.0
 11
32.99999999999999
 21
236.4999999999999
 31
0.0
  0
LINE
  5
8D
330
1F
100
AcDbEntity
  8
BEMASSUNG
  6
Continuous
 62
    14
100
AcDbLine
 10
135.0
 20
224.0
 30
0.0
 11
135.0
 21
236.4999999999999
 31
0.0
  0
LINE
  5
8E
330
1F
100
AcDbEntity
  8
BEMASSUNG
  6
Continuous
 62
    14
100
AcDbLine
 10
32.99999999999999
 20
233.4999999999999
 30
0.0
 11
65.17785502821205
 21
233.4999999999999
 31
0.0
  0
LINE
  5
8F
330
1F
100
AcDbEntity
  8
BEMASSUNG
  6
Continuous
 62
    14
100
AcDbLine
 10
135.0
 20
233.4999999999999
 30
0.0
 11
102.8221449717879
 21
233.4999999999999
 31
0.0
  0
INSERT
  5
90
330
1F
100
AcDbEntity
  8
BEMASSUNG
  6
Continuous
 62
    14
100
AcDbBlockReference
  2
LONGARROW
 10
32.99999999999999
 20
233.4999999999999
 30
0.0
 41
0.078740157480315
 42
0.078740157480315
  0
INSERT
  5
91
330
1F
100
AcDbEntity
  8
BEMASSUNG
  6
Continuous
 62
    14
100
AcDbBlockReference
  2
LONGARROW
 10
135.0
 20
233.4999999999999
 30
0.0
 41
0.078740157480315
 42
0.078740157480315
 50
180.0
  0
LWPOLYLINE
  5
92
330
1F
100
AcDbEntity
  8
LUFTAUSLASS
  6
Continuous
 62
     2
100
AcDbPolyline
 90
        4
 70
     1
 43
0.0
 10
32.99999999999999
 20
207.9999999999999
 10
135.0
 20
207.9999999999999
 10
135.0
 20
213.9999999999999
 10
32.99999999999999
 20
213.9999999999999
  0
TEXT
  5
93
330
1F
100
AcDbEntity
  8
BEMASSUNG
  6
Continuous
 62
    14
100
AcDbText
 10
145.8788924269378
 20
229.9999999999999
 30
0.0
 40
3.999999999999999
  1
8.00 mm
  7
ARIAL
 72
     1
 11
155.63667794317
 21
231.9999999999999
 31
0.0
100
AcDbText
 73
     2
  0
LINE
  5
94
330
1F
100
AcDbEntity
  8
BEMASSUNG
  6
Continuous
 62
    14
100
AcDbLine
 10
127.0
 20
224.0
 30
0.0
 11
127.0
 21
234.9999999999999
 31
0.0
  0
LINE
  5
95
330
1F
100
AcDbEntity
  8
BEMASSUNG
  6
Continuous
 62
    14
100
AcDbLine
 10
135.0
 20
224.0
 30
0.0
 11
135.0
 21
234.9999999999999
 31
0.0
  0
LINE
  5
96
330
1F
100
AcDbEntity
  8
BEMASSUNG
  6
Continuous
 62
    14
100
AcDbLine
 10
127.0
 20
231.9999999999999
 30
0.0
 11
121.0
 21
231.9999999999999
 31
0.0
  0
LINE
  5
97
330
1F
100
AcDbEntity
  8
BEMASSUNG
  6
Continuous
 62
    14
100
AcDbLine
 10
135.0
 20
231.9999999999999
 30
0.0
 11
141.0
 21
231.9999999999999
 31
0.0
  0
INSERT
  5
98
330
1F
100
AcDbEntity
  8
BEMASSUNG
  6
Continuous
 62
    14
100
AcDbBlockReference
  2
LONGARROW
 10
127.0
 20
231.9999999999999
 30
0.0
 41
0.078740157480315
 42
0.078740157480315
 50
180.0
  0
INSERT
  5
99
330
1F
100
AcDbEntity
  8
BEMASSUNG
  6
Continuous
 62
    14
100
AcDbBlockReference
  2
LONGARROW
 10
135.0
 20
231.9999999999999
 30
0.0
 41
0.078740157480315
 42
0.078740157480315
  0
TEXT
  5
9A
330
1F
100
AcDbEntity
  8
BEMASSUNG
  6
Continuous
 62
    14
100
AcDbText
 10
5.742214483767748
 20
226.0
 30
0.0
 40
3.999999999999999
  1
5.00 mm
  7
ARIAL
 72
     1
 11
15.49999999999999
 21
228.0
 31
0.0
100
AcDbText
 73
     2
  0
LINE
  5
9B
330
1F
100
AcDbEntity
  8
BEMASSUNG
  6
Continuous
 62
    14
100
AcDbLine
 10
23.5
 20
213.9999999999999
 30
0.0
 11
12.50000000000001
 21
213.9999999999999
 31
0.0
  0
LINE
  5
9C
330
1F
100
AcDbEntity
  8
BEMASSUNG
  6
Continuous
 62
    14
100
AcDbLine
 10
23.5
 20
219.0
 30
0.0
 11
12.5
 21
219.0
 31
0.0
  0
LINE
  5
9D
330
1F
100
AcDbEntity
  8
BEMASSUNG
  6
Continuous
 62
    14
100
AcDbLine
 10
15.50000000000001
 20
213.9999999999999
 30
0.0
 11
15.50000000000001
 21
207.9999999999999
 31
0.0
  0
LINE
  5
9E
330
1F
100
AcDbEntity
  8
BEMASSUNG
  6
Continuous
 62
    14
100
AcDbLine
 10
15.5
 20
219.0
 30
0.0
 11
15.5
 21
225.0
 31
0.0
  0
INSERT
  5
9F
330
1F
100
AcDbEntity
  8
BEMASSUNG
  6
Continuous
 62
    14
100
AcDbBlockReference
  2
LONGARROW
 10
15.50000000000001
 20
213.9999999999999
 30
0.0
 41
0.078740157480315
 42
0.078740157480315
 50
270.0
  0
INSERT
  5
A0
330
1F
100
AcDbEntity
  8
BEMASSUNG
  6
Continuous
 62
    14
100
AcDbBlockReference
  2
LONGARROW
 10
15.5
 20
219.0
 30
0.0
 41
0.078740157480315
 42
0.078740157480315
 50
90.00000000000005
  0
LINE
  5
A1
330
1F
100
AcDbEntity
  8
LUFTAUSLASS
  6
Continuous
 62
     2
100
AcDbLine
 10
130.2182540694794
 20
207.9999999999999
 30
0.0
 11
135.0000000000001
 21
212.7817459305205
 31
0.0
  0
LINE
  5
A2
330
1F
100
AcDbEntity
  8
LUFTAUSLASS
  6
Continuous
 62
     2
100
AcDbLine
 10
123.147186257614
 20
207.9999999999999
 30
0.0
 11
129.1471862576139
 21
213.9999999999998
 31
0.0
  0
LINE
  5
A3
330
1F
100
AcDbEntity
  8
LUFTAUSLASS
  6
Continuous
 62
     2
100
AcDbLine
 10
116.0761184457485
 20
207.9999999999999
 30
0.0
 11
122.0761184457485
 21
213.9999999999998
 31
0.0
  0
LINE
  5
A4
330
1F
100
AcDbEntity
  8
LUFTAUSLASS
  6
Continuous
 62
     2
100
AcDbLine
 10
109.0050506338831
 20
207.9999999999999
 30
0.0
 11
115.005050633883
 21
213.9999999999998
 31
0.0
  0
LINE
  5
A5
330
1F
100
AcDbEntity
  8
LUFTAUSLASS
  6
Continuous
 62
     2
100
AcDbLine
 10
101.9339828220176
 20
207.9999999999999
 30
0.0
 11
107.9339828220175
 21
213.9999999999999
 31
0.0
  0
LINE
  5
A6
330
1F
100
AcDbEntity
  8
LUFTAUSLASS
  6
Continuous
 62
     2
100
AcDbLine
 10
94.86291501015214
 20
207.9999999999999
 30
0.0
 11
100.862915010152
 21
213.9999999999998
 31
0.0
  0
LINE
  5
A7
330
1F
100
AcDbEntity
  8
LUFTAUSLASS
  6
Continuous
 62
     2
100
AcDbLine
 10
87.79184719828668
 20
207.9999999999999
 30
0.0
 11
93.79184719828668
 21
213.9999999999999
 31
0.0
  0
LINE
  5
A8
330
1F
100
AcDbEntity
  8
LUFTAUSLASS
  6
Continuous
 62
     2
100
AcDbLine
 10
80.72077938642122
 20
207.9999999999999
 30
0.0
 11
86.72077938642116
 21
213.9999999999998
 31
0.0
  0
LINE
  5
A9
330
1F
100
AcDbEntity
  8
LUFTAUSLASS
  6
Continuous
 62
     2
100
AcDbLine
 10
73.64971157455575
 20
207.9999999999999
 30
0.0
 11
79.64971157455572
 21
213.9999999999999
 31
0.0
  0
LINE
  5
AA
330
1F
100
AcDbEntity
  8
LUFTAUSLASS
  6
Continuous
 62
     2
100
AcDbLine
 10
66.57864376269026
 20
207.9999999999999
 30
0.0
 11
72.57864376269023
 21
213.9999999999999
 31
0.0
  0
LINE
  5
AB
330
1F
100
AcDbEntity
  8
LUFTAUSLASS
  6
Continuous
 62
     2
100
AcDbLine
 10
59.50757595082482
 20
207.9999999999999
 30
0.0
 11
65.50757595082479
 21
213.9999999999999
 31
0.0
  0
LINE
  5
AC
330
1F
100
AcDbEntity
  8
LUFTAUSLASS
  6
Continuous
 62
     2
100
AcDbLine
 10
52.43650813895936
 20
207.9999999999999
 30
0.0
 11
58.4365081389593
 21
213.9999999999999
 31
0.0
  0
LINE
  5
AD
330
1F
100
AcDbEntity
  8
LUFTAUSLASS
  6
Continuous
 62
     2
100
AcDbLine
 10
45.36544032709391
 20
207.9999999999999
 30
0.0
 11
51.36544032709386
 21
213.9999999999999
 31
0.0
  0
LINE
  5
AE
330
1F
100
AcDbEntity
  8
LUFTAUSLASS
  6
Continuous
 62
     2
100
AcDbLine
 10
38.29437251522845
 20
207.9999999999999
 30
0.0
 11
44.29437251522842
 21
213.9999999999999
 31
0.0
  0
LINE
  5
AF
330
1F
100
AcDbEntity
  8
LUFTAUSLASS
  6
Continuous
 62
     2
100
AcDbLine
 10
33.00000000000012
 20
209.776695296637
 30
0.0
 11
37.22330470336296
 21
213.9999999999999
 31
0.0
  0
LWPOLYLINE
  5
B0
330
1F
100
AcDbEntity
  8
GEH훃SE
  6
Continuous
 62
     7
100
AcDbPolyline
 90
        5
 70
     0
 43
0.0
 10
98.99999999999998
 20
200.0
 10
112.0
 20
200.0
 10
112.0
 20
193.9999999999999
 10
98.99999999999998
 20
193.9999999999999
 10
98.99999999999998
 20
200.0
  0
LWPOLYLINE
  5
B1
330
1F
100
AcDbEntity
  8
GEH훃SE
  6
Continuous
 62
     7
100
AcDbPolyline
 90
        4
 70
     1
 43
0.0
 10
98.99999999999998
 20
186.0
 10
112.0
 20
186.0
 10
112.0
 20
192.0
 10
98.99999999999998
 20
192.0
  0
LWPOLYLINE
  5
B2
330
1F
100
AcDbEntity
  8
APARATE
  6
Continuous
 62
     3
100
AcDbPolyline
 90
        4
 70
     1
 43
0.0
 10
94.0
 20
184.9999999999999
 10
76.0
 20
184.9999999999999
 10
76.0
 20
203.0
 10
94.0
 20
203.0
  0
LWPOLYLINE
  5
B3
330
1F
100
AcDbEntity
  8
APARATE
  6
Continuous
 62
     7
100
AcDbPolyline
 90
        2
 70
     0
 43
0.0
 10
90.0
 20
196.9999999999999
 10
79.99999999999999
 20
196.9999999999999
  0
LWPOLYLINE
  5
B4
330
1F
100
AcDbEntity
  8
APARATE
  6
Continuous
 62
     7
100
AcDbPolyline
 90
        2
 70
     0
 43
0.0
 10
79.99999999999999
 20
184.9999999999999
 10
90.0
 20
184.9999999999999
  0
LINE
  5
B5
330
1F
100
AcDbEntity
  8
GEH훃SE
  6
Continuous
 62
     7
100
AcDbLine
 10
77.5
 20
187.0
 30
0.0
 11
79.99999999999999
 21
184.9999999999999
 31
0.0
  0
LINE
  5
B6
330
1F
100
AcDbEntity
  8
APARATE
  6
Continuous
 62
     7
100
AcDbLine
 10
79.99999999999999
 20
184.9999999999999
 30
0.0
 11
90.0
 21
184.9999999999999
 31
0.0
  0
LINE
  5
B7
330
1F
100
AcDbEntity
  8
GEH훃SE
  6
Continuous
 62
     7
100
AcDbLine
 10
90.0
 20
184.9999999999999
 30
0.0
 11
92.49999999999998
 21
187.0
 31
0.0
  0
LWPOLYLINE
  5
B8
330
1F
100
AcDbEntity
  8
GEH훃SE
  6
Continuous
 62
     7
100
AcDbPolyline
 90
        4
 70
     0
 43
0.0
 10
92.5
 20
187.0
 10
92.5
 20
191.0
 10
77.5
 20
191.0
 10
77.5
 20
187.0
  0
LINE
  5
B9
330
1F
100
AcDbEntity
  8
GEH훃SE
  6
Continuous
 62
     7
100
AcDbLine
 10
77.5
 20
199.0
 30
0.0
 11
79.99999999999999
 21
196.9999999999999
 31
0.0
  0
LINE
  5
BA
330
1F
100
AcDbEntity
  8
GEH훃SE
  6
Continuous
 62
     7
100
AcDbLine
 10
79.99999999999999
 20
196.9999999999999
 30
0.0
 11
90.0
 21
196.9999999999999
 31
0.0
  0
LINE
  5
BB
330
1F
100
AcDbEntity
  8
GEH훃SE
  6
Continuous
 62
     7
100
AcDbLine
 10
90.0
 20
196.9999999999999
 30
0.0
 11
92.49999999999998
 21
199.0
 31
0.0
  0
LWPOLYLINE
  5
BC
330
1F
100
AcDbEntity
  8
GEH훃SE
  6
Continuous
 62
     7
100
AcDbPolyline
 90
        4
 70
     0
 43
0.0
 10
77.5
 20
199.0
 10
77.5
 20
203.0
 10
92.49999999999998
 20
203.0
 10
92.49999999999998
 20
199.0
  0
LWPOLYLINE
  5
BD
330
1F
100
AcDbEntity
  8
APARATE
  6
Continuous
 62
     3
100
AcDbPolyline
 90
        4
 70
     1
 43
0.0
 10
72.99999999999998
 20
184.9999999999999
 10
41.0
 20
184.9999999999999
 10
41.0
 20
197.9999999999999
 10
72.99999999999998
 20
197.9999999999999
  0
LWPOLYLINE
  5
BE
330
1F
100
AcDbEntity
  8
GEH훃SE
  6
Continuous
 62
     7
100
AcDbPolyline
 90
        4
 70
     1
 43
0.0
 10
41.5
 20
196.9999999999999
 10
72.49999999999999
 20
196.9999999999999
 10
72.49999999999999
 20
186.0
 10
41.5
 20
186.0
  0
TEXT
  5
BF
330
1F
100
AcDbEntity
  8
BEMASSUNG
  6
Continuous
 62
    14
100
AcDbText
 10
3.242214483767747
 20
220.9999999999999
 30
0.0
 40
3.999999999999999
  1
6.00 mm
  7
ARIAL
 72
     1
 11
12.99999999999999
 21
222.9999999999999
 31
0.0
100
AcDbText
 73
     2
  0
LINE
  5
C0
330
1F
100
AcDbEntity
  8
BEMASSUNG
  6
Continuous
 62
    14
100
AcDbLine
 10
21.49999999999999
 20
207.9999999999999
 30
0.0
 11
10.00000000000001
 21
207.9999999999999
 31
0.0
  0
LINE
  5
C1
330
1F
100
AcDbEntity
  8
BEMASSUNG
  6
Continuous
 62
    14
100
AcDbLine
 10
20.99999999999999
 20
213.9999999999999
 30
0.0
 11
10.0
 21
213.9999999999999
 31
0.0
  0
LINE
  5
C2
330
1F
100
AcDbEntity
  8
BEMASSUNG
  6
Continuous
 62
    14
100
AcDbLine
 10
13.00000000000001
 20
207.9999999999999
 30
0.0
 11
13.00000000000001
 21
202.0
 31
0.0
  0
LINE
  5
C3
330
1F
100
AcDbEntity
  8
BEMASSUNG
  6
Continuous
 62
    14
100
AcDbLine
 10
13.0
 20
213.9999999999999
 30
0.0
 11
12.99999999999999
 21
219.9999999999999
 31
0.0
  0
INSERT
  5
C4
330
1F
100
AcDbEntity
  8
BEMASSUNG
  6
Continuous
 62
    14
100
AcDbBlockReference
  2
LONGARROW
 10
13.00000000000001
 20
207.9999999999999
 30
0.0
 41
0.078740157480315
 42
0.078740157480315
 50
270.0
  0
INSERT
  5
C5
330
1F
100
AcDbEntity
  8
BEMASSUNG
  6
Continuous
 62
    14
100
AcDbBlockReference
  2
LONGARROW
 10
13.0
 20
213.9999999999999
 30
0.0
 41
0.078740157480315
 42
0.078740157480315
 50
90.00000000000005
  0
TEXT
  5
C6
330
1F
100
AcDbEntity
  8
BEMASSUNG
  6
Continuous
 62
    14
100
AcDbText
 10
3.742214483767746
 20
214.9999999999999
 30
0.0
 40
3.999999999999999
  1
5.00 mm
  7
ARIAL
 72
     1
 11
13.49999999999999
 21
216.9999999999999
 31
0.0
100
AcDbText
 73
     2
  0
LINE
  5
C7
330
1F
100
AcDbEntity
  8
BEMASSUNG
  6
Continuous
 62
    14
100
AcDbLine
 10
62.0
 20
203.0
 30
0.0
 11
10.5
 21
203.0
 31
0.0
  0
LINE
  5
C8
330
1F
100
AcDbEntity
  8
BEMASSUNG
  6
Continuous
 62
    14
100
AcDbLine
 10
21.49999999999999
 20
207.9999999999999
 30
0.0
 11
10.5
 21
207.9999999999999
 31
0.0
  0
LINE
  5
C9
330
1F
100
AcDbEntity
  8
BEMASSUNG
  6
Continuous
 62
    14
100
AcDbLine
 10
13.5
 20
203.0
 30
0.0
 11
13.50000000000001
 21
197.0
 31
0.0
  0
LINE
  5
CA
330
1F
100
AcDbEntity
  8
BEMASSUNG
  6
Continuous
 62
    14
100
AcDbLine
 10
13.5
 20
207.9999999999999
 30
0.0
 11
13.49999999999999
 21
213.9999999999999
 31
0.0
  0
INSERT
  5
CB
330
1F
100
AcDbEntity
  8
BEMASSUNG
  6
Continuous
 62
    14
100
AcDbBlockReference
  2
LONGARROW
 10
13.5
 20
203.0
 30
0.0
 41
0.078740157480315
 42
0.078740157480315
 50
270.0
  0
INSERT
  5
CC
330
1F
100
AcDbEntity
  8
BEMASSUNG
  6
Continuous
 62
    14
100
AcDbBlockReference
  2
LONGARROW
 10
13.5
 20
207.9999999999999
 30
0.0
 41
0.078740157480315
 42
0.078740157480315
 50
90.00000000000005
  0
TEXT
  5
CD
330
1F
100
AcDbEntity
  8
BEMASSUNG
  6
Continuous
 62
    14
100
AcDbText
 10
-0.757785516232254
 20
209.9999999999999
 30
0.0
 40
3.999999999999999
  1
5.00 mm
  7
ARIAL
 72
     1
 11
8.999999999999996
 21
211.9999999999999
 31
0.0
100
AcDbText
 73
     2
  0
LINE
  5
CE
330
1F
100
AcDbEntity
  8
BEMASSUNG
  6
Continuous
 62
    14
100
AcDbLine
 10
38.99999999999999
 20
197.9999999999999
 30
0.0
 11
6.000000000000011
 21
197.9999999999999
 31
0.0
  0
LINE
  5
CF
330
1F
100
AcDbEntity
  8
BEMASSUNG
  6
Continuous
 62
    14
100
AcDbLine
 10
17.0
 20
203.0
 30
0.0
 11
6.000000000000006
 21
203.0
 31
0.0
  0
LINE
  5
D0
330
1F
100
AcDbEntity
  8
BEMASSUNG
  6
Continuous
 62
    14
100
AcDbLine
 10
9.000000000000012
 20
197.9999999999999
 30
0.0
 11
9.000000000000017
 21
192.0
 31
0.0
  0
LINE
  5
D1
330
1F
100
AcDbEntity
  8
BEMASSUNG
  6
Continuous
 62
    14
100
AcDbLine
 10
9.000000000000005
 20
203.0
 30
0.0
 11
9.0
 21
208.9999999999999
 31
0.0
  0
INSERT
  5
D2
330
1F
100
AcDbEntity
  8
BEMASSUNG
  6
Continuous
 62
    14
100
AcDbBlockReference
  2
LONGARROW
 10
9.000000000000012
 20
197.9999999999999
 30
0.0
 41
0.078740157480315
 42
0.078740157480315
 50
270.0
  0
INSERT
  5
D3
330
1F
100
AcDbEntity
  8
BEMASSUNG
  6
Continuous
 62
    14
100
AcDbBlockReference
  2
LONGARROW
 10
9.000000000000005
 20
203.0
 30
0.0
 41
0.078740157480315
 42
0.078740157480315
 50
90.00000000000005
  0
TEXT
  5
D4
330
1F
100
AcDbEntity
  8
BEMASSUNG
  6
Continuous
 62
    14
100
AcDbText
 10
7.242214483767742
 20
204.9999999999999
 30
0.0
 40
3.999999999999999
  1
1.00 mm
  7
ARIAL
 72
     1
 11
16.99999999999999
 21
206.9999999999999
 31
0.0
100
AcDbText
 73
     2
  0
LINE
  5
D5
330
1F
100
AcDbEntity
  8
BEMASSUNG
  6
Continuous
 62
    14
100
AcDbLine
 10
36.99999999999999
 20
196.9999999999999
 30
0.0
 11
14.0
 21
196.9999999999999
 31
0.0
  0
LINE
  5
D6
330
1F
100
AcDbEntity
  8
BEMASSUNG
  6
Continuous
 62
    14
100
AcDbLine
 10
25.0
 20
197.9999999999999
 30
0.0
 11
14.0
 21
197.9999999999999
 31
0.0
  0
LINE
  5
D7
330
1F
100
AcDbEntity
  8
BEMASSUNG
  6
Continuous
 62
    14
100
AcDbLine
 10
17.0
 20
196.9999999999999
 30
0.0
 11
17.0
 21
191.0
 31
0.0
  0
LINE
  5
D8
330
1F
100
AcDbEntity
  8
BEMASSUNG
  6
Continuous
 62
    14
100
AcDbLine
 10
17.0
 20
197.9999999999999
 30
0.0
 11
16.99999999999999
 21
204.0
 31
0.0
  0
INSERT
  5
D9
330
1F
100
AcDbEntity
  8
BEMASSUNG
  6
Continuous
 62
    14
100
AcDbBlockReference
  2
LONGARROW
 10
17.0
 20
196.9999999999999
 30
0.0
 41
0.078740157480315
 42
0.078740157480315
 50
270.0
  0
INSERT
  5
DA
330
1F
100
AcDbEntity
  8
BEMASSUNG
  6
Continuous
 62
    14
100
AcDbBlockReference
  2
LONGARROW
 10
17.0
 20
197.9999999999999
 30
0.0
 41
0.078740157480315
 42
0.078740157480315
 50
90.00000000000005
  0
TEXT
  5
DB
330
1F
100
AcDbEntity
  8
BEMASSUNG
  6
Continuous
 62
    14
100
AcDbText
 10
36.03390995562078
 20
175.0
 30
0.0
 40
3.999999999999999
  1
11.00 mm
  7
ARIAL
 72
     1
 11
47.00000000000001
 21
177.0
 31
0.0
100
AcDbText
 73
     2
  0
LINE
  5
DC
330
1F
100
AcDbEntity
  8
BEMASSUNG
  6
Continuous
 62
    14
100
AcDbLine
 10
39.0
 20
196.9999999999999
 30
0.0
 11
50.0
 21
196.9999999999999
 31
0.0
  0
LINE
  5
DD
330
1F
100
AcDbEntity
  8
BEMASSUNG
  6
Continuous
 62
    14
100
AcDbLine
 10
36.0
 20
186.0
 30
0.0
 11
50.0
 21
186.0
 31
0.0
  0
LINE
  5
DE
330
1F
100
AcDbEntity
  8
BEMASSUNG
  6
Continuous
 62
    14
100
AcDbLine
 10
47.0
 20
196.9999999999999
 30
0.0
 11
46.99999999999999
 21
202.9999999999999
 31
0.0
  0
LINE
  5
DF
330
1F
100
AcDbEntity
  8
BEMASSUNG
  6
Continuous
 62
    14
100
AcDbLine
 10
47.00000000000001
 20
186.0
 30
0.0
 11
47.00000000000001
 21
180.0
 31
0.0
  0
INSERT
  5
E0
330
1F
100
AcDbEntity
  8
BEMASSUNG
  6
Continuous
 62
    14
100
AcDbBlockReference
  2
LONGARROW
 10
47.0
 20
196.9999999999999
 30
0.0
 41
0.078740157480315
 42
0.078740157480315
 50
90.00000000000007
  0
INSERT
  5
E1
330
1F
100
AcDbEntity
  8
BEMASSUNG
  6
Continuous
 62
    14
100
AcDbBlockReference
  2
LONGARROW
 10
47.00000000000001
 20
186.0
 30
0.0
 41
0.078740157480315
 42
0.078740157480315
 50
270.0
  0
TEXT
  5
E2
330
1F
100
AcDbEntity
  8
BEMASSUNG
  6
Continuous
 62
    14
100
AcDbText
 10
6.742214483767743
 20
193.0
 30
0.0
 40
3.999999999999999
  1
1.00 mm
  7
ARIAL
 72
     1
 11
16.49999999999999
 21
195.0
 31
0.0
100
AcDbText
 73
     2
  0
LINE
  5
E3
330
1F
100
AcDbEntity
  8
BEMASSUNG
  6
Continuous
 62
    14
100
AcDbLine
 10
34.49999999999999
 20
184.9999999999999
 30
0.0
 11
13.5
 21
184.9999999999999
 31
0.0
  0
LINE
  5
E4
330
1F
100
AcDbEntity
  8
BEMASSUNG
  6
Continuous
 62
    14
100
AcDbLine
 10
24.49999999999999
 20
186.0
 30
0.0
 11
13.5
 21
186.0
 31
0.0
  0
LINE
  5
E5
330
1F
100
AcDbEntity
  8
BEMASSUNG
  6
Continuous
 62
    14
100
AcDbLine
 10
16.5
 20
184.9999999999999
 30
0.0
 11
16.5
 21
179.0
 31
0.0
  0
LINE
  5
E6
330
1F
100
AcDbEntity
  8
BEMASSUNG
  6
Continuous
 62
    14
100
AcDbLine
 10
16.5
 20
186.0
 30
0.0
 11
16.49999999999999
 21
192.0
 31
0.0
  0
INSERT
  5
E7
330
1F
100
AcDbEntity
  8
BEMASSUNG
  6
Continuous
 62
    14
100
AcDbBlockReference
  2
LONGARROW
 10
16.5
 20
184.9999999999999
 30
0.0
 41
0.078740157480315
 42
0.078740157480315
 50
270.0
  0
INSERT
  5
E8
330
1F
100
AcDbEntity
  8
BEMASSUNG
  6
Continuous
 62
    14
100
AcDbBlockReference
  2
LONGARROW
 10
16.5
 20
186.0
 30
0.0
 41
0.078740157480315
 42
0.078740157480315
 50
90.00000000000005
  0
TEXT
  5
E9
330
1F
100
AcDbEntity
  8
BEMASSUNG
  6
Continuous
 62
    14
100
AcDbText
 10
11.74221448376774
 20
192.0
 30
0.0
 40
3.999999999999999
  1
2.00 mm
  7
ARIAL
 72
     1
 11
21.49999999999999
 21
193.9999999999999
 31
0.0
100
AcDbText
 73
     2
  0
LINE
  5
EA
330
1F
100
AcDbEntity
  8
BEMASSUNG
  6
Continuous
 62
    14
100
AcDbLine
 10
35.99999999999999
 20
182.9999999999999
 30
0.0
 11
18.5
 21
182.9999999999999
 31
0.0
  0
LINE
  5
EB
330
1F
100
AcDbEntity
  8
BEMASSUNG
  6
Continuous
 62
    14
100
AcDbLine
 10
29.49999999999999
 20
184.9999999999999
 30
0.0
 11
18.5
 21
184.9999999999999
 31
0.0
  0
LINE
  5
EC
330
1F
100
AcDbEntity
  8
BEMASSUNG
  6
Continuous
 62
    14
100
AcDbLine
 10
21.5
 20
182.9999999999999
 30
0.0
 11
21.50000000000001
 21
177.0
 31
0.0
  0
LINE
  5
ED
330
1F
100
AcDbEntity
  8
BEMASSUNG
  6
Continuous
 62
    14
100
AcDbLine
 10
21.5
 20
184.9999999999999
 30
0.0
 11
21.49999999999999
 21
190.9999999999999
 31
0.0
  0
INSERT
  5
EE
330
1F
100
AcDbEntity
  8
BEMASSUNG
  6
Continuous
 62
    14
100
AcDbBlockReference
  2
LONGARROW
 10
21.5
 20
182.9999999999999
 30
0.0
 41
0.078740157480315
 42
0.078740157480315
 50
270.0
  0
INSERT
  5
EF
330
1F
100
AcDbEntity
  8
BEMASSUNG
  6
Continuous
 62
    14
100
AcDbBlockReference
  2
LONGARROW
 10
21.5
 20
184.9999999999999
 30
0.0
 41
0.078740157480315
 42
0.078740157480315
 50
90.00000000000005
  0
TEXT
  5
F0
330
1F
100
AcDbEntity
  8
BEMASSUNG
  6
Continuous
 62
    14
100
AcDbText
 10
54.24221448376772
 20
198.0
 30
0.0
 40
3.999999999999999
  1
6.00 mm
  7
ARIAL
 72
     1
 11
63.99999999999997
 21
200.0
 31
0.0
100
AcDbText
 73
     2
  0
LINE
  5
F1
330
1F
100
AcDbEntity
  8
BEMASSUNG
  6
Continuous
 62
    14
100
AcDbLine
 10
72.0
 20
184.9999999999999
 30
0.0
 11
61.0
 21
184.9999999999999
 31
0.0
  0
LINE
  5
F2
330
1F
100
AcDbEntity
  8
BEMASSUNG
  6
Continuous
 62
    14
100
AcDbLine
 10
73.0
 20
191.0
 30
0.0
 11
60.99999999999999
 21
191.0
 31
0.0
  0
LINE
  5
F3
330
1F
100
AcDbEntity
  8
BEMASSUNG
  6
Continuous
 62
    14
100
AcDbLine
 10
63.99999999999999
 20
184.9999999999999
 30
0.0
 11
64.0
 21
179.0
 31
0.0
  0
LINE
  5
F4
330
1F
100
AcDbEntity
  8
BEMASSUNG
  6
Continuous
 62
    14
100
AcDbLine
 10
63.99999999999998
 20
191.0
 30
0.0
 11
63.99999999999997
 21
196.9999999999999
 31
0.0
  0
INSERT
  5
F5
330
1F
100
AcDbEntity
  8
BEMASSUNG
  6
Continuous
 62
    14
100
AcDbBlockReference
  2
LONGARROW
 10
63.99999999999999
 20
184.9999999999999
 30
0.0
 41
0.078740157480315
 42
0.078740157480315
 50
270.0
  0
INSERT
  5
F6
330
1F
100
AcDbEntity
  8
BEMASSUNG
  6
Continuous
 62
    14
100
AcDbBlockReference
  2
LONGARROW
 10
63.99999999999998
 20
191.0
 30
0.0
 41
0.078740157480315
 42
0.078740157480315
 50
90.00000000000005
  0
TEXT
  5
F7
330
1F
100
AcDbEntity
  8
BEMASSUNG
  6
Continuous
 62
    14
100
AcDbText
 10
54.74221448376773
 20
204.0
 30
0.0
 40
3.999999999999999
  1
6.00 mm
  7
ARIAL
 72
     1
 11
64.49999999999999
 21
205.9999999999999
 31
0.0
100
AcDbText
 73
     2
  0
LINE
  5
F8
330
1F
100
AcDbEntity
  8
BEMASSUNG
  6
Continuous
 62
    14
100
AcDbLine
 10
73.0
 20
191.0
 30
0.0
 11
61.50000000000002
 21
191.0
 31
0.0
  0
LINE
  5
F9
330
1F
100
AcDbEntity
  8
BEMASSUNG
  6
Continuous
 62
    14
100
AcDbLine
 10
72.5
 20
196.9999999999999
 30
0.0
 11
61.5
 21
196.9999999999999
 31
0.0
  0
LINE
  5
FA
330
1F
100
AcDbEntity
  8
BEMASSUNG
  6
Continuous
 62
    14
100
AcDbLine
 10
64.5
 20
191.0
 30
0.0
 11
64.50000000000001
 21
185.0
 31
0.0
  0
LINE
  5
FB
330
1F
100
AcDbEntity
  8
BEMASSUNG
  6
Continuous
 62
    14
100
AcDbLine
 10
64.5
 20
196.9999999999999
 30
0.0
 11
64.49999999999999
 21
202.9999999999999
 31
0.0
  0
INSERT
  5
FC
330
1F
100
AcDbEntity
  8
BEMASSUNG
  6
Continuous
 62
    14
100
AcDbBlockReference
  2
LONGARROW
 10
64.5
 20
191.0
 30
0.0
 41
0.078740157480315
 42
0.078740157480315
 50
270.0
  0
INSERT
  5
FD
330
1F
100
AcDbEntity
  8
BEMASSUNG
  6
Continuous
 62
    14
100
AcDbBlockReference
  2
LONGARROW
 10
64.5
 20
196.9999999999999
 30
0.0
 41
0.078740157480315
 42
0.078740157480315
 50
90.00000000000005
  0
TEXT
  5
FE
330
1F
100
AcDbEntity
  8
BEMASSUNG
  6
Continuous
 62
    14
100
AcDbText
 10
54.74221448376772
 20
209.9999999999999
 30
0.0
 40
3.999999999999999
  1
6.00 mm
  7
ARIAL
 72
     1
 11
64.49999999999997
 21
211.9999999999999
 31
0.0
100
AcDbText
 73
     2
  0
LINE
  5
FF
330
1F
100
AcDbEntity
  8
BEMASSUNG
  6
Continuous
 62
    14
100
AcDbLine
 10
72.5
 20
196.9999999999999
 30
0.0
 11
61.5
 21
196.9999999999999
 31
0.0
  0
LINE
  5
100
330
1F
100
AcDbEntity
  8
BEMASSUNG
  6
Continuous
 62
    14
100
AcDbLine
 10
73.0
 20
203.0
 30
0.0
 11
61.49999999999998
 21
203.0
 31
0.0
  0
LINE
  5
101
330
1F
100
AcDbEntity
  8
BEMASSUNG
  6
Continuous
 62
    14
100
AcDbLine
 10
64.5
 20
196.9999999999999
 30
0.0
 11
64.5
 21
191.0
 31
0.0
  0
LINE
  5
102
330
1F
100
AcDbEntity
  8
BEMASSUNG
  6
Continuous
 62
    14
100
AcDbLine
 10
64.49999999999999
 20
203.0
 30
0.0
 11
64.49999999999997
 21
208.9999999999999
 31
0.0
  0
INSERT
  5
103
330
1F
100
AcDbEntity
  8
BEMASSUNG
  6
Continuous
 62
    14
100
AcDbBlockReference
  2
LONGARROW
 10
64.5
 20
196.9999999999999
 30
0.0
 41
0.078740157480315
 42
0.078740157480315
 50
270.0
  0
INSERT
  5
104
330
1F
100
AcDbEntity
  8
BEMASSUNG
  6
Continuous
 62
    14
100
AcDbBlockReference
  2
LONGARROW
 10
64.49999999999999
 20
203.0
 30
0.0
 41
0.078740157480315
 42
0.078740157480315
 50
90.00000000000005
  0
TEXT
  5
105
330
1F
100
AcDbEntity
  8
BEMASSUNG
  6
Continuous
 62
    14
100
AcDbText
 10
55.24221448376774
 20
214.9999999999999
 30
0.0
 40
3.999999999999999
  1
5.00 mm
  7
ARIAL
 72
     1
 11
65.0
 21
216.9999999999999
 31
0.0
100
AcDbText
 73
     2
  0
LINE
  5
106
330
1F
100
AcDbEntity
  8
BEMASSUNG
  6
Continuous
 62
    14
100
AcDbLine
 10
73.0
 20
203.0
 30
0.0
 11
62.00000000000001
 21
203.0
 31
0.0
  0
LINE
  5
107
330
1F
100
AcDbEntity
  8
BEMASSUNG
  6
Continuous
 62
    14
100
AcDbLine
 10
73.0
 20
207.9999999999999
 30
0.0
 11
62.00000000000001
 21
207.9999999999999
 31
0.0
  0
LINE
  5
108
330
1F
100
AcDbEntity
  8
BEMASSUNG
  6
Continuous
 62
    14
100
AcDbLine
 10
65.0
 20
203.0
 30
0.0
 11
65.00000000000001
 21
197.0
 31
0.0
  0
LINE
  5
109
330
1F
100
AcDbEntity
  8
BEMASSUNG
  6
Continuous
 62
    14
100
AcDbLine
 10
65.0
 20
207.9999999999999
 30
0.0
 11
65.0
 21
213.9999999999999
 31
0.0
  0
INSERT
  5
10A
330
1F
100
AcDbEntity
  8
BEMASSUNG
  6
Continuous
 62
    14
100
AcDbBlockReference
  2
LONGARROW
 10
65.0
 20
203.0
 30
0.0
 41
0.078740157480315
 42
0.078740157480315
 50
270.0
  0
INSERT
  5
10B
330
1F
100
AcDbEntity
  8
BEMASSUNG
  6
Continuous
 62
    14
100
AcDbBlockReference
  2
LONGARROW
 10
65.0
 20
207.9999999999999
 30
0.0
 41
0.078740157480315
 42
0.078740157480315
 50
90.00000000000005
  0
TEXT
  5
10C
330
1F
100
AcDbEntity
  8
BEMASSUNG
  6
Continuous
 62
    14
100
AcDbText
 10
55.24221448376773
 20
220.9999999999999
 30
0.0
 40
3.999999999999999
  1
6.00 mm
  7
ARIAL
 72
     1
 11
64.99999999999999
 21
222.9999999999999
 31
0.0
100
AcDbText
 73
     2
  0
LINE
  5
10D
330
1F
100
AcDbEntity
  8
BEMASSUNG
  6
Continuous
 62
    14
100
AcDbLine
 10
73.0
 20
207.9999999999999
 30
0.0
 11
62.00000000000001
 21
207.9999999999999
 31
0.0
  0
LINE
  5
10E
330
1F
100
AcDbEntity
  8
BEMASSUNG
  6
Continuous
 62
    14
100
AcDbLine
 10
73.0
 20
213.9999999999999
 30
0.0
 11
62.0
 21
213.9999999999999
 31
0.0
  0
LINE
  5
10F
330
1F
100
AcDbEntity
  8
BEMASSUNG
  6
Continuous
 62
    14
100
AcDbLine
 10
65.0
 20
207.9999999999999
 30
0.0
 11
65.00000000000001
 21
202.0
 31
0.0
  0
LINE
  5
110
330
1F
100
AcDbEntity
  8
BEMASSUNG
  6
Continuous
 62
    14
100
AcDbLine
 10
65.0
 20
213.9999999999999
 30
0.0
 11
64.99999999999999
 21
219.9999999999999
 31
0.0
  0
INSERT
  5
111
330
1F
100
AcDbEntity
  8
BEMASSUNG
  6
Continuous
 62
    14
100
AcDbBlockReference
  2
LONGARROW
 10
65.0
 20
207.9999999999999
 30
0.0
 41
0.078740157480315
 42
0.078740157480315
 50
270.0
  0
INSERT
  5
112
330
1F
100
AcDbEntity
  8
BEMASSUNG
  6
Continuous
 62
    14
100
AcDbBlockReference
  2
LONGARROW
 10
65.0
 20
213.9999999999999
 30
0.0
 41
0.078740157480315
 42
0.078740157480315
 50
90.00000000000005
  0
TEXT
  5
113
330
1F
100
AcDbEntity
  8
BEMASSUNG
  6
Continuous
 62
    14
100
AcDbText
 10
55.24221448376773
 20
226.0
 30
0.0
 40
3.999999999999999
  1
5.00 mm
  7
ARIAL
 72
     1
 11
64.99999999999999
 21
228.0
 31
0.0
100
AcDbText
 73
     2
  0
LINE
  5
114
330
1F
100
AcDbEntity
  8
BEMASSUNG
  6
Continuous
 62
    14
100
AcDbLine
 10
73.0
 20
213.9999999999999
 30
0.0
 11
62.0
 21
213.9999999999999
 31
0.0
  0
LINE
  5
115
330
1F
100
AcDbEntity
  8
BEMASSUNG
  6
Continuous
 62
    14
100
AcDbLine
 10
73.5
 20
219.0
 30
0.0
 11
62.0
 21
219.0
 31
0.0
  0
LINE
  5
116
330
1F
100
AcDbEntity
  8
BEMASSUNG
  6
Continuous
 62
    14
100
AcDbLine
 10
65.0
 20
213.9999999999999
 30
0.0
 11
65.0
 21
207.9999999999999
 31
0.0
  0
LINE
  5
117
330
1F
100
AcDbEntity
  8
BEMASSUNG
  6
Continuous
 62
    14
100
AcDbLine
 10
65.0
 20
219.0
 30
0.0
 11
64.99999999999999
 21
225.0
 31
0.0
  0
INSERT
  5
118
330
1F
100
AcDbEntity
  8
BEMASSUNG
  6
Continuous
 62
    14
100
AcDbBlockReference
  2
LONGARROW
 10
65.0
 20
213.9999999999999
 30
0.0
 41
0.078740157480315
 42
0.078740157480315
 50
270.0
  0
INSERT
  5
119
330
1F
100
AcDbEntity
  8
BEMASSUNG
  6
Continuous
 62
    14
100
AcDbBlockReference
  2
LONGARROW
 10
65.0
 20
219.0
 30
0.0
 41
0.078740157480315
 42
0.078740157480315
 50
90.00000000000005
  0
TEXT
  5
11A
330
1F
100
AcDbEntity
  8
BEMASSUNG
  6
Continuous
 62
    14
100
AcDbText
 10
90.24221448376774
 20
193.0
 30
0.0
 40
3.999999999999999
  1
1.00 mm
  7
ARIAL
 72
     1
 11
100.0
 21
195.0
 31
0.0
100
AcDbText
 73
     2
  0
LINE
  5
11B
330
1F
100
AcDbEntity
  8
BEMASSUNG
  6
Continuous
 62
    14
100
AcDbLine
 10
109.0
 20
184.9999999999999
 30
0.0
 11
97.0
 21
184.9999999999999
 31
0.0
  0
LINE
  5
11C
330
1F
100
AcDbEntity
  8
BEMASSUNG
  6
Continuous
 62
    14
100
AcDbLine
 10
108.0
 20
186.0
 30
0.0
 11
97.0
 21
186.0
 31
0.0
  0
LINE
  5
11D
330
1F
100
AcDbEntity
  8
BEMASSUNG
  6
Continuous
 62
    14
100
AcDbLine
 10
100.0
 20
184.9999999999999
 30
0.0
 11
100.0
 21
179.0
 31
0.0
  0
LINE
  5
11E
330
1F
100
AcDbEntity
  8
BEMASSUNG
  6
Continuous
 62
    14
100
AcDbLine
 10
100.0
 20
186.0
 30
0.0
 11
100.0
 21
192.0
 31
0.0
  0
INSERT
  5
11F
330
1F
100
AcDbEntity
  8
BEMASSUNG
  6
Continuous
 62
    14
100
AcDbBlockReference
  2
LONGARROW
 10
100.0
 20
184.9999999999999
 30
0.0
 41
0.078740157480315
 42
0.078740157480315
 50
270.0
  0
INSERT
  5
120
330
1F
100
AcDbEntity
  8
BEMASSUNG
  6
Continuous
 62
    14
100
AcDbBlockReference
  2
LONGARROW
 10
100.0
 20
186.0
 30
0.0
 41
0.078740157480315
 42
0.078740157480315
 50
90.00000000000005
  0
TEXT
  5
121
330
1F
100
AcDbEntity
  8
BEMASSUNG
  6
Continuous
 62
    14
100
AcDbText
 10
90.24221448376774
 20
199.0
 30
0.0
 40
3.999999999999999
  1
6.00 mm
  7
ARIAL
 72
     1
 11
100.0
 21
201.0
 31
0.0
100
AcDbText
 73
     2
  0
LINE
  5
122
330
1F
100
AcDbEntity
  8
BEMASSUNG
  6
Continuous
 62
    14
100
AcDbLine
 10
108.0
 20
186.0
 30
0.0
 11
97.00000000000002
 21
186.0
 31
0.0
  0
LINE
  5
123
330
1F
100
AcDbEntity
  8
BEMASSUNG
  6
Continuous
 62
    14
100
AcDbLine
 10
108.0
 20
192.0
 30
0.0
 11
97.0
 21
192.0
 31
0.0
  0
LINE
  5
124
330
1F
100
AcDbEntity
  8
BEMASSUNG
  6
Continuous
 62
    14
100
AcDbLine
 10
100.0
 20
186.0
 30
0.0
 11
100.0
 21
180.0
 31
0.0
  0
LINE
  5
125
330
1F
100
AcDbEntity
  8
BEMASSUNG
  6
Continuous
 62
    14
100
AcDbLine
 10
100.0
 20
192.0
 30
0.0
 11
100.0
 21
197.9999999999999
 31
0.0
  0
INSERT
  5
126
330
1F
100
AcDbEntity
  8
BEMASSUNG
  6
Continuous
 62
    14
100
AcDbBlockReference
  2
LONGARROW
 10
100.0
 20
186.0
 30
0.0
 41
0.078740157480315
 42
0.078740157480315
 50
270.0
  0
INSERT
  5
127
330
1F
100
AcDbEntity
  8
BEMASSUNG
  6
Continuous
 62
    14
100
AcDbBlockReference
  2
LONGARROW
 10
100.0
 20
192.0
 30
0.0
 41
0.078740157480315
 42
0.078740157480315
 50
90.00000000000005
  0
TEXT
  5
128
330
1F
100
AcDbEntity
  8
BEMASSUNG
  6
Continuous
 62
    14
100
AcDbText
 10
89.74221448376772
 20
201.0
 30
0.0
 40
3.999999999999999
  1
2.00 mm
  7
ARIAL
 72
     1
 11
99.49999999999997
 21
203.0
 31
0.0
100
AcDbText
 73
     2
  0
LINE
  5
129
330
1F
100
AcDbEntity
  8
BEMASSUNG
  6
Continuous
 62
    14
100
AcDbLine
 10
108.0
 20
192.0
 30
0.0
 11
96.5
 21
192.0
 31
0.0
  0
LINE
  5
12A
330
1F
100
AcDbEntity
  8
BEMASSUNG
  6
Continuous
 62
    14
100
AcDbLine
 10
107.4999999999999
 20
193.9999999999999
 30
0.0
 11
96.5
 21
193.9999999999999
 31
0.0
  0
LINE
  5
12B
330
1F
100
AcDbEntity
  8
BEMASSUNG
  6
Continuous
 62
    14
100
AcDbLine
 10
99.50000000000001
 20
192.0
 30
0.0
 11
99.50000000000002
 21
186.0
 31
0.0
  0
LINE
  5
12C
330
1F
100
AcDbEntity
  8
BEMASSUNG
  6
Continuous
 62
    14
100
AcDbLine
 10
99.50000000000001
 20
193.9999999999999
 30
0.0
 11
99.49999999999999
 21
199.9999999999999
 31
0.0
  0
INSERT
  5
12D
330
1F
100
AcDbEntity
  8
BEMASSUNG
  6
Continuous
 62
    14
100
AcDbBlockReference
  2
LONGARROW
 10
99.50000000000001
 20
192.0
 30
0.0
 41
0.078740157480315
 42
0.078740157480315
 50
270.0
  0
INSERT
  5
12E
330
1F
100
AcDbEntity
  8
BEMASSUNG
  6
Continuous
 62
    14
100
AcDbBlockReference
  2
LONGARROW
 10
99.50000000000001
 20
193.9999999999999
 30
0.0
 41
0.078740157480315
 42
0.078740157480315
 50
90.00000000000005
  0
TEXT
  5
12F
330
1F
100
AcDbEntity
  8
BEMASSUNG
  6
Continuous
 62
    14
100
AcDbText
 10
89.74221448376772
 20
206.9999999999999
 30
0.0
 40
3.999999999999999
  1
6.00 mm
  7
ARIAL
 72
     1
 11
99.49999999999997
 21
208.9999999999999
 31
0.0
100
AcDbText
 73
     2
  0
LINE
  5
130
330
1F
100
AcDbEntity
  8
BEMASSUNG
  6
Continuous
 62
    14
100
AcDbLine
 10
107.4999999999999
 20
193.9999999999999
 30
0.0
 11
96.5
 21
193.9999999999999
 31
0.0
  0
LINE
  5
131
330
1F
100
AcDbEntity
  8
BEMASSUNG
  6
Continuous
 62
    14
100
AcDbLine
 10
108.0
 20
200.0
 30
0.0
 11
96.49999999999998
 21
200.0
 31
0.0
  0
LINE
  5
132
330
1F
100
AcDbEntity
  8
BEMASSUNG
  6
Continuous
 62
    14
100
AcDbLine
 10
99.50000000000001
 20
193.9999999999999
 30
0.0
 11
99.50000000000002
 21
188.0
 31
0.0
  0
LINE
  5
133
330
1F
100
AcDbEntity
  8
BEMASSUNG
  6
Continuous
 62
    14
100
AcDbLine
 10
99.49999999999999
 20
200.0
 30
0.0
 11
99.49999999999997
 21
205.9999999999999
 31
0.0
  0
INSERT
  5
134
330
1F
100
AcDbEntity
  8
BEMASSUNG
  6
Continuous
 62
    14
100
AcDbBlockReference
  2
LONGARROW
 10
99.50000000000001
 20
193.9999999999999
 30
0.0
 41
0.078740157480315
 42
0.078740157480315
 50
270.0
  0
INSERT
  5
135
330
1F
100
AcDbEntity
  8
BEMASSUNG
  6
Continuous
 62
    14
100
AcDbBlockReference
  2
LONGARROW
 10
99.49999999999999
 20
200.0
 30
0.0
 41
0.078740157480315
 42
0.078740157480315
 50
90.00000000000005
  0
TEXT
  5
136
330
1F
100
AcDbEntity
  8
BEMASSUNG
  6
Continuous
 62
    14
100
AcDbText
 10
100.7422144837677
 20
197.0
 30
0.0
 40
3.999999999999999
  1
5.00 mm
  7
ARIAL
 72
     1
 11
110.4999999999999
 21
199.0
 31
0.0
100
AcDbText
 73
     2
  0
LINE
  5
137
330
1F
100
AcDbEntity
  8
BEMASSUNG
  6
Continuous
 62
    14
100
AcDbLine
 10
118.4999999999999
 20
184.9999999999999
 30
0.0
 11
107.4999999999999
 21
184.9999999999999
 31
0.0
  0
LINE
  5
138
330
1F
100
AcDbEntity
  8
BEMASSUNG
  6
Continuous
 62
    14
100
AcDbLine
 10
119.4999999999999
 20
190.0
 30
0.0
 11
107.4999999999999
 21
190.0
 31
0.0
  0
LINE
  5
139
330
1F
100
AcDbEntity
  8
BEMASSUNG
  6
Continuous
 62
    14
100
AcDbLine
 10
110.4999999999999
 20
184.9999999999999
 30
0.0
 11
110.4999999999999
 21
179.0
 31
0.0
  0
LINE
  5
13A
330
1F
100
AcDbEntity
  8
BEMASSUNG
  6
Continuous
 62
    14
100
AcDbLine
 10
110.4999999999999
 20
190.0
 30
0.0
 11
110.4999999999999
 21
195.9999999999999
 31
0.0
  0
INSERT
  5
13B
330
1F
100
AcDbEntity
  8
BEMASSUNG
  6
Continuous
 62
    14
100
AcDbBlockReference
  2
LONGARROW
 10
110.4999999999999
 20
184.9999999999999
 30
0.0
 41
0.078740157480315
 42
0.078740157480315
 50
270.0
  0
INSERT
  5
13C
330
1F
100
AcDbEntity
  8
BEMASSUNG
  6
Continuous
 62
    14
100
AcDbBlockReference
  2
LONGARROW
 10
110.4999999999999
 20
190.0
 30
0.0
 41
0.078740157480315
 42
0.078740157480315
 50
90.00000000000005
  0
TEXT
  5
13D
330
1F
100
AcDbEntity
  8
BEMASSUNG
  6
Continuous
 62
    14
100
AcDbText
 10
2.605536540597677
 20
158.9999999999999
 30
0.0
 40
3.999999999999999
  1
8.00 mm
  7
ARIAL
 72
     1
 11
12.36332205682992
 21
160.9999999999999
 31
0.0
100
AcDbText
 73
     2
  0
LINE
  5
13E
330
1F
100
AcDbEntity
  8
BEMASSUNG
  6
Continuous
 62
    14
100
AcDbLine
 10
41.0
 20
168.9999999999999
 30
0.0
 11
41.0
 21
157.9999999999999
 31
0.0
  0
LINE
  5
13F
330
1F
100
AcDbEntity
  8
BEMASSUNG
  6
Continuous
 62
    14
100
AcDbLine
 10
32.99999999999999
 20
168.9999999999999
 30
0.0
 11
32.99999999999999
 21
157.9999999999999
 31
0.0
  0
LINE
  5
140
330
1F
100
AcDbEntity
  8
BEMASSUNG
  6
Continuous
 62
    14
100
AcDbLine
 10
41.0
 20
160.9999999999999
 30
0.0
 11
47.0
 21
160.9999999999999
 31
0.0
  0
LINE
  5
141
330
1F
100
AcDbEntity
  8
BEMASSUNG
  6
Continuous
 62
    14
100
AcDbLine
 10
32.99999999999999
 20
160.9999999999999
 30
0.0
 11
26.99999999999999
 21
160.9999999999999
 31
0.0
  0
INSERT
  5
142
330
1F
100
AcDbEntity
  8
BEMASSUNG
  6
Continuous
 62
    14
100
AcDbBlockReference
  2
LONGARROW
 10
41.0
 20
160.9999999999999
 30
0.0
 41
0.078740157480315
 42
0.078740157480315
  0
INSERT
  5
143
330
1F
100
AcDbEntity
  8
BEMASSUNG
  6
Continuous
 62
    14
100
AcDbBlockReference
  2
LONGARROW
 10
32.99999999999999
 20
160.9999999999999
 30
0.0
 41
0.078740157480315
 42
0.078740157480315
 50
180.0
  0
TEXT
  5
144
330
1F
100
AcDbEntity
  8
BEMASSUNG
  6
Continuous
 62
    14
100
AcDbText
 10
10.60553654059767
 20
156.9999999999999
 30
0.0
 40
3.999999999999999
  1
0.50 mm
  7
ARIAL
 72
     1
 11
20.36332205682993
 21
158.9999999999999
 31
0.0
100
AcDbText
 73
     2
  0
LINE
  5
145
330
1F
100
AcDbEntity
  8
BEMASSUNG
  6
Continuous
 62
    14
100
AcDbLine
 10
41.5
 20
167.0
 30
0.0
 11
41.5
 21
155.9999999999999
 31
0.0
  0
LINE
  5
146
330
1F
100
AcDbEntity
  8
BEMASSUNG
  6
Continuous
 62
    14
100
AcDbLine
 10
41.0
 20
167.0
 30
0.0
 11
41.0
 21
155.9999999999999
 31
0.0
  0
LINE
  5
147
330
1F
100
AcDbEntity
  8
BEMASSUNG
  6
Continuous
 62
    14
100
AcDbLine
 10
41.5
 20
158.9999999999999
 30
0.0
 11
47.5
 21
158.9999999999999
 31
0.0
  0
LINE
  5
148
330
1F
100
AcDbEntity
  8
BEMASSUNG
  6
Continuous
 62
    14
100
AcDbLine
 10
41.0
 20
158.9999999999999
 30
0.0
 11
35.0
 21
158.9999999999999
 31
0.0
  0
INSERT
  5
149
330
1F
100
AcDbEntity
  8
BEMASSUNG
  6
Continuous
 62
    14
100
AcDbBlockReference
  2
LONGARROW
 10
41.5
 20
158.9999999999999
 30
0.0
 41
0.078740157480315
 42
0.078740157480315
  0
INSERT
  5
14A
330
1F
100
AcDbEntity
  8
BEMASSUNG
  6
Continuous
 62
    14
100
AcDbBlockReference
  2
LONGARROW
 10
41.0
 20
158.9999999999999
 30
0.0
 41
0.078740157480315
 42
0.078740157480315
 50
180.0
  0
TEXT
  5
14B
330
1F
100
AcDbEntity
  8
BEMASSUNG
  6
Continuous
 62
    14
100
AcDbText
 10
7.117647318542005
 20
159.0
 30
0.0
 40
3.999999999999999
  1
31.50 mm
  7
ARIAL
 72
     1
 11
18.27058854252099
 21
161.0
 31
0.0
100
AcDbText
 73
     2
  0
LINE
  5
14C
330
1F
100
AcDbEntity
  8
BEMASSUNG
  6
Continuous
 62
    14
100
AcDbLine
 10
72.49999999999999
 20
169.4999999999999
 30
0.0
 11
72.49999999999999
 21
158.0
 31
0.0
  0
LINE
  5
14D
330
1F
100
AcDbEntity
  8
BEMASSUNG
  6
Continuous
 62
    14
100
AcDbLine
 10
41.0
 20
168.9999999999999
 30
0.0
 11
41.0
 21
158.0
 31
0.0
  0
LINE
  5
14E
330
1F
100
AcDbEntity
  8
BEMASSUNG
  6
Continuous
 62
    14
100
AcDbLine
 10
72.49999999999999
 20
161.0
 30
0.0
 11
78.49999999999998
 21
161.0
 31
0.0
  0
LINE
  5
14F
330
1F
100
AcDbEntity
  8
BEMASSUNG
  6
Continuous
 62
    14
100
AcDbLine
 10
41.0
 20
161.0
 30
0.0
 11
35.0
 21
161.0
 31
0.0
  0
INSERT
  5
150
330
1F
100
AcDbEntity
  8
BEMASSUNG
  6
Continuous
 62
    14
100
AcDbBlockReference
  2
LONGARROW
 10
72.49999999999999
 20
161.0
 30
0.0
 41
0.078740157480315
 42
0.078740157480315
  0
INSERT
  5
151
330
1F
100
AcDbEntity
  8
BEMASSUNG
  6
Continuous
 62
    14
100
AcDbBlockReference
  2
LONGARROW
 10
41.0
 20
161.0
 30
0.0
 41
0.078740157480315
 42
0.078740157480315
 50
180.0
  0
TEXT
  5
152
330
1F
100
AcDbEntity
  8
BEMASSUNG
  6
Continuous
 62
    14
100
AcDbText
 10
42.10553654059767
 20
159.4999999999999
 30
0.0
 40
3.999999999999999
  1
0.50 mm
  7
ARIAL
 72
     1
 11
51.86332205682992
 21
161.4999999999999
 31
0.0
100
AcDbText
 73
     2
  0
LINE
  5
153
330
1F
100
AcDbEntity
  8
BEMASSUNG
  6
Continuous
 62
    14
100
AcDbLine
 10
72.99999999999998
 20
169.4999999999999
 30
0.0
 11
72.99999999999998
 21
158.4999999999999
 31
0.0
  0
LINE
  5
154
330
1F
100
AcDbEntity
  8
BEMASSUNG
  6
Continuous
 62
    14
100
AcDbLine
 10
72.49999999999999
 20
169.4999999999999
 30
0.0
 11
72.49999999999999
 21
158.4999999999999
 31
0.0
  0
LINE
  5
155
330
1F
100
AcDbEntity
  8
BEMASSUNG
  6
Continuous
 62
    14
100
AcDbLine
 10
72.99999999999998
 20
161.4999999999999
 30
0.0
 11
78.99999999999998
 21
161.4999999999999
 31
0.0
  0
LINE
  5
156
330
1F
100
AcDbEntity
  8
BEMASSUNG
  6
Continuous
 62
    14
100
AcDbLine
 10
72.49999999999999
 20
161.4999999999999
 30
0.0
 11
66.49999999999998
 21
161.4999999999999
 31
0.0
  0
INSERT
  5
157
330
1F
100
AcDbEntity
  8
BEMASSUNG
  6
Continuous
 62
    14
100
AcDbBlockReference
  2
LONGARROW
 10
72.99999999999998
 20
161.4999999999999
 30
0.0
 41
0.078740157480315
 42
0.078740157480315
  0
INSERT
  5
158
330
1F
100
AcDbEntity
  8
BEMASSUNG
  6
Continuous
 62
    14
100
AcDbBlockReference
  2
LONGARROW
 10
72.49999999999999
 20
161.4999999999999
 30
0.0
 41
0.078740157480315
 42
0.078740157480315
 50
180.0
  0
TEXT
  5
159
330
1F
100
AcDbEntity
  8
BEMASSUNG
  6
Continuous
 62
    14
100
AcDbText
 10
42.60553654059767
 20
159.4999999999999
 30
0.0
 40
3.999999999999999
  1
4.50 mm
  7
ARIAL
 72
     1
 11
52.36332205682992
 21
161.4999999999999
 31
0.0
100
AcDbText
 73
     2
  0
LINE
  5
15A
330
1F
100
AcDbEntity
  8
BEMASSUNG
  6
Continuous
 62
    14
100
AcDbLine
 10
77.5
 20
169.4999999999999
 30
0.0
 11
77.5
 21
158.4999999999999
 31
0.0
  0
LINE
  5
15B
330
1F
100
AcDbEntity
  8
BEMASSUNG
  6
Continuous
 62
    14
100
AcDbLine
 10
72.99999999999998
 20
169.4999999999999
 30
0.0
 11
72.99999999999998
 21
158.4999999999999
 31
0.0
  0
LINE
  5
15C
330
1F
100
AcDbEntity
  8
BEMASSUNG
  6
Continuous
 62
    14
100
AcDbLine
 10
77.5
 20
161.4999999999999
 30
0.0
 11
83.49999999999999
 21
161.4999999999999
 31
0.0
  0
LINE
  5
15D
330
1F
100
AcDbEntity
  8
BEMASSUNG
  6
Continuous
 62
    14
100
AcDbLine
 10
72.99999999999998
 20
161.4999999999999
 30
0.0
 11
66.99999999999999
 21
161.4999999999999
 31
0.0
  0
INSERT
  5
15E
330
1F
100
AcDbEntity
  8
BEMASSUNG
  6
Continuous
 62
    14
100
AcDbBlockReference
  2
LONGARROW
 10
77.5
 20
161.4999999999999
 30
0.0
 41
0.078740157480315
 42
0.078740157480315
  0
INSERT
  5
15F
330
1F
100
AcDbEntity
  8
BEMASSUNG
  6
Continuous
 62
    14
100
AcDbBlockReference
  2
LONGARROW
 10
72.99999999999998
 20
161.4999999999999
 30
0.0
 41
0.078740157480315
 42
0.078740157480315
 50
180.0
  0
TEXT
  5
160
330
1F
100
AcDbEntity
  8
BEMASSUNG
  6
Continuous
 62
    14
100
AcDbText
 10
43.617647318542
 20
159.4999999999999
 30
0.0
 40
3.999999999999999
  1
12.50 mm
  7
ARIAL
 72
     1
 11
54.77058854252099
 21
161.5
 31
0.0
100
AcDbText
 73
     2
  0
LINE
  5
161
330
1F
100
AcDbEntity
  8
BEMASSUNG
  6
Continuous
 62
    14
100
AcDbLine
 10
90.0
 20
179.4999999999999
 30
0.0
 11
90.0
 21
158.4999999999999
 31
0.0
  0
LINE
  5
162
330
1F
100
AcDbEntity
  8
BEMASSUNG
  6
Continuous
 62
    14
100
AcDbLine
 10
77.5
 20
169.4999999999999
 30
0.0
 11
77.5
 21
158.4999999999999
 31
0.0
  0
LINE
  5
163
330
1F
100
AcDbEntity
  8
BEMASSUNG
  6
Continuous
 62
    14
100
AcDbLine
 10
90.0
 20
161.5
 30
0.0
 11
96.0
 21
161.5
 31
0.0
  0
LINE
  5
164
330
1F
100
AcDbEntity
  8
BEMASSUNG
  6
Continuous
 62
    14
100
AcDbLine
 10
77.5
 20
161.5
 30
0.0
 11
71.5
 21
161.5
 31
0.0
  0
INSERT
  5
165
330
1F
100
AcDbEntity
  8
BEMASSUNG
  6
Continuous
 62
    14
100
AcDbBlockReference
  2
LONGARROW
 10
90.0
 20
161.5
 30
0.0
 41
0.078740157480315
 42
0.078740157480315
  0
INSERT
  5
166
330
1F
100
AcDbEntity
  8
BEMASSUNG
  6
Continuous
 62
    14
100
AcDbBlockReference
  2
LONGARROW
 10
77.5
 20
161.5
 30
0.0
 41
0.078740157480315
 42
0.078740157480315
 50
180.0
  0
TEXT
  5
167
330
1F
100
AcDbEntity
  8
BEMASSUNG
  6
Continuous
 62
    14
100
AcDbText
 10
59.60553654059767
 20
161.0
 30
0.0
 40
3.999999999999999
  1
9.00 mm
  7
ARIAL
 72
     1
 11
69.36332205682993
 21
163.0
 31
0.0
100
AcDbText
 73
     2
  0
LINE
  5
168
330
1F
100
AcDbEntity
  8
BEMASSUNG
  6
Continuous
 62
    14
100
AcDbLine
 10
98.99999999999998
 20
183.4999999999999
 30
0.0
 11
98.99999999999998
 21
160.0
 31
0.0
  0
LINE
  5
169
330
1F
100
AcDbEntity
  8
BEMASSUNG
  6
Continuous
 62
    14
100
AcDbLine
 10
90.0
 20
171.0
 30
0.0
 11
90.0
 21
160.0
 31
0.0
  0
LINE
  5
16A
330
1F
100
AcDbEntity
  8
BEMASSUNG
  6
Continuous
 62
    14
100
AcDbLine
 10
98.99999999999998
 20
163.0
 30
0.0
 11
104.9999999999999
 21
163.0
 31
0.0
  0
LINE
  5
16B
330
1F
100
AcDbEntity
  8
BEMASSUNG
  6
Continuous
 62
    14
100
AcDbLine
 10
90.0
 20
163.0
 30
0.0
 11
83.99999999999998
 21
163.0
 31
0.0
  0
INSERT
  5
16C
330
1F
100
AcDbEntity
  8
BEMASSUNG
  6
Continuous
 62
    14
100
AcDbBlockReference
  2
LONGARROW
 10
98.99999999999998
 20
163.0
 30
0.0
 41
0.078740157480315
 42
0.078740157480315
  0
INSERT
  5
16D
330
1F
100
AcDbEntity
  8
BEMASSUNG
  6
Continuous
 62
    14
100
AcDbBlockReference
  2
LONGARROW
 10
90.0
 20
163.0
 30
0.0
 41
0.078740157480315
 42
0.078740157480315
 50
180.0
  0
TEXT
  5
16E
330
1F
100
AcDbEntity
  8
BEMASSUNG
  6
Continuous
 62
    14
100
AcDbText
 10
65.11764731854199
 20
165.0
 30
0.0
 40
3.999999999999999
  1
13.00 mm
  7
ARIAL
 72
     1
 11
76.27058854252098
 21
167.0
 31
0.0
100
AcDbText
 73
     2
  0
LINE
  5
16F
330
1F
100
AcDbEntity
  8
BEMASSUNG
  6
Continuous
 62
    14
100
AcDbLine
 10
112.0
 20
184.0
 30
0.0
 11
112.0
 21
164.0
 31
0.0
  0
LINE
  5
170
330
1F
100
AcDbEntity
  8
BEMASSUNG
  6
Continuous
 62
    14
100
AcDbLine
 10
98.99999999999998
 20
175.0
 30
0.0
 11
98.99999999999998
 21
164.0
 31
0.0
  0
LINE
  5
171
330
1F
100
AcDbEntity
  8
BEMASSUNG
  6
Continuous
 62
    14
100
AcDbLine
 10
112.0
 20
167.0
 30
0.0
 11
117.9999999999999
 21
167.0
 31
0.0
  0
LINE
  5
172
330
1F
100
AcDbEntity
  8
BEMASSUNG
  6
Continuous
 62
    14
100
AcDbLine
 10
98.99999999999998
 20
167.0
 30
0.0
 11
92.99999999999998
 21
167.0
 31
0.0
  0
INSERT
  5
173
330
1F
100
AcDbEntity
  8
BEMASSUNG
  6
Continuous
 62
    14
100
AcDbBlockReference
  2
LONGARROW
 10
112.0
 20
167.0
 30
0.0
 41
0.078740157480315
 42
0.078740157480315
  0
INSERT
  5
174
330
1F
100
AcDbEntity
  8
BEMASSUNG
  6
Continuous
 62
    14
100
AcDbBlockReference
  2
LONGARROW
 10
98.99999999999998
 20
167.0
 30
0.0
 41
0.078740157480315
 42
0.078740157480315
 50
180.0
  0
TEXT
  5
175
330
1F
100
AcDbEntity
  8
BEMASSUNG
  6
Continuous
 62
    14
100
AcDbText
 10
78.117647318542
 20
167.9999999999999
 30
0.0
 40
3.999999999999999
  1
10.00 mm
  7
ARIAL
 72
     1
 11
89.270588542521
 21
169.9999999999999
 31
0.0
100
AcDbText
 73
     2
  0
LINE
  5
176
330
1F
100
AcDbEntity
  8
BEMASSUNG
  6
Continuous
 62
    14
100
AcDbLine
 10
122.0
 20
182.4999999999999
 30
0.0
 11
122.0
 21
167.0
 31
0.0
  0
LINE
  5
177
330
1F
100
AcDbEntity
  8
BEMASSUNG
  6
Continuous
 62
    14
100
AcDbLine
 10
112.0
 20
178.0
 30
0.0
 11
112.0
 21
167.0
 31
0.0
  0
LINE
  5
178
330
1F
100
AcDbEntity
  8
BEMASSUNG
  6
Continuous
 62
    14
100
AcDbLine
 10
122.0
 20
169.9999999999999
 30
0.0
 11
127.9999999999999
 21
169.9999999999999
 31
0.0
  0
LINE
  5
179
330
1F
100
AcDbEntity
  8
BEMASSUNG
  6
Continuous
 62
    14
100
AcDbLine
 10
112.0
 20
169.9999999999999
 30
0.0
 11
106.0
 21
169.9999999999999
 31
0.0
  0
INSERT
  5
17A
330
1F
100
AcDbEntity
  8
BEMASSUNG
  6
Continuous
 62
    14
100
AcDbBlockReference
  2
LONGARROW
 10
122.0
 20
169.9999999999999
 30
0.0
 41
0.078740157480315
 42
0.078740157480315
  0
INSERT
  5
17B
330
1F
100
AcDbEntity
  8
BEMASSUNG
  6
Continuous
 62
    14
100
AcDbBlockReference
  2
LONGARROW
 10
112.0
 20
169.9999999999999
 30
0.0
 41
0.078740157480315
 42
0.078740157480315
 50
180.0
  0
ENDSEC
  0
SECTION
  2
OBJECTS
  0
DICTIONARY
  5
C
330
0
100
AcDbDictionary
281
     1
  3
ACAD_GROUP
350
D
  3
ACAD_PLOTSTYLENAME
350
E
  3
ACAD_MLINESTYLE
350
17
  3
ACAD_PLOTSETTINGS
350
19
  3
ACAD_LAYOUT
350
1A
  0
DICTIONARY
  5
D
102
{ACAD_REACTORS
330
C
102
}
330
C
100
AcDbDictionary
281
     1
  0
ACDBDICTIONARYWDFLT
  5
E
102
{ACAD_REACTORS
330
C
102
}
330
C
100
AcDbDictionary
281
     1
  3
Normal
350
F
100
AcDbDictionaryWithDefault
340
F
  0
DICTIONARY
  5
17
102
{ACAD_REACTORS
330
C
102
}
330
C
100
AcDbDictionary
281
     1
  3
Standard
350
18
  0
DICTIONARY
  5
19
102
{ACAD_REACTORS
330
C
102
}
330
C
100
AcDbDictionary
281
     1
  0
DICTIONARY
  5
1A
102
{ACAD_REACTORS
330
C
102
}
330
C
100
AcDbDictionary
281
     1
  3
Layout1
350
1E
  3
Model
350
22
  3
Layout2
350
26
  0
ACDBPLACEHOLDER
  5
F
102
{ACAD_REACTORS
330
E
102
}
330
E
  0
MLINESTYLE
  5
18
102
{ACAD_REACTORS
330
17
102
}
330
17
100
AcDbMlineStyle
  2
STANDARD
 70
     0
  3

 62
   256
 51
90.0
 52
90.0
 71
     2
 49
0.5
 62
   256
  6
BYLAYER
 49
-0.5
 62
   256
  6
BYLAYER
  0
LAYOUT
  5
1E
102
{ACAD_REACTORS
330
1A
102
}
330
1A
100
AcDbPlotSettings
  1

  2

  4

  6

 40
0.0
 41
0.0
 42
0.0
 43
0.0
 44
0.0
 45
0.0
 46
0.0
 47
0.0
 48
0.0
 49
0.0
140
0.0
141
0.0
142
1.0
143
1.0
 70
   688
 72
     0
 73
     0
 74
     5
  7

 75
    16
147
1.0
148
0.0
149
0.0
100
AcDbLayout
  1
Layout1
 70
     1
 71
     1
 10
0.0
 20
0.0
 11
12.0
 21
9.0
 12
0.0
 22
0.0
 32
0.0
 14
1.000000000000000E+20
 24
1.000000000000000E+20
 34
1.000000000000000E+20
 15
-1.000000000000000E+20
 25
-1.000000000000000E+20
 35
-1.000000000000000E+20
146
0.0
 13
0.0
 23
0.0
 33
0.0
 16
1.0
 26
0.0
 36
0.0
 17
0.0
 27
1.0
 37
0.0
 76
     0
330
1B
  0
LAYOUT
  5
22
102
{ACAD_REACTORS
330
1A
102
}
330
1A
100
AcDbPlotSettings
  1

  2

  4

  6

 40
0.0
 41
0.0
 42
0.0
 43
0.0
 44
0.0
 45
0.0
 46
0.0
 47
0.0
 48
0.0
 49
0.0
140
0.0
141
0.0
142
1.0
143
1.0
 70
  1712
 72
     0
 73
     0
 74
     0
  7

 75
     0
147
1.0
148
0.0
149
0.0
100
AcDbLayout
  1
Model
 70
     1
 71
     0
 10
0.0
 20
0.0
 11
12.0
 21
9.0
 12
0.0
 22
0.0
 32
0.0
 14
0.0
 24
0.0
 34
0.0
 15
0.0
 25
0.0
 35
0.0
146
0.0
 13
0.0
 23
0.0
 33
0.0
 16
1.0
 26
0.0
 36
0.0
 17
0.0
 27
1.0
 37
0.0
 76
     0
330
1F
  0
LAYOUT
  5
26
102
{ACAD_REACTORS
330
1A
102
}
330
1A
100
AcDbPlotSettings
  1

  2

  4

  6

 40
0.0
 41
0.0
 42
0.0
 43
0.0
 44
0.0
 45
0.0
 46
0.0
 47
0.0
 48
0.0
 49
0.0
140
0.0
141
0.0
142
1.0
143
1.0
 70
   688
 72
     0
 73
     0
 74
     5
  7

 75
    16
147
1.0
148
0.0
149
0.0
100
AcDbLayout
  1
Layout2
 70
     1
 71
     2
 10
0.0
 20
0.0
 11
12.0
 21
9.0
 12
0.0
 22
0.0
 32
0.0
 14
0.0
 24
0.0
 34
0.0
 15
0.0
 25
0.0
 35
0.0
146
0.0
 13
0.0
 23
0.0
 33
0.0
 16
1.0
 26
0.0
 36
0.0
 17
0.0
 27
1.0
 37
0.0
 76
     0
330
23
  0
ENDSEC
  0
EOF
