  0
SECTION
  2
HEADER
  9
$ACADVER
  1
AC1015
  9
$ACADMAINTVER
 70
     6
  9
$DWGCODEPAGE
  3
ANSI_1252
  9
$INSBASE
 10
0.0
 20
0.0
 30
0.0
  9
$EXTMIN
 10
23.49999999999999
 20
25.5
 30
-0.00000001
  9
$EXTMAX
 10
207.0
 20
286.9999999999997
 30
0.00000001
  9
$LIMMIN
 10
0.0
 20
0.0
  9
$LIMMAX
 10
8.271666666666666
 20
11.69666666666666
  9
$ORTHOMODE
 70
     0
  9
$REGENMODE
 70
     1
  9
$FILLMODE
 70
     1
  9
$QTEXTMODE
 70
     0
  9
$MIRRTEXT
 70
     1
  9
$LTSCALE
 40
1.0
  9
$ATTMODE
 70
     1
  9
$TEXTSIZE
 40
3.0
  9
$TRACEWID
 40
0.05
  9
$TEXTSTYLE
  7
Standard
  9
$CLAYER
  8
0
  9
$CELTYPE
  6
ByLayer
  9
$CECOLOR
 62
   134
  9
$CELTSCALE
 40
1.0
  9
$DISPSILH
 70
     0
  9
$DIMSCALE
 40
1.0
  9
$DIMASZ
 40
0.18
  9
$DIMEXO
 40
0.0625
  9
$DIMDLI
 40
0.38
  9
$DIMRND
 40
0.0
  9
$DIMDLE
 40
0.0
  9
$DIMEXE
 40
0.18
  9
$DIMTP
 40
0.0
  9
$DIMTM
 40
0.0
  9
$DIMTXT
 40
0.1574803149606299
  9
$DIMCEN
 40
0.09
  9
$DIMTSZ
 40
0.0
  9
$DIMTOL
 70
     0
  9
$DIMLIM
 70
     0
  9
$DIMTIH
 70
     1
  9
$DIMTOH
 70
     1
  9
$DIMSE1
 70
     0
  9
$DIMSE2
 70
     0
  9
$DIMTAD
 70
     0
  9
$DIMZIN
 70
     0
  9
$DIMBLK
  1

  9
$DIMASO
 70
     1
  9
$DIMSHO
 70
     1
  9
$DIMPOST
  1

  9
$DIMAPOST
  1

  9
$DIMALT
 70
     0
  9
$DIMALTD
 70
     2
  9
$DIMALTF
 40
25.4
  9
$DIMLFAC
 40
1.0
  9
$DIMTOFL
 70
     0
  9
$DIMTVP
 40
0.0
  9
$DIMTIX
 70
     0
  9
$DIMSOXD
 70
     0
  9
$DIMSAH
 70
     0
  9
$DIMBLK1
  1

  9
$DIMBLK2
  1

  9
$DIMSTYLE
  2
Standard
  9
$DIMCLRD
 70
     0
  9
$DIMCLRE
 70
     0
  9
$DIMCLRT
 70
     0
  9
$DIMTFAC
 40
1.0
  9
$DIMGAP
 40
0.09
  9
$DIMJUST
 70
     0
  9
$DIMSD1
 70
     0
  9
$DIMSD2
 70
     0
  9
$DIMTOLJ
 70
     1
  9
$DIMTZIN
 70
     0
  9
$DIMALTZ
 70
     0
  9
$DIMALTTZ
 70
     0
  9
$DIMUPT
 70
     0
  9
$DIMDEC
 70
     2
  9
$DIMTDEC
 70
     4
  9
$DIMALTU
 70
     2
  9
$DIMALTTD
 70
     2
  9
$DIMTXSTY
  7
Standard
  9
$DIMAUNIT
 70
     1
  9
$DIMADEC
 70
     0
  9
$DIMALTRND
 40
0.0
  9
$DIMAZIN
 70
     0
  9
$DIMDSEP
 70
    46
  9
$DIMATFIT
 70
     3
  9
$DIMFRAC
 70
     0
  9
$DIMLDRBLK
  1

  9
$DIMLUNIT
 70
     4
  9
$DIMLWD
 70
    -2
  9
$DIMLWE
 70
    -2
  9
$DIMTMOVE
 70
     0
  9
$LUNITS
 70
     2
  9
$LUPREC
 70
     2
  9
$SKETCHINC
 40
0.1
  9
$FILLETRAD
 40
4.999999999999999
  9
$AUNITS
 70
     0
  9
$AUPREC
 70
     2
  9
$MENU
  1
.
  9
$ELEVATION
 40
0.0
  9
$PELEVATION
 40
0.0
  9
$THICKNESS
 40
0.0
  9
$LIMCHECK
 70
     0
  9
$CHAMFERA
 40
4.999999999999999
  9
$CHAMFERB
 40
4.999999999999999
  9
$CHAMFERC
 40
0.0
  9
$CHAMFERD
 40
0.0
  9
$SKPOLY
 70
     0
  9
$TDCREATE
 40
2461288.918318460
  9
$TDUCREATE
 40
2461288.834985127
  9
$TDUPDATE
 40
2311953.243986261
  9
$TDUUPDATE
 40
0.0000000000
  9
$TDINDWG
 40
0.0000001852
  9
$TDUSRTIMER
 40
0.0000001852
  9
$USRTIMER
 70
     1
  9
$ANGBASE
 50
0.0
  9
$ANGDIR
 70
     0
  9
$PDMODE
 70
     0
  9
$PDSIZE
 40
0.0
  9
$PLINEWID
 40
0.0
  9
$SPLFRAME
 70
     0
  9
$SPLINETYPE
 70
     6
  9
$SPLINESEGS
 70
     8
  9
$HANDSEED
  5
1E1
  9
$SURFTAB1
 70
     6
  9
$SURFTAB2
 70
     6
  9
$SURFTYPE
 70
     6
  9
$SURFU
 70
     6
  9
$SURFV
 70
     6
  9
$UCSBASE
  2

  9
$UCSNAME
  2

  9
$UCSORG
 10
0.0
 20
0.0
 30
0.0
  9
$UCSXDIR
 10
1.0
 20
0.0
 30
0.0
  9
$UCSYDIR
 10
0.0
 20
1.0
 30
0.0
  9
$UCSORTHOREF
  2

  9
$UCSORTHOVIEW
 70
     0
  9
$UCSORGTOP
 10
0.0
 20
0.0
 30
0.0
  9
$UCSORGBOTTOM
 10
0.0
 20
0.0
 30
0.0
  9
$UCSORGLEFT
 10
0.0
 20
0.0
 30
0.0
  9
$UCSORGRIGHT
 10
0.0
 20
0.0
 30
0.0
  9
$UCSORGFRONT
 10
0.0
 20
0.0
 30
0.0
  9
$UCSORGBACK
 10
0.0
 20
0.0
 30
0.0
  9
$PUCSBASE
  2

  9
$PUCSNAME
  2

  9
$PUCSORG
 10
0.0
 20
0.0
 30
0.0
  9
$PUCSXDIR
 10
1.0
 20
0.0
 30
0.0
  9
$PUCSYDIR
 10
0.0
 20
1.0
 30
0.0
  9
$PUCSORTHOREF
  2

  9
$PUCSORTHOVIEW
 70
     0
  9
$PUCSORGTOP
 10
0.0
 20
0.0
 30
0.0
  9
$PUCSORGBOTTOM
 10
0.0
 20
0.0
 30
0.0
  9
$PUCSORGLEFT
 10
0.0
 20
0.0
 30
0.0
  9
$PUCSORGRIGHT
 10
0.0
 20
0.0
 30
0.0
  9
$PUCSORGFRONT
 10
0.0
 20
0.0
 30
0.0
  9
$PUCSORGBACK
 10
0.0
 20
0.0
 30
0.0
  9
$USERI1
 70
     0
  9
$USERI2
 70
     0
  9
$USERI3
 70
     0
  9
$USERI4
 70
     0
  9
$USERI5
 70
     0
  9
$USERR1
 40
0.0
  9
$USERR2
 40
0.0
  9
$USERR3
 40
0.0
  9
$USERR4
 40
0.0
  9
$USERR5
 40
0.0
  9
$WORLDVIEW
 70
     1
  9
$SHADEDGE
 70
     3
  9
$SHADEDIF
 70
    70
  9
$TILEMODE
 70
     1
  9
$MAXACTVP
 70
    64
  9
$PINSBASE
 10
0.0
 20
0.0
 30
0.0
  9
$PLIMCHECK
 70
     0
  9
$PEXTMIN
 10
1.000000000000000E+20
 20
1.000000000000000E+20
 30
1.000000000000000E+20
  9
$PEXTMAX
 10
-1.000000000000000E+20
 20
-1.000000000000000E+20
 30
-1.000000000000000E+20
  9
$PLIMMIN
 10
0.0
 20
0.0
  9
$PLIMMAX
 10
12.0
 20
9.0
  9
$UNITMODE
 70
     0
  9
$VISRETAIN
 70
     1
  9
$PLINEGEN
 70
     0
  9
$PSLTSCALE
 70
     1
  9
$TREEDEPTH
 70
  3020
  9
$CMLSTYLE
  2
Standard
  9
$CMLJUST
 70
     0
  9
$CMLSCALE
 40
1.0
  9
$PROXYGRAPHICS
 70
     1
  9
$MEASUREMENT
 70
     1
  9
$CELWEIGHT
370
    -1
  9
$ENDCAPS
280
     0
  9
$JOINSTYLE
280
     0
  9
$LWDISPLAY
290
     0
  9
$INSUNITS
 70
     0
  9
$HYPERLINKBASE
  1

  9
$STYLESHEET
  1

  9
$XEDIT
290
     1
  9
$CEPSNTYPE
380
     0
  9
$PSTYLEMODE
290
     1
  9
$FINGERPRINTGUID
  2
{D6850D08-BBE6-4ACE-A8D5-CA851CE04E0D}
  9
$VERSIONGUID
  2
{95F126C2-E962-4AED-A3D4-E8343CE76267}
  9
$EXTNAMES
290
     1
  9
$PSVPSCALE
 40
0.0
  9
$OLESTARTUP
290
     0
  0
ENDSEC
  0
SECTION
  2
CLASSES
  0
CLASS
  1
ACDBDICTIONARYWDFLT
  2
AcDbDictionaryWithDefault
  3
AutoCAD 2000
 90
        0
280
     0
281
     0
  0
CLASS
  1
ACDBPLACEHOLDER
  2
AcDbPlaceHolder
  3
AutoCAD 2000
 90
        0
280
     0
281
     0
  0
CLASS
  1
LAYOUT
  2
AcDbLayout
  3
AutoCAD 2000
 90
        0
280
     0
281
     0
  0
ENDSEC
  0
SECTION
  2
TABLES
  0
TABLE
  2
VPORT
  5
8
330
0
100
AcDbSymbolTable
 70
     1
  0
VPORT
  5
13
330
8
100
AcDbSymbolTableRecord
100
AcDbViewportTableRecord
  2
*Active
 70
     0
 10
0.0
 20
0.0
 11
1.0
 21
1.0
 12
103.5
 22
143.4999999999998
 13
0.0
 23
0.0
 14
1.0
 24
1.0
 15
0.0
 25
0.0
 16
0.0
 26
0.0
 36
1.0
 17
0.0
 27
0.0
 37
0.0
 40
286.9999999999997
 41
0.7212543554006975
 42
50.0
 43
0.0
 44
0.0
 50
0.0
 51
0.0
 71
     0
 72
   100
 73
     1
 74
     1
 75
     0
 76
     0
 77
     0
 78
     0
281
     0
 65
     1
110
0.0
120
0.0
130
0.0
111
1.0
121
0.0
131
0.0
112
0.0
122
1.0
132
0.0
 79
     0
146
0.0
  0
ENDTAB
  0
TABLE
  2
LTYPE
  5
5
330
0
100
AcDbSymbolTable
 70
    47
  0
LTYPE
  5
14
330
5
100
AcDbSymbolTableRecord
100
AcDbLinetypeTableRecord
  2
ByBlock
 70
     0
  3

 72
    65
 73
     0
 40
0.0
  0
LTYPE
  5
15
330
5
100
AcDbSymbolTableRecord
100
AcDbLinetypeTableRecord
  2
ByLayer
 70
     0
  3

 72
    65
 73
     0
 40
0.0
  0
LTYPE
  5
16
330
5
100
AcDbSymbolTableRecord
100
AcDbLinetypeTableRecord
  2
Continuous
 70
     0
  3
Solid line
 72
    65
 73
     0
 40
0.0
  0
LTYPE
  5
28
330
5
100
AcDbSymbolTableRecord
100
AcDbLinetypeTableRecord
  2
HIDDEN
 70
     0
  3
_ _ _ _ _ _ _ _ _ _ _ _ _ _ 
 72
    65
 73
     2
 40
9.524999999999998
 49
6.349999999999999
 74
     0
 49
-3.174999999999999
 74
     0
  0
LTYPE
  5
29
330
5
100
AcDbSymbolTableRecord
100
AcDbLinetypeTableRecord
  2
DASHED
 70
     0
  3
__ __ __ __ __ __ __ __ __ 
 72
    65
 73
     2
 40
19.04999999999999
 49
12.7
 74
     0
 49
-6.349999999999999
 74
     0
  0
LTYPE
  5
2A
330
5
100
AcDbSymbolTableRecord
100
AcDbLinetypeTableRecord
  2
CENTER
 70
     0
  3
____ _ ____ _ ____ _ ____ _ 
 72
    65
 73
     4
 40
50.8
 49
31.75
 74
     0
 49
-6.349999999999999
 74
     0
 49
6.349999999999999
 74
     0
 49
-6.349999999999999
 74
     0
  0
LTYPE
  5
2B
330
5
100
AcDbSymbolTableRecord
100
AcDbLinetypeTableRecord
  2
PHANTOM
 70
     0
  3
_____ _ _ _____ _ _ _____ _ _ 
 72
    65
 73
     6
 40
63.50000000000001
 49
31.75
 74
     0
 49
-6.349999999999999
 74
     0
 49
6.349999999999999
 74
     0
 49
-6.349999999999999
 74
     0
 49
6.349999999999999
 74
     0
 49
-6.349999999999999
 74
     0
  0
LTYPE
  5
2C
330
5
100
AcDbSymbolTableRecord
100
AcDbLinetypeTableRecord
  2
DOT
 70
     0
  3
...........................
 72
    65
 73
     2
 40
6.349999999999999
 49
0.0
 74
     0
 49
-6.349999999999999
 74
     0
  0
LTYPE
  5
2D
330
5
100
AcDbSymbolTableRecord
100
AcDbLinetypeTableRecord
  2
DASHDOT
 70
     0
  3
__ . __ . __ . __ . __ . __ . 
 72
    65
 73
     4
 40
25.4
 49
12.7
 74
     0
 49
-6.349999999999999
 74
     0
 49
0.0
 74
     0
 49
-6.349999999999999
 74
     0
  0
LTYPE
  5
2E
330
5
100
AcDbSymbolTableRecord
100
AcDbLinetypeTableRecord
  2
DIVIDE
 70
     0
  3
__ . . __ . . __ . . __ . . 
 72
    65
 73
     6
 40
31.75
 49
12.7
 74
     0
 49
-6.349999999999999
 74
     0
 49
0.0
 74
     0
 49
-6.349999999999999
 74
     0
 49
0.0
 74
     0
 49
-6.349999999999999
 74
     0
  0
LTYPE
  5
2F
330
5
100
AcDbSymbolTableRecord
100
AcDbLinetypeTableRecord
  2
BORDER
 70
     0
  3
__ __ . __ __ . __ __ . __ __ .
 72
    65
 73
     6
 40
44.44999999999999
 49
12.7
 74
     0
 49
-6.349999999999999
 74
     0
 49
12.7
 74
     0
 49
-6.349999999999999
 74
     0
 49
0.0
 74
     0
 49
-6.349999999999999
 74
     0
  0
LTYPE
  5
30
330
5
100
AcDbSymbolTableRecord
100
AcDbLinetypeTableRecord
  2
RAND
 70
     0
  3
Rand __ __ . __ __ . __ __ . __
 72
    65
 73
     6
 40
1.75
 49
0.5
 74
     0
 49
-0.25
 74
     0
 49
0.5
 74
     0
 49
-0.25
 74
     0
 49
0.0
 74
     0
 49
-0.25
 74
     0
  0
LTYPE
  5
31
330
5
100
AcDbSymbolTableRecord
100
AcDbLinetypeTableRecord
  2
RAND2
 70
     0
  3
Rand (.5x) __.__.__.__.__.__.__
 72
    65
 73
     6
 40
0.875
 49
0.25
 74
     0
 49
-0.125
 74
     0
 49
0.25
 74
     0
 49
-0.125
 74
     0
 49
0.0
 74
     0
 49
-0.125
 74
     0
  0
LTYPE
  5
32
330
5
100
AcDbSymbolTableRecord
100
AcDbLinetypeTableRecord
  2
RANDX2
 70
     0
  3
Rand (2x) ____  ____  .  ____  
 72
    65
 73
     6
 40
3.5
 49
1.0
 74
     0
 49
-0.5
 74
     0
 49
1.0
 74
     0
 49
-0.5
 74
     0
 49
0.0
 74
     0
 49
-0.5
 74
     0
  0
LTYPE
  5
33
330
5
100
AcDbSymbolTableRecord
100
AcDbLinetypeTableRecord
  2
MITTE
 70
     0
  3
Mitte ____ _ ____ _ ____ _ ____
 72
    65
 73
     4
 40
2.0
 49
1.25
 74
     0
 49
-0.25
 74
     0
 49
0.25
 74
     0
 49
-0.25
 74
     0
  0
LTYPE
  5
34
330
5
100
AcDbSymbolTableRecord
100
AcDbLinetypeTableRecord
  2
MITTE2
 70
     0
  3
Mitte (.5x) ___ _ ___ _ ___ _ _
 72
    65
 73
     4
 40
1.125
 49
0.7500000000000001
 74
     0
 49
-0.125
 74
     0
 49
0.125
 74
     0
 49
-0.125
 74
     0
  0
LTYPE
  5
35
330
5
100
AcDbSymbolTableRecord
100
AcDbLinetypeTableRecord
  2
MITTEX2
 70
     0
  3
Mitte (2x) ________  __  ______
 72
    65
 73
     4
 40
4.0
 49
2.5
 74
     0
 49
-0.5
 74
     0
 49
0.5
 74
     0
 49
-0.5
 74
     0
  0
LTYPE
  5
36
330
5
100
AcDbSymbolTableRecord
100
AcDbLinetypeTableRecord
  2
STRICHPUNKT
 70
     0
  3
Strichpunkt __ . __ . __ . __ .
 72
    65
 73
     4
 40
1.0
 49
0.5
 74
     0
 49
-0.25
 74
     0
 49
0.0
 74
     0
 49
-0.25
 74
     0
  0
LTYPE
  5
37
330
5
100
AcDbSymbolTableRecord
100
AcDbLinetypeTableRecord
  2
STRICHPUNKT2
 70
     0
  3
Strichpunkt (.5x) _._._._._._._
 72
    65
 73
     4
 40
0.5
 49
0.25
 74
     0
 49
-0.125
 74
     0
 49
0.0
 74
     0
 49
-0.125
 74
     0
  0
LTYPE
  5
38
330
5
100
AcDbSymbolTableRecord
100
AcDbLinetypeTableRecord
  2
STRICHPUNKTX2
 70
     0
  3
Strichpunkt (2x) ____  .  ____ 
 72
    65
 73
     4
 40
2.0
 49
1.0
 74
     0
 49
-0.5
 74
     0
 49
0.0
 74
     0
 49
-0.5
 74
     0
  0
LTYPE
  5
39
330
5
100
AcDbSymbolTableRecord
100
AcDbLinetypeTableRecord
  2
STRICHLINIE
 70
     0
  3
Strichlinie __ __ __ __ __ __ _
 72
    65
 73
     2
 40
0.75
 49
0.5
 74
     0
 49
-0.25
 74
     0
  0
LTYPE
  5
3A
330
5
100
AcDbSymbolTableRecord
100
AcDbLinetypeTableRecord
  2
STRICHLINIE2
 70
     0
  3
Strichlinie (.5x) _ _ _ _ _ _ _
 72
    65
 73
     2
 40
0.375
 49
0.25
 74
     0
 49
-0.125
 74
     0
  0
LTYPE
  5
3B
330
5
100
AcDbSymbolTableRecord
100
AcDbLinetypeTableRecord
  2
STRICHLINIEX2
 70
     0
  3
Strichlinie (2x) ____  ____  __
 72
    65
 73
     2
 40
1.5
 49
1.0
 74
     0
 49
-0.5
 74
     0
  0
LTYPE
  5
3C
330
5
100
AcDbSymbolTableRecord
100
AcDbLinetypeTableRecord
  2
GETRENNT
 70
     0
  3
Getrennt ____ . . ____ . . ____
 72
    65
 73
     6
 40
1.25
 49
0.5
 74
     0
 49
-0.25
 74
     0
 49
0.0
 74
     0
 49
-0.25
 74
     0
 49
0.0
 74
     0
 49
-0.25
 74
     0
  0
LTYPE
  5
3D
330
5
100
AcDbSymbolTableRecord
100
AcDbLinetypeTableRecord
  2
GETRENNT2
 70
     0
  3
Getrennt (.5x) __..__..__..__..
 72
    65
 73
     6
 40
0.625
 49
0.25
 74
     0
 49
-0.125
 74
     0
 49
0.0
 74
     0
 49
-0.125
 74
     0
 49
0.0
 74
     0
 49
-0.125
 74
     0
  0
LTYPE
  5
3E
330
5
100
AcDbSymbolTableRecord
100
AcDbLinetypeTableRecord
  2
GETRENNTX2
 70
     0
  3
Getrennt (2x) ________  .  .  _
 72
    65
 73
     6
 40
2.5
 49
1.0
 74
     0
 49
-0.5
 74
     0
 49
0.0
 74
     0
 49
-0.5
 74
     0
 49
0.0
 74
     0
 49
-0.5
 74
     0
  0
LTYPE
  5
3F
330
5
100
AcDbSymbolTableRecord
100
AcDbLinetypeTableRecord
  2
PUNKT
 70
     0
  3
Punkt . . . . . . . . . . . . .
 72
    65
 73
     2
 40
0.25
 49
0.0
 74
     0
 49
-0.25
 74
     0
  0
LTYPE
  5
40
330
5
100
AcDbSymbolTableRecord
100
AcDbLinetypeTableRecord
  2
PUNKT2
 70
     0
  3
Punkt (.5x) ...................
 72
    65
 73
     2
 40
0.125
 49
0.0
 74
     0
 49
-0.125
 74
     0
  0
LTYPE
  5
41
330
5
100
AcDbSymbolTableRecord
100
AcDbLinetypeTableRecord
  2
PUNKTX2
 70
     0
  3
Punkt (2x) .  .  .  .  .  .  . 
 72
    65
 73
     2
 40
0.5
 49
0.0
 74
     0
 49
-0.5
 74
     0
  0
LTYPE
  5
42
330
5
100
AcDbSymbolTableRecord
100
AcDbLinetypeTableRecord
  2
VERDECKT
 70
     0
  3
Verdeckt __ __ __ __ __ __ __ _
 72
    65
 73
     2
 40
0.375
 49
0.25
 74
     0
 49
-0.125
 74
     0
  0
LTYPE
  5
43
330
5
100
AcDbSymbolTableRecord
100
AcDbLinetypeTableRecord
  2
VERDECKT2
 70
     0
  3
Verdeckt (.5x) _ _ _ _ _ _ _ _ 
 72
    65
 73
     2
 40
0.1875
 49
0.125
 74
     0
 49
-0.0625
 74
     0
  0
LTYPE
  5
44
330
5
100
AcDbSymbolTableRecord
100
AcDbLinetypeTableRecord
  2
VERDECKTX2
 70
     0
  3
Verdeckt (2x) ____ ____ ____ __
 72
    65
 73
     2
 40
0.75
 49
0.5
 74
     0
 49
-0.25
 74
     0
  0
LTYPE
  5
45
330
5
100
AcDbSymbolTableRecord
100
AcDbLinetypeTableRecord
  2
PHANTOM2
 70
     0
  3
Phantom (.5x) ___ _ _ ___ _ _ _
 72
    65
 73
     6
 40
1.25
 49
0.6250000000000001
 74
     0
 49
-0.125
 74
     0
 49
0.125
 74
     0
 49
-0.125
 74
     0
 49
0.125
 74
     0
 49
-0.125
 74
     0
  0
LTYPE
  5
46
330
5
100
AcDbSymbolTableRecord
100
AcDbLinetypeTableRecord
  2
PHANTOMX2
 70
     0
  3
Phantom (2x) ____________    __
 72
    65
 73
     6
 40
5.0
 49
2.5
 74
     0
 49
-0.5
 74
     0
 49
0.5
 74
     0
 49
-0.5
 74
     0
 49
0.5
 74
     0
 49
-0.5
 74
     0
  0
LTYPE
  5
47
330
5
100
AcDbSymbolTableRecord
100
AcDbLinetypeTableRecord
  2
PUNKTE
 70
     0
  3
Punkte - - - - - - - - - - - - 
 72
    65
 73
     2
 40
0.1
 49
0.05
 74
     0
 49
-0.05
 74
     0
  0
LTYPE
  5
48
330
5
100
AcDbSymbolTableRecord
100
AcDbLinetypeTableRecord
  2
ACAD_ISO02W100
 70
     0
  3
__ __ __ __ __ __ __ __ __ __ _
 72
    65
 73
     2
 40
15.0
 49
12.0
 74
     0
 49
-3.0
 74
     0
  0
LTYPE
  5
49
330
5
100
AcDbSymbolTableRecord
100
AcDbLinetypeTableRecord
  2
ACAD_ISO03W100
 70
     0
  3
__    __    __    __    __    _
 72
    65
 73
     2
 40
30.0
 49
12.0
 74
     0
 49
-18.0
 74
     0
  0
LTYPE
  5
4A
330
5
100
AcDbSymbolTableRecord
100
AcDbLinetypeTableRecord
  2
ACAD_ISO04W100
 70
     0
  3
____ . ____ . ____ . ____ . ___
 72
    65
 73
     4
 40
30.5
 49
24.0
 74
     0
 49
-3.0
 74
     0
 49
0.5
 74
     0
 49
-3.0
 74
     0
  0
LTYPE
  5
4B
330
5
100
AcDbSymbolTableRecord
100
AcDbLinetypeTableRecord
  2
ACAD_ISO05W100
 70
     0
  3
____ .. ____ .. ____ .. ____ ..
 72
    65
 73
     6
 40
34.0
 49
24.0
 74
     0
 49
-3.0
 74
     0
 49
0.5
 74
     0
 49
-3.0
 74
     0
 49
0.5
 74
     0
 49
-3.0
 74
     0
  0
LTYPE
  5
4C
330
5
100
AcDbSymbolTableRecord
100
AcDbLinetypeTableRecord
  2
ACAD_ISO06W100
 70
     0
  3
____ ... ____ ... ____ ... ____
 72
    65
 73
     6
 40
34.0
 49
24.0
 74
     0
 49
-3.0
 74
     0
 49
0.5
 74
     0
 49
-3.0
 74
     0
 49
0.5
 74
     0
 49
-3.0
 74
     0
  0
LTYPE
  5
4D
330
5
100
AcDbSymbolTableRecord
100
AcDbLinetypeTableRecord
  2
ACAD_ISO07W100
 70
     0
  3
. . . . . . . . . . . . . . . .
 72
    65
 73
     2
 40
3.5
 49
0.5
 74
     0
 49
-3.0
 74
     0
  0
LTYPE
  5
4E
330
5
100
AcDbSymbolTableRecord
100
AcDbLinetypeTableRecord
  2
ACAD_ISO08W100
 70
     0
  3
____ __ ____ __ ____ __ ____ __
 72
    65
 73
     4
 40
36.0
 49
24.0
 74
     0
 49
-3.0
 74
     0
 49
6.0
 74
     0
 49
-3.0
 74
     0
  0
LTYPE
  5
4F
330
5
100
AcDbSymbolTableRecord
100
AcDbLinetypeTableRecord
  2
ACAD_ISO09W100
 70
     0
  3
____ __ __ ____ __ __ ____ __ _
 72
    65
 73
     6
 40
45.0
 49
24.0
 74
     0
 49
-3.0
 74
     0
 49
6.0
 74
     0
 49
-3.0
 74
     0
 49
6.0
 74
     0
 49
-3.0
 74
     0
  0
LTYPE
  5
50
330
5
100
AcDbSymbolTableRecord
100
AcDbLinetypeTableRecord
  2
ACAD_ISO10W100
 70
     0
  3
__ . __ . __ . __ . __ . __ . _
 72
    65
 73
     4
 40
18.5
 49
12.0
 74
     0
 49
-3.0
 74
     0
 49
0.5
 74
     0
 49
-3.0
 74
     0
  0
LTYPE
  5
51
330
5
100
AcDbSymbolTableRecord
100
AcDbLinetypeTableRecord
  2
ACAD_ISO11W100
 70
     0
  3
__ __ . __ __ . __ __ . __ __ .
 72
    65
 73
     6
 40
33.5
 49
12.0
 74
     0
 49
-3.0
 74
     0
 49
12.0
 74
     0
 49
-3.0
 74
     0
 49
0.5
 74
     0
 49
-3.0
 74
     0
  0
LTYPE
  5
52
330
5
100
AcDbSymbolTableRecord
100
AcDbLinetypeTableRecord
  2
ACAD_ISO12W100
 70
     0
  3
__ . . __ . . __ . . __ . . __ 
 72
    65
 73
     6
 40
22.0
 49
12.0
 74
     0
 49
-3.0
 74
     0
 49
0.5
 74
     0
 49
-3.0
 74
     0
 49
0.5
 74
     0
 49
-3.0
 74
     0
  0
LTYPE
  5
53
330
5
100
AcDbSymbolTableRecord
100
AcDbLinetypeTableRecord
  2
ACAD_ISO13W100
 70
     0
  3
__ __ . . __ __ . . __ __ . . _
 72
    65
 73
     6
 40
33.5
 49
12.0
 74
     0
 49
-3.0
 74
     0
 49
12.0
 74
     0
 49
-3.0
 74
     0
 49
0.5
 74
     0
 49
-3.0
 74
     0
  0
LTYPE
  5
54
330
5
100
AcDbSymbolTableRecord
100
AcDbLinetypeTableRecord
  2
ACAD_ISO14W100
 70
     0
  3
__ . . . __ . . . __ . . . __ .
 72
    65
 73
     6
 40
22.0
 49
12.0
 74
     0
 49
-3.0
 74
     0
 49
0.5
 74
     0
 49
-3.0
 74
     0
 49
0.5
 74
     0
 49
-3.0
 74
     0
  0
LTYPE
  5
55
330
5
100
AcDbSymbolTableRecord
100
AcDbLinetypeTableRecord
  2
ACAD_ISO15W100
 70
     0
  3
__ __ . . . __ __ . . . __ __ .
 72
    65
 73
     6
 40
33.5
 49
12.0
 74
     0
 49
-3.0
 74
     0
 49
12.0
 74
     0
 49
-3.0
 74
     0
 49
0.5
 74
     0
 49
-3.0
 74
     0
  0
ENDTAB
  0
TABLE
  2
LAYER
  5
2
330
0
100
AcDbSymbolTable
 70
    12
  0
LAYER
  5
10
330
2
100
AcDbSymbolTableRecord
100
AcDbLayerTableRecord
  2
0
 70
     0
 62
     7
  6
Continuous
370
    -3
390
F
  0
LAYER
  5
56
330
2
100
AcDbSymbolTableRecord
100
AcDbLayerTableRecord
  2
BEMASSUNG-HILFSLINIEN
 70
     0
 62
    14
  6
Continuous
370
    -3
390
F
  0
LAYER
  5
57
330
2
100
AcDbSymbolTableRecord
100
AcDbLayerTableRecord
  2
DURCKSTÜCK
 70
     0
 62
   134
  6
Continuous
370
    -3
390
F
  0
LAYER
  5
58
330
2
100
AcDbSymbolTableRecord
100
AcDbLayerTableRecord
  2
DUSTFILTER
 70
     0
 62
     7
  6
Continuous
370
    -3
390
F
  0
LAYER
  5
59
330
2
100
AcDbSymbolTableRecord
100
AcDbLayerTableRecord
  2
FAN140X140
 70
     0
 62
     7
  6
Continuous
370
    -3
390
F
  0
LAYER
  5
5A
330
2
100
AcDbSymbolTableRecord
100
AcDbLayerTableRecord
  2
GEHÄUSE
 70
     0
 62
     7
  6
Continuous
370
    -3
390
F
  0
LAYER
  5
5B
330
2
100
AcDbSymbolTableRecord
100
AcDbLayerTableRecord
  2
GEWINDESTANGEN
 70
     0
 62
     7
  6
Continuous
370
    -3
390
F
  0
LAYER
  5
5C
330
2
100
AcDbSymbolTableRecord
100
AcDbLayerTableRecord
  2
GLASFASERPLATTEG10FR4
 70
     0
 62
    54
  6
Continuous
370
    -3
390
F
  0
LAYER
  5
5D
330
2
100
AcDbSymbolTableRecord
100
AcDbLayerTableRecord
  2
MAGNETE
 70
     0
 62
     6
  6
Continuous
370
    -3
390
F
  0
LAYER
  5
5E
330
2
100
AcDbSymbolTableRecord
100
AcDbLayerTableRecord
  2
MAINBOARDMITKÜHLER
 70
     0
 62
     5
  6
Continuous
370
    -3
390
F
  0
LAYER
  5
5F
330
2
100
AcDbSymbolTableRecord
100
AcDbLayerTableRecord
  2
STARWARSGALAXIESLOGO
 70
     0
 62
     2
  6
Continuous
370
    -3
390
F
  0
LAYER
  5
60
330
2
100
AcDbSymbolTableRecord
100
AcDbLayerTableRecord
  2
VERSCHRAUBUNG
 70
     0
 62
     8
  6
Continuous
370
    -3
390
F
  0
ENDTAB
  0
TABLE
  2
STYLE
  5
3
330
0
100
AcDbSymbolTable
 70
     5
  0
STYLE
  5
11
330
3
100
AcDbSymbolTableRecord
100
AcDbTextStyleTableRecord
  2
Standard
 70
     0
 40
0.0
 41
1.0
 50
0.0
 71
     0
 42
3.0
  3
txt
  4

  0
STYLE
  5
61
330
3
100
AcDbSymbolTableRecord
100
AcDbTextStyleTableRecord
  2
ITALIC
 70
     0
 40
0.0
 41
1.0
 50
0.0
 71
     0
 42
3.0
  3
ITALIC
  4

  0
STYLE
  5
62
330
3
100
AcDbSymbolTableRecord
100
AcDbTextStyleTableRecord
  2
SIMPLEX
 70
     0
 40
0.0
 41
1.0
 50
0.0
 71
     0
 42
3.0
  3
SIMPLEX
  4

  0
STYLE
  5
63
330
3
100
AcDbSymbolTableRecord
100
AcDbTextStyleTableRecord
  2
COMPLEX
 70
     0
 40
0.0
 41
1.0
 50
0.0
 71
     0
 42
3.0
  3
COMPLEX
  4

  0
STYLE
  5
ED
330
3
100
AcDbSymbolTableRecord
100
AcDbTextStyleTableRecord
  2
ARIAL
 70
     0
 40
0.0
 41
1.0
 50
0.0
 71
     0
 42
3.0
  3
arial.ttf
  4

1001
ACAD
1000
Arial
1071
        0
  0
ENDTAB
  0
TABLE
  2
VIEW
  5
6
330
0
100
AcDbSymbolTable
 70
     0
  0
ENDTAB
  0
TABLE
  2
UCS
  5
7
330
0
100
AcDbSymbolTable
 70
     0
  0
ENDTAB
  0
TABLE
  2
APPID
  5
9
330
0
100
AcDbSymbolTable
 70
     1
  0
APPID
  5
12
330
9
100
AcDbSymbolTableRecord
100
AcDbRegAppTableRecord
  2
ACAD
 70
     0
  0
ENDTAB
  0
TABLE
  2
DIMSTYLE
  5
A
330
0
100
AcDbSymbolTable
 70
     1
100
AcDbDimStyleTable
 71
     0
  0
DIMSTYLE
105
27
330
A
100
AcDbSymbolTableRecord
100
AcDbDimStyleTableRecord
  2
Standard
 70
     0
340
11
  0
ENDTAB
  0
TABLE
  2
BLOCK_RECORD
  5
1
330
0
100
AcDbSymbolTable
 70
     2
  0
BLOCK_RECORD
  5
1F
330
1
100
AcDbSymbolTableRecord
100
AcDbBlockTableRecord
  2
*Model_Space
340
22
  0
BLOCK_RECORD
  5
1B
330
1
100
AcDbSymbolTableRecord
100
AcDbBlockTableRecord
  2
*Paper_Space
340
1E
  0
BLOCK_RECORD
  5
23
330
1
100
AcDbSymbolTableRecord
100
AcDbBlockTableRecord
  2
*Paper_Space0
340
26
  0
BLOCK_RECORD
  5
F3
330
1
100
AcDbSymbolTableRecord
100
AcDbBlockTableRecord
  2
LONGARROW
340
0
102
{BLKREFS
331
F8
331
F9
331
FF
331
100
331
106
331
107
331
10D
331
10E
331
114
331
115
331
11B
331
11C
331
122
331
123
331
129
331
12A
331
130
331
131
331
137
331
138
331
13E
331
13F
331
145
331
146
331
14C
331
14D
331
153
331
154
331
15A
331
15B
331
161
331
162
331
168
331
169
331
16F
331
170
331
176
331
177
331
17D
331
17E
331
191
331
192
331
198
331
199
331
19F
331
1A0
331
1A6
331
1A7
331
1AD
331
1AE
331
1B4
331
1B5
331
1C5
331
1C6
331
1CC
331
1CD
102
}
  0
ENDTAB
  0
ENDSEC
  0
SECTION
  2
BLOCKS
  0
BLOCK
  5
20
330
1F
100
AcDbEntity
  8
0
100
AcDbBlockBegin
  2
*Model_Space
 70
     0
 10
0.0
 20
0.0
 30
0.0
  3
*Model_Space
  1

  0
ENDBLK
  5
21
330
1F
100
AcDbEntity
  8
0
100
AcDbBlockEnd
  0
BLOCK
  5
1C
330
1B
100
AcDbEntity
 67
     1
  8
0
100
AcDbBlockBegin
  2
*Paper_Space
 70
     0
 10
0.0
 20
0.0
 30
0.0
  3
*Paper_Space
  1

  0
ENDBLK
  5
1D
330
1B
100
AcDbEntity
 67
     1
  8
0
100
AcDbBlockEnd
  0
BLOCK
  5
24
330
23
100
AcDbEntity
  8
0
100
AcDbBlockBegin
  2
*Paper_Space0
 70
     0
 10
0.0
 20
0.0
 30
0.0
  3
*Paper_Space0
  1

  0
ENDBLK
  5
25
330
23
100
AcDbEntity
  8
0
100
AcDbBlockEnd
  0
BLOCK
  5
F6
330
F3
100
AcDbEntity
  8
0
 62
   134
100
AcDbBlockBegin
  2
LONGARROW
 70
     0
 10
0.0
 20
0.0
 30
0.0
  3
LONGARROW
  1

  0
LWPOLYLINE
  5
F4
102
{ACAD_REACTORS
330
F5
102
}
330
F3
100
AcDbEntity
  8
BEMASSUNG-HILFSLINIEN
  6
Continuous
 62
     0
100
AcDbPolyline
 90
        3
 70
     1
 43
0.0
 10
0.0
 20
0.0
 10
50.8
 20
-6.349999999999999
 10
50.8
 20
6.349999999999999
  0
HATCH
  5
F5
330
F3
100
AcDbEntity
  8
BEMASSUNG-HILFSLINIEN
  6
Continuous
 62
     0
100
AcDbHatch
 10
0.0
 20
0.0
 30
0.0
210
0.0
220
0.0
230
1.0
  2
SOLID
 70
     1
 71
     1
 91
        1
 92
        1
 93
        3
 72
     1
 10
0.0
 20
0.0
 11
50.8
 21
-6.349999999999999
 72
     1
 10
50.8
 20
-6.349999999999999
 11
50.8
 21
6.349999999999999
 72
     1
 10
50.8
 20
6.349999999999999
 11
0.0
 21
0.0
 97
        1
330
F4
 75
     0
 76
     1
 98
        1
 10
0.0
 20
0.0
  0
ENDBLK
  5
F7
330
F3
100
AcDbEntity
  8
0
 62
   134
100
AcDbBlockEnd
  0
ENDSEC
  0
SECTION
  2
ENTITIES
  0
LWPOLYLINE
  5
64
330
1F
100
AcDbEntity
  8
MAINBOARDMITKÜHLER
  6
Continuous
 62
     5
100
AcDbPolyline
 90
        4
 70
     1
 43
0.0
 10
57.00139778955781
 20
153.0294909807599
 10
162.0013977895578
 20
153.0294909807599
 10
162.0013977895578
 20
189.0294909807599
 10
57.00139778955781
 20
189.0294909807599
  0
LINE
  5
65
330
1F
100
AcDbEntity
  8
BEMASSUNG-HILFSLINIEN
  6
Continuous
 62
    14
100
AcDbLine
 10
109.5013977895578
 20
189.0294909807599
 30
0.0
 11
109.5013977895578
 21
88.02949098075998
 31
0.0
  0
LWPOLYLINE
  5
66
330
1F
100
AcDbEntity
  8
FAN140X140
  6
Continuous
 62
     1
100
AcDbPolyline
 90
        4
 70
     1
 43
0.0
 10
39.50139778955782
 20
128.0294909807599
 10
179.5013977895578
 20
128.0294909807599
 10
179.5013977895578
 20
102.0294909807599
 10
39.50139778955782
 20
102.0294909807599
  0
LWPOLYLINE
  5
67
330
1F
100
AcDbEntity
  8
GLASFASERPLATTEG10FR4
  6
Continuous
 62
    54
100
AcDbPolyline
 90
        4
 70
     1
 43
0.0
 10
29.49999999999999
 20
153.0294909807599
 10
189.4999999999999
 20
153.0294909807599
 10
189.4999999999999
 20
149.0294909807599
 10
29.49999999999999
 20
149.0294909807599
  0
LWPOLYLINE
  5
68
330
1F
100
AcDbEntity
  8
GEWINDESTANGEN
  6
Continuous
 62
     3
100
AcDbPolyline
 90
        4
 70
     1
 43
0.0
 10
44.50139778955781
 20
102.0294909807599
 10
48.50139778955782
 20
102.0294909807599
 10
48.50139778955782
 20
128.0294909807599
 10
44.50139778955781
 20
128.0294909807599
  0
LWPOLYLINE
  5
69
330
1F
100
AcDbEntity
  8
GEWINDESTANGEN
  6
Continuous
 62
     3
100
AcDbPolyline
 90
        4
 70
     1
 43
0.0
 10
174.5013977895578
 20
128.0294909807599
 10
170.5013977895577
 20
128.0294909807599
 10
170.5013977895577
 20
102.0294909807599
 10
174.5013977895578
 20
102.0294909807599
  0
LINE
  5
6A
330
1F
100
AcDbEntity
  8
GEWINDESTANGEN
  6
Continuous
 62
     3
100
AcDbLine
 10
48.50139778955782
 20
128.0294909807599
 30
0.0
 11
48.50003558773067
 21
262.0000000003665
 31
0.0
  0
LINE
  5
6B
330
1F
100
AcDbEntity
  8
GEWINDESTANGEN
  6
Continuous
 62
     3
100
AcDbLine
 10
44.50139778955782
 20
128.0294909807599
 30
0.0
 11
44.50006940832491
 21
262.0000000007061
 31
0.0
  0
LINE
  5
6C
330
1F
100
AcDbEntity
  8
GEWINDESTANGEN
  6
Continuous
 62
     3
100
AcDbLine
 10
44.50139778955782
 20
102.0294909807599
 30
0.0
 11
44.50000000000001
 21
31.99999999999999
 31
0.0
  0
LINE
  5
6D
330
1F
100
AcDbEntity
  8
GEWINDESTANGEN
  6
Continuous
 62
     3
100
AcDbLine
 10
48.50139778955782
 20
102.0294909807599
 30
0.0
 11
48.50000000000002
 21
32.00000000000001
 31
0.0
  0
LINE
  5
6E
330
1F
100
AcDbEntity
  8
GEWINDESTANGEN
  6
Continuous
 62
     3
100
AcDbLine
 10
170.5013977895578
 20
102.0294909807599
 30
0.0
 11
170.4999999999999
 21
31.99999999999998
 31
0.0
  0
LINE
  5
6F
330
1F
100
AcDbEntity
  8
GEWINDESTANGEN
  6
Continuous
 62
     3
100
AcDbLine
 10
174.5013977895578
 20
102.0294909807599
 30
0.0
 11
174.5
 21
32.00000000000002
 31
0.0
  0
LINE
  5
70
330
1F
100
AcDbEntity
  8
GEWINDESTANGEN
  6
Continuous
 62
     3
100
AcDbLine
 10
171.3502884254437
 20
36.99999999999988
 30
0.0
 11
174.5013977895578
 21
40.15110936411395
 31
0.0
  0
LINE
  5
71
330
1F
100
AcDbEntity
  8
GEWINDESTANGEN
  6
Continuous
 62
     3
100
AcDbLine
 10
170.5013977895578
 20
57.36431279971037
 30
0.0
 11
174.5013977895578
 21
61.36431279971039
 31
0.0
  0
LINE
  5
72
330
1F
100
AcDbEntity
  8
GEWINDESTANGEN
  6
Continuous
 62
     3
100
AcDbLine
 10
170.5013977895578
 20
78.5775162353068
 30
0.0
 11
174.5013977895579
 21
82.57751623530685
 31
0.0
  0
LINE
  5
73
330
1F
100
AcDbEntity
  8
GEWINDESTANGEN
  6
Continuous
 62
     3
100
AcDbLine
 10
170.5013977895578
 20
99.79071967090321
 30
0.0
 11
172.7401690994144
 21
102.0294909807599
 31
0.0
  0
LINE
  5
74
330
1F
100
AcDbEntity
  8
GEWINDESTANGEN
  6
Continuous
 62
     3
100
AcDbLine
 10
170.5013977895578
 20
43.22217717597943
 30
0.0
 11
174.5013977895578
 21
47.22217717597944
 31
0.0
  0
LINE
  5
75
330
1F
100
AcDbEntity
  8
GEWINDESTANGEN
  6
Continuous
 62
     3
100
AcDbLine
 10
170.5013977895578
 20
64.43538061157584
 30
0.0
 11
174.5013977895579
 21
68.43538061157589
 31
0.0
  0
LINE
  5
76
330
1F
100
AcDbEntity
  8
GEWINDESTANGEN
  6
Continuous
 62
     3
100
AcDbLine
 10
170.5013977895578
 20
85.64858404717229
 30
0.0
 11
174.5013977895579
 21
89.64858404717231
 31
0.0
  0
LINE
  5
77
330
1F
100
AcDbEntity
  8
GEWINDESTANGEN
  6
Continuous
 62
     3
100
AcDbLine
 10
44.50139778955785
 20
37.43032997769241
 30
0.0
 11
48.50139778955784
 21
41.43032997769242
 31
0.0
  0
LINE
  5
78
330
1F
100
AcDbEntity
  8
GEWINDESTANGEN
  6
Continuous
 62
     3
100
AcDbLine
 10
44.50139778955785
 20
58.64353341328886
 30
0.0
 11
48.50139778955786
 21
62.64353341328887
 31
0.0
  0
LINE
  5
79
330
1F
100
AcDbEntity
  8
GEWINDESTANGEN
  6
Continuous
 62
     3
100
AcDbLine
 10
44.50139778955785
 20
79.85673684888531
 30
0.0
 11
48.50139778955788
 21
83.85673684888532
 31
0.0
  0
LINE
  5
7A
330
1F
100
AcDbEntity
  8
GEWINDESTANGEN
  6
Continuous
 62
     3
100
AcDbLine
 10
44.50139778955787
 20
101.0699402844817
 30
0.0
 11
45.46094848583609
 21
102.0294909807599
 31
0.0
  0
LINE
  5
7B
330
1F
100
AcDbEntity
  8
GEWINDESTANGEN
  6
Continuous
 62
     3
100
AcDbLine
 10
44.50139778955785
 20
44.50139778955789
 30
0.0
 11
48.50139778955785
 21
48.5013977895579
 31
0.0
  0
LINE
  5
7C
330
1F
100
AcDbEntity
  8
GEWINDESTANGEN
  6
Continuous
 62
     3
100
AcDbLine
 10
44.50139778955786
 20
65.71460122515436
 30
0.0
 11
48.50139778955786
 21
69.71460122515435
 31
0.0
  0
LINE
  5
7D
330
1F
100
AcDbEntity
  8
GEWINDESTANGEN
  6
Continuous
 62
     3
100
AcDbLine
 10
44.50139778955786
 20
86.92780466075078
 30
0.0
 11
48.50139778955788
 21
90.9278046607508
 31
0.0
  0
LINE
  5
7E
330
1F
100
AcDbEntity
  8
GEWINDESTANGEN
  6
Continuous
 62
     3
100
AcDbLine
 10
45.46094848583609
 20
102.0294909807599
 30
0.0
 11
48.50139778955788
 21
105.0699402844817
 31
0.0
  0
LINE
  5
7F
330
1F
100
AcDbEntity
  8
GEWINDESTANGEN
  6
Continuous
 62
     3
100
AcDbLine
 10
44.50139778955789
 20
122.2831437200782
 30
0.0
 11
48.50139778955789
 21
126.2831437200782
 31
0.0
  0
LINE
  5
80
330
1F
100
AcDbEntity
  8
GEWINDESTANGEN
  6
Continuous
 62
     3
100
AcDbLine
 10
44.50139778955787
 20
108.1410080963472
 30
0.0
 11
48.50139778955788
 21
112.1410080963472
 31
0.0
  0
LINE
  5
81
330
1F
100
AcDbEntity
  8
GEWINDESTANGEN
  6
Continuous
 62
     3
100
AcDbLine
 10
44.50139778955789
 20
143.4963471556746
 30
0.0
 11
48.50139778955789
 21
147.4963471556746
 31
0.0
  0
LINE
  5
82
330
1F
100
AcDbEntity
  8
GEWINDESTANGEN
  6
Continuous
 62
     3
100
AcDbLine
 10
44.5013977895579
 20
129.3542115319436
 30
0.0
 11
48.5013977895579
 21
133.3542115319436
 31
0.0
  0
LINE
  5
83
330
1F
100
AcDbEntity
  8
GEWINDESTANGEN
  6
Continuous
 62
     3
100
AcDbLine
 10
170.5013977895578
 20
128.0294909807599
 30
0.0
 11
170.5000551216354
 21
262.0000000005637
 31
0.0
  0
LINE
  5
84
330
1F
100
AcDbEntity
  8
GEWINDESTANGEN
  6
Continuous
 62
     3
100
AcDbLine
 10
174.5013977895578
 20
127.5294909807599
 30
0.0
 11
174.5000597046127
 21
262.0000000006072
 31
0.0
  0
LINE
  5
85
330
1F
100
AcDbEntity
  8
GEHÄUSE
  6
Continuous
 62
     7
100
AcDbLine
 10
170.5013977895579
 20
142.2171265420962
 30
0.0
 11
174.5013977895579
 21
146.2171265420962
 31
0.0
  0
LINE
  5
86
330
1F
100
AcDbEntity
  8
GEHÄUSE
  6
Continuous
 62
     7
100
AcDbLine
 10
170.5013977895579
 20
128.0749909183652
 30
0.0
 11
174.5013977895579
 21
132.0749909183652
 31
0.0
  0
LINE
  5
87
330
1F
100
AcDbEntity
  8
GEHÄUSE
  6
Continuous
 62
     7
100
AcDbLine
 10
170.5013977895579
 20
142.2171265420962
 30
0.0
 11
174.5013977895579
 21
146.2171265420962
 31
0.0
  0
LINE
  5
88
330
1F
100
AcDbEntity
  8
GEHÄUSE
  6
Continuous
 62
     7
100
AcDbLine
 10
170.5013977895579
 20
128.0749909183652
 30
0.0
 11
174.5013977895579
 21
132.0749909183652
 31
0.0
  0
LINE
  5
89
330
1F
100
AcDbEntity
  8
GEWINDESTANGEN
  6
Continuous
 62
     3
100
AcDbLine
 10
172.7401690994144
 20
102.0294909807599
 30
0.0
 11
174.5013977895579
 21
103.7907196709032
 31
0.0
  0
LINE
  5
8A
330
1F
100
AcDbEntity
  8
GEWINDESTANGEN
  6
Continuous
 62
     3
100
AcDbLine
 10
170.5013977895579
 20
121.0039231064997
 30
0.0
 11
174.5013977895579
 21
125.0039231064997
 31
0.0
  0
LINE
  5
8B
330
1F
100
AcDbEntity
  8
GEWINDESTANGEN
  6
Continuous
 62
     3
100
AcDbLine
 10
170.5013977895578
 20
106.8617874827687
 30
0.0
 11
174.5013977895579
 21
110.8617874827687
 31
0.0
  0
LINE
  5
8C
330
1F
100
AcDbEntity
  8
GEWINDESTANGEN
  6
Continuous
 62
     3
100
AcDbLine
 10
170.5013977895579
 20
142.2171265420962
 30
0.0
 11
174.5013977895579
 21
146.2171265420962
 31
0.0
  0
LINE
  5
8D
330
1F
100
AcDbEntity
  8
GEWINDESTANGEN
  6
Continuous
 62
     3
100
AcDbLine
 10
170.5013977895579
 20
128.0749909183652
 30
0.0
 11
174.5013977895579
 21
132.0749909183652
 31
0.0
  0
LWPOLYLINE
  5
8E
330
1F
100
AcDbEntity
  8
VERSCHRAUBUNG
  6
Continuous
 62
     8
100
AcDbPolyline
 90
        5
 70
     0
 43
0.0
 10
160.0013977895578
 20
149.0294909807599
 10
156.0013977895578
 20
149.0294909807599
 10
156.0013977895578
 20
156.9999999999999
 10
160.0013977895578
 20
156.9999999999999
 10
160.0013977895578
 20
149.0294909807599
  0
LWPOLYLINE
  5
8F
330
1F
100
AcDbEntity
  8
VERSCHRAUBUNG
  6
Continuous
 62
     8
100
AcDbPolyline
 90
        4
 70
     1
 43
0.0
 10
59.00139778955781
 20
156.9999999999999
 10
63.00139778955777
 20
156.9999999999999
 10
63.00139778955777
 20
149.0294909807599
 10
59.00139778955781
 20
149.0294909807599
  0
LWPOLYLINE
  5
90
330
1F
100
AcDbEntity
  8
FAN140X140
  6
Continuous
 62
     1
100
AcDbPolyline
 90
        4
 70
     1
 43
0.0
 10
179.5013977895578
 20
214.0294909807599
 10
39.50139778955783
 20
214.0294909807599
 10
39.50139778955783
 20
240.02949098076
 10
179.5013977895578
 20
240.02949098076
  0
LINE
  5
91
330
1F
100
AcDbEntity
  8
GEWINDESTANGEN
  6
Continuous
 62
     3
100
AcDbLine
 10
170.5013977895579
 20
248.2831437200784
 30
0.0
 11
174.5013977895579
 21
252.2831437200784
 31
0.0
  0
LINE
  5
92
330
1F
100
AcDbEntity
  8
GEWINDESTANGEN
  6
Continuous
 62
     3
100
AcDbLine
 10
170.5013977895579
 20
255.3542115319439
 30
0.0
 11
174.5013977895579
 21
259.3542115319439
 31
0.0
  0
LINE
  5
93
330
1F
100
AcDbEntity
  8
GEWINDESTANGEN
  6
Continuous
 62
     3
100
AcDbLine
 10
170.5013977895579
 20
227.0699402844819
 30
0.0
 11
174.501397789558
 21
231.0699402844819
 31
0.0
  0
LINE
  5
94
330
1F
100
AcDbEntity
  8
GEWINDESTANGEN
  6
Continuous
 62
     3
100
AcDbLine
 10
171.6030841095668
 20
214.0294909807598
 30
0.0
 11
174.5013977895579
 21
216.927804660751
 31
0.0
  0
LINE
  5
95
330
1F
100
AcDbEntity
  8
GEWINDESTANGEN
  6
Continuous
 62
     3
100
AcDbLine
 10
170.5013977895579
 20
234.1410080963474
 30
0.0
 11
174.5013977895579
 21
238.1410080963474
 31
0.0
  0
LINE
  5
96
330
1F
100
AcDbEntity
  8
GEWINDESTANGEN
  6
Continuous
 62
     3
100
AcDbLine
 10
44.5013977895579
 20
164.709550591271
 30
0.0
 11
48.5013977895579
 21
168.7095505912711
 31
0.0
  0
LINE
  5
97
330
1F
100
AcDbEntity
  8
GEWINDESTANGEN
  6
Continuous
 62
     3
100
AcDbLine
 10
44.5013977895579
 20
185.9227540268675
 30
0.0
 11
48.50139778955792
 21
189.9227540268675
 31
0.0
  0
LINE
  5
98
330
1F
100
AcDbEntity
  8
GEWINDESTANGEN
  6
Continuous
 62
     3
100
AcDbLine
 10
44.50139778955793
 20
207.135957462464
 30
0.0
 11
48.50139778955794
 21
211.1359574624639
 31
0.0
  0
LINE
  5
99
330
1F
100
AcDbEntity
  8
GEWINDESTANGEN
  6
Continuous
 62
     3
100
AcDbLine
 10
46.9634738027777
 20
153.0294909807599
 30
0.0
 11
48.5013977895579
 21
154.5674149675401
 31
0.0
  0
LINE
  5
9A
330
1F
100
AcDbEntity
  8
GEWINDESTANGEN
  6
Continuous
 62
     3
100
AcDbLine
 10
44.50139778955791
 20
171.7806184031365
 30
0.0
 11
48.5013977895579
 21
175.7806184031365
 31
0.0
  0
LINE
  5
9B
330
1F
100
AcDbEntity
  8
GEWINDESTANGEN
  6
Continuous
 62
     3
100
AcDbLine
 10
44.50139778955791
 20
192.9938218387329
 30
0.0
 11
48.50139778955793
 21
196.993821838733
 31
0.0
  0
LINE
  5
9C
330
1F
100
AcDbEntity
  8
GEWINDESTANGEN
  6
Continuous
 62
     3
100
AcDbLine
 10
44.50139778955795
 20
228.3491608980604
 30
0.0
 11
48.50139778955796
 21
232.3491608980604
 31
0.0
  0
LINE
  5
9D
330
1F
100
AcDbEntity
  8
GEWINDESTANGEN
  6
Continuous
 62
     3
100
AcDbLine
 10
44.50139778955794
 20
214.2070252743294
 30
0.0
 11
48.50139778955793
 21
218.2070252743294
 31
0.0
  0
LINE
  5
9E
330
1F
100
AcDbEntity
  8
GEWINDESTANGEN
  6
Continuous
 62
     3
100
AcDbLine
 10
44.50139778955796
 20
235.4202287099258
 30
0.0
 11
48.50139778955793
 21
239.4202287099258
 31
0.0
  0
LINE
  5
9F
330
1F
100
AcDbEntity
  8
GEWINDESTANGEN
  6
Continuous
 62
     3
100
AcDbLine
 10
170.5013977895578
 20
163.4303299776926
 30
0.0
 11
174.5013977895579
 21
167.4303299776926
 31
0.0
  0
LINE
  5
A0
330
1F
100
AcDbEntity
  8
GEWINDESTANGEN
  6
Continuous
 62
     3
100
AcDbLine
 10
170.5013977895578
 20
184.643533413289
 30
0.0
 11
174.5013977895579
 21
188.6435334132891
 31
0.0
  0
LINE
  5
A1
330
1F
100
AcDbEntity
  8
GEWINDESTANGEN
  6
Continuous
 62
     3
100
AcDbLine
 10
170.5013977895579
 20
205.8567368488854
 30
0.0
 11
174.5013977895579
 21
209.8567368488856
 31
0.0
  0
LINE
  5
A2
330
1F
100
AcDbEntity
  8
GEWINDESTANGEN
  6
Continuous
 62
     3
100
AcDbLine
 10
174.242694416356
 20
153.0294909807598
 30
0.0
 11
174.5013977895578
 21
153.2881943539616
 31
0.0
  0
LINE
  5
A3
330
1F
100
AcDbEntity
  8
GEWINDESTANGEN
  6
Continuous
 62
     3
100
AcDbLine
 10
170.5013977895578
 20
170.501397789558
 30
0.0
 11
174.5013977895579
 21
174.5013977895581
 31
0.0
  0
LINE
  5
A4
330
1F
100
AcDbEntity
  8
GEWINDESTANGEN
  6
Continuous
 62
     3
100
AcDbLine
 10
170.5013977895578
 20
191.7146012251544
 30
0.0
 11
174.5013977895579
 21
195.7146012251545
 31
0.0
  0
LINE
  5
A5
330
1F
100
AcDbEntity
  8
GEWINDESTANGEN
  6
Continuous
 62
     3
100
AcDbLine
 10
170.5013977895578
 20
212.9278046607509
 30
0.0
 11
171.6030841095667
 21
214.0294909807598
 31
0.0
  0
LWPOLYLINE
  5
A6
330
1F
100
AcDbEntity
  8
GEHÄUSE
  6
Continuous
 62
     7
100
AcDbPolyline
 90
        5
 70
     0
 43
0.0
 10
29.49999999999999
 20
76.99999999999999
 10
189.4999999999999
 20
76.99999999999999
 10
189.4999999999999
 20
68.99999999999998
 10
29.49999999999999
 20
68.99999999999998
 10
29.49999999999999
 20
76.99999999999999
  0
LWPOLYLINE
  5
A7
330
1F
100
AcDbEntity
  8
GEHÄUSE
  6
Continuous
 62
     7
100
AcDbPolyline
 90
        6
 70
     0
 43
0.0
 10
165.0
 20
32.05751679535279
 10
162.0
 20
32.05751679535279
 10
162.0
 20
69.0575167953528
 10
189.4999999999999
 20
69.0575167953528
 10
189.4999999999999
 20
32.05751679535279
 10
180.0
 20
32.05751679535279
  0
LWPOLYLINE
  5
A8
330
1F
100
AcDbEntity
  8
DUSTFILTER
  6
Continuous
 62
     4
100
AcDbPolyline
 90
        4
 70
     1
 43
0.0
 10
51.99999999999996
 20
69.0575167953528
 10
167.0
 20
69.0575167953528
 10
167.0
 20
67.05751679535279
 10
51.99999999999996
 20
67.05751679535279
  0
LWPOLYLINE
  5
A9
330
1F
100
AcDbEntity
  8
GEHÄUSE
  6
Continuous
 62
     7
100
AcDbPolyline
 90
        6
 70
     0
 43
0.0
 10
38.99999999999999
 20
32.0575167953528
 10
29.49999999999999
 20
32.0575167953528
 10
29.49999999999999
 20
69.0575167953528
 10
57.00000000000001
 20
69.0575167953528
 10
57.00000000000001
 20
32.0575167953528
 10
53.99999999999999
 20
32.0575167953528
  0
LWPOLYLINE
  5
AA
330
1F
100
AcDbEntity
  8
GEHÄUSE
  6
Continuous
 62
     7
100
AcDbPolyline
 90
        4
 70
     1
 43
0.0
 10
51.0
 20
189.0
 10
56.99999999999996
 20
189.0
 10
56.99999999999996
 20
153.0
 10
51.0
 20
153.0
  0
LWPOLYLINE
  5
AB
330
1F
100
AcDbEntity
  8
GEHÄUSE
  6
Continuous
 62
     7
100
AcDbPolyline
 90
        4
 70
     1
 43
0.0
 10
162.0
 20
189.0
 10
167.9999999999999
 20
189.0
 10
167.9999999999999
 20
153.0
 10
162.0
 20
153.0
  0
LWPOLYLINE
  5
AC
330
1F
100
AcDbEntity
  8
MAGNETE
  6
Continuous
 62
     6
100
AcDbPolyline
 90
        4
 70
     1
 43
0.0
 10
51.99999999999999
 20
189.0
 10
56.0
 20
189.0
 10
56.0
 20
187.0
 10
51.99999999999999
 20
187.0
  0
LWPOLYLINE
  5
AD
330
1F
100
AcDbEntity
  8
MAGNETE
  6
Continuous
 62
     6
100
AcDbPolyline
 90
        4
 70
     1
 43
0.0
 10
163.0
 20
189.0
 10
167.0
 20
189.0
 10
167.0
 20
187.0
 10
163.0
 20
187.0
  0
LWPOLYLINE
  5
AE
330
1F
100
AcDbEntity
  8
GEHÄUSE
  6
Continuous
 62
     7
100
AcDbPolyline
 90
        4
 70
     1
 43
0.0
 10
52.5
 20
156.9999999999999
 10
55.5
 20
156.9999999999999
 10
55.5
 20
153.0
 10
52.5
 20
153.0
  0
LWPOLYLINE
  5
AF
330
1F
100
AcDbEntity
  8
GEHÄUSE
  6
Continuous
 62
     7
100
AcDbPolyline
 90
        4
 70
     1
 43
0.0
 10
163.4999999999999
 20
156.9999999999999
 10
166.5
 20
156.9999999999999
 10
166.5
 20
153.0
 10
163.4999999999999
 20
153.0
  0
LWPOLYLINE
  5
B0
330
1F
100
AcDbEntity
  8
MAGNETE
  6
Continuous
 62
     6
100
AcDbPolyline
 90
        4
 70
     1
 43
0.0
 10
51.99999999999999
 20
189.0
 10
56.0
 20
189.0
 10
56.0
 20
191.0
 10
51.99999999999999
 20
191.0
  0
LWPOLYLINE
  5
B1
330
1F
100
AcDbEntity
  8
MAGNETE
  6
Continuous
 62
     6
100
AcDbPolyline
 90
        4
 70
     1
 43
0.0
 10
163.0
 20
189.0
 10
167.0
 20
189.0
 10
167.0
 20
191.0
 10
163.0
 20
191.0
  0
LWPOLYLINE
  5
B2
330
1F
100
AcDbEntity
  8
GEHÄUSE
  6
Continuous
 62
     7
100
AcDbPolyline
 90
        4
 70
     1
 43
0.0
 10
111.4999999999999
 20
71.0
 10
107.4999999999999
 20
71.0
 10
107.4999999999999
 20
69.0
 10
111.4999999999999
 20
69.0
  0
LINE
  5
B3
330
1F
100
AcDbEntity
  8
GEWINDESTANGEN
  6
Continuous
 62
     3
100
AcDbLine
 10
44.5
 20
37.0
 30
0.0
 11
48.49999999999999
 21
37.0
 31
0.0
  0
HATCH
  5
B4
330
1F
100
AcDbEntity
  8
MAGNETE
  6
Continuous
 62
   221
100
AcDbHatch
 10
0.0
 20
0.0
 30
0.0
210
0.0
220
0.0
230
1.0
  2
SOLID
 70
     1
 71
     0
 91
        1
 92
        3
 72
     0
 73
     1
 93
        4
 10
111.4999999999999
 20
69.0575167953528
 10
111.4999999999999
 20
71.0
 10
107.4999999999999
 20
71.0
 10
107.4999999999999
 20
69.0575167953528
 97
        0
 75
     0
 76
     1
 98
        1
 10
0.0
 20
0.0
  0
LINE
  5
B5
330
1F
100
AcDbEntity
  8
GEWINDESTANGEN
  6
Continuous
 62
     3
100
AcDbLine
 10
44.50139778955799
 20
249.5623643336569
 30
0.0
 11
48.50139778955796
 21
253.5623643336568
 31
0.0
  0
LINE
  5
B6
330
1F
100
AcDbEntity
  8
GEWINDESTANGEN
  6
Continuous
 62
     3
100
AcDbLine
 10
44.50139778955798
 20
256.6334321455224
 30
0.0
 11
48.50139778955796
 21
260.6334321455223
 31
0.0
  0
LWPOLYLINE
  5
B7
330
1F
100
AcDbEntity
  8
FAN140X140
  6
Continuous
 62
     7
100
AcDbPolyline
 90
        5
 70
     0
 43
0.0
 10
29.50000000000002
 20
260.0
 10
189.4999999999999
 20
260.0
 10
189.4999999999999
 20
265.9999999999999
 10
29.50000000000002
 20
265.9999999999999
 10
29.50000000000002
 20
260.0
  0
LWPOLYLINE
  5
B8
330
1F
100
AcDbEntity
  8
MAGNETE
  6
Continuous
 62
     6
100
AcDbPolyline
 90
        4
 70
     1
 43
0.0
 10
107.4999999999999
 20
260.0
 10
111.4999999999999
 20
260.0
 10
111.4999999999999
 20
261.9999999999999
 10
107.4999999999999
 20
261.9999999999999
  0
LWPOLYLINE
  5
B9
330
1F
100
AcDbEntity
  8
DUSTFILTER
  6
Continuous
 62
     4
100
AcDbPolyline
 90
        4
 70
     1
 43
0.0
 10
39.49999999999999
 20
260.0
 10
179.4999999999999
 20
260.0
 10
179.4999999999999
 20
258.0
 10
39.49999999999999
 20
258.0
  0
LINE
  5
BA
330
1F
100
AcDbEntity
  8
GEWINDESTANGEN
  6
Continuous
 62
     3
100
AcDbLine
 10
170.4999999999999
 20
261.9999999999999
 30
0.0
 11
174.5
 21
261.9999999999999
 31
0.0
  0
LINE
  5
BB
330
1F
100
AcDbEntity
  8
GEWINDESTANGEN
  6
Continuous
 62
     3
100
AcDbLine
 10
44.5
 20
261.9999999999999
 30
0.0
 11
48.49999999999999
 21
261.9999999999999
 31
0.0
  0
LINE
  5
BC
330
1F
100
AcDbEntity
  8
GEHÄUSE
  6
Continuous
 62
     7
100
AcDbLine
 10
162.0
 20
189.0
 30
0.0
 11
162.0
 21
194.9999999999999
 31
0.0
  0
LWPOLYLINE
  5
BD
330
1F
100
AcDbEntity
  8
GEHÄUSE
  6
Continuous
 62
     7
100
AcDbPolyline
 90
        4
 70
     1
 43
0.0
 10
29.47924033353374
 20
148.9703444299634
 10
35.4792403335337
 20
148.9703444299634
 10
35.4792403335337
 20
76.97034442996342
 10
29.47924033353374
 20
76.97034442996342
  0
LWPOLYLINE
  5
BE
330
1F
100
AcDbEntity
  8
MAGNETE
  6
Continuous
 62
     6
100
AcDbPolyline
 90
        4
 70
     1
 43
0.0
 10
30.5
 20
149.0
 10
34.5
 20
149.0
 10
34.5
 20
146.9999999999999
 10
30.5
 20
146.9999999999999
  0
LWPOLYLINE
  5
BF
330
1F
100
AcDbEntity
  8
MAGNETE
  6
Continuous
 62
     6
100
AcDbPolyline
 90
        4
 70
     1
 43
0.0
 10
30.5
 20
149.0
 10
34.5
 20
149.0
 10
34.5
 20
151.0
 10
30.5
 20
151.0
  0
LWPOLYLINE
  5
C0
330
1F
100
AcDbEntity
  8
MAGNETE
  6
Continuous
 62
     6
100
AcDbPolyline
 90
        4
 70
     1
 43
0.0
 10
30.5
 20
77.0
 10
34.5
 20
77.0
 10
34.5
 20
78.99999999999998
 10
30.5
 20
78.99999999999998
  0
LWPOLYLINE
  5
C1
330
1F
100
AcDbEntity
  8
MAGNETE
  6
Continuous
 62
     6
100
AcDbPolyline
 90
        4
 70
     1
 43
0.0
 10
30.5
 20
77.0
 10
34.5
 20
77.0
 10
34.5
 20
75.0
 10
30.5
 20
75.0
  0
LWPOLYLINE
  5
C2
330
1F
100
AcDbEntity
  8
GEHÄUSE
  6
Continuous
 62
     7
100
AcDbPolyline
 90
        4
 70
     1
 43
0.0
 10
189.4999999999999
 20
77.0
 10
183.5
 20
77.0
 10
183.5
 20
149.0
 10
189.4999999999999
 20
149.0
  0
LWPOLYLINE
  5
C3
330
1F
100
AcDbEntity
  8
MAGNETE
  6
Continuous
 62
     6
100
AcDbPolyline
 90
        4
 70
     1
 43
0.0
 10
184.4999999999999
 20
77.0
 10
188.4999999999999
 20
77.0
 10
188.4999999999999
 20
78.99999999999998
 10
184.4999999999999
 20
78.99999999999998
  0
LWPOLYLINE
  5
C4
330
1F
100
AcDbEntity
  8
MAGNETE
  6
Continuous
 62
     6
100
AcDbPolyline
 90
        4
 70
     1
 43
0.0
 10
188.4999999999999
 20
77.0
 10
184.4999999999999
 20
77.0
 10
184.4999999999999
 20
75.0
 10
188.4999999999999
 20
75.0
  0
LWPOLYLINE
  5
C5
330
1F
100
AcDbEntity
  8
MAGNETE
  6
Continuous
 62
     6
100
AcDbPolyline
 90
        4
 70
     1
 43
0.0
 10
184.4999999999999
 20
149.0
 10
188.4999999999999
 20
149.0
 10
188.4999999999999
 20
151.0
 10
184.4999999999999
 20
151.0
  0
LWPOLYLINE
  5
C6
330
1F
100
AcDbEntity
  8
MAGNETE
  6
Continuous
 62
     6
100
AcDbPolyline
 90
        4
 70
     1
 43
0.0
 10
188.4999999999999
 20
149.0
 10
184.4999999999999
 20
149.0
 10
184.4999999999999
 20
146.9999999999999
 10
188.4999999999999
 20
146.9999999999999
  0
LWPOLYLINE
  5
C7
330
1F
100
AcDbEntity
  8
VERSCHRAUBUNG
  6
Continuous
 62
     8
100
AcDbPolyline
 90
        4
 70
     1
 43
0.0
 10
39.99999999999998
 20
149.0
 10
52.99999999999999
 20
149.0
 10
52.99999999999999
 20
148.0
 10
39.99999999999998
 20
148.0
  0
LWPOLYLINE
  5
C8
330
1F
100
AcDbEntity
  8
VERSCHRAUBUNG
  6
Continuous
 62
     8
100
AcDbPolyline
 90
        4
 70
     1
 43
0.0
 10
166.0
 20
149.0
 10
179.0
 20
149.0
 10
179.0
 20
148.0
 10
166.0
 20
148.0
  0
LWPOLYLINE
  5
C9
330
1F
100
AcDbEntity
  8
VERSCHRAUBUNG
  6
Continuous
 62
     8
100
AcDbPolyline
 90
        4
 70
     1
 43
0.0
 10
169.9999999999999
 20
148.0
 10
175.0
 20
148.0
 10
175.0
 20
146.9999999999999
 10
169.9999999999999
 20
146.9999999999999
  0
LWPOLYLINE
  5
CA
330
1F
100
AcDbEntity
  8
VERSCHRAUBUNG
  6
Continuous
 62
     8
100
AcDbPolyline
 90
        4
 70
     1
 43
0.0
 10
169.4999999999999
 20
146.9999999999999
 10
175.5
 20
146.9999999999999
 10
175.5
 20
143.0
 10
169.4999999999999
 20
143.0
  0
LWPOLYLINE
  5
CB
330
1F
100
AcDbEntity
  8
VERSCHRAUBUNG
  6
Continuous
 62
     8
100
AcDbPolyline
 90
        4
 70
     1
 43
0.0
 10
169.4999999999999
 20
153.0
 10
175.5
 20
153.0
 10
175.5
 20
155.0
 10
169.4999999999999
 20
155.0
  0
LWPOLYLINE
  5
CC
330
1F
100
AcDbEntity
  8
VERSCHRAUBUNG
  6
Continuous
 62
     8
100
AcDbPolyline
 90
        4
 70
     1
 43
0.0
 10
44.0
 20
148.0
 10
48.99999999999999
 20
148.0
 10
48.99999999999999
 20
146.9999999999999
 10
44.0
 20
146.9999999999999
  0
LWPOLYLINE
  5
CD
330
1F
100
AcDbEntity
  8
VERSCHRAUBUNG
  6
Continuous
 62
     8
100
AcDbPolyline
 90
        4
 70
     1
 43
0.0
 10
43.5
 20
146.9999999999999
 10
49.49999999999999
 20
146.9999999999999
 10
49.49999999999999
 20
143.0
 10
43.5
 20
143.0
  0
LWPOLYLINE
  5
CE
330
1F
100
AcDbEntity
  8
VERSCHRAUBUNG
  6
Continuous
 62
     8
100
AcDbPolyline
 90
        4
 70
     1
 43
0.0
 10
43.5
 20
155.0
 10
49.49999999999999
 20
155.0
 10
49.49999999999999
 20
153.0
 10
43.5
 20
153.0
  0
LWPOLYLINE
  5
CF
330
1F
100
AcDbEntity
  8
VERSCHRAUBUNG
  6
Continuous
 62
     8
100
AcDbPolyline
 90
        4
 70
     1
 43
0.0
 10
39.99999999999999
 20
129.0
 10
52.99999999999999
 20
129.0
 10
52.99999999999999
 20
127.9999999999999
 10
39.99999999999999
 20
127.9999999999999
  0
LWPOLYLINE
  5
D0
330
1F
100
AcDbEntity
  8
VERSCHRAUBUNG
  6
Continuous
 62
     8
100
AcDbPolyline
 90
        4
 70
     1
 43
0.0
 10
52.99999999999999
 20
102.0
 10
39.99999999999999
 20
102.0
 10
39.99999999999999
 20
101.0
 10
52.99999999999999
 20
101.0
  0
LWPOLYLINE
  5
D1
330
1F
100
AcDbEntity
  8
VERSCHRAUBUNG
  6
Continuous
 62
     8
100
AcDbPolyline
 90
        4
 70
     1
 43
0.0
 10
44.0
 20
130.0
 10
48.99999999999999
 20
130.0
 10
48.99999999999999
 20
129.0
 10
44.0
 20
129.0
  0
LWPOLYLINE
  5
D2
330
1F
100
AcDbEntity
  8
VERSCHRAUBUNG
  6
Continuous
 62
     8
100
AcDbPolyline
 90
        4
 70
     1
 43
0.0
 10
44.0
 20
101.0
 10
48.99999999999999
 20
101.0
 10
48.99999999999999
 20
100.0
 10
44.0
 20
100.0
  0
LWPOLYLINE
  5
D3
330
1F
100
AcDbEntity
  8
VERSCHRAUBUNG
  6
Continuous
 62
     8
100
AcDbPolyline
 90
        4
 70
     1
 43
0.0
 10
43.5
 20
100.0
 10
49.49999999999999
 20
100.0
 10
49.49999999999999
 20
96.0
 10
43.5
 20
96.0
  0
LWPOLYLINE
  5
D4
330
1F
100
AcDbEntity
  8
VERSCHRAUBUNG
  6
Continuous
 62
     8
100
AcDbPolyline
 90
        4
 70
     1
 43
0.0
 10
43.5
 20
130.0
 10
49.5
 20
130.0
 10
49.5
 20
133.9999999999999
 10
43.5
 20
133.9999999999999
  0
LWPOLYLINE
  5
D5
330
1F
100
AcDbEntity
  8
VERSCHRAUBUNG
  6
Continuous
 62
     8
100
AcDbPolyline
 90
        4
 70
     1
 43
0.0
 10
179.0
 20
129.0
 10
166.0
 20
129.0
 10
166.0
 20
127.9999999999999
 10
179.0
 20
127.9999999999999
  0
LWPOLYLINE
  5
D6
330
1F
100
AcDbEntity
  8
VERSCHRAUBUNG
  6
Continuous
 62
     8
100
AcDbPolyline
 90
        4
 70
     1
 43
0.0
 10
169.9999999999999
 20
129.0
 10
175.0
 20
129.0
 10
175.0
 20
130.0
 10
169.9999999999999
 20
130.0
  0
LWPOLYLINE
  5
D7
330
1F
100
AcDbEntity
  8
VERSCHRAUBUNG
  6
Continuous
 62
     8
100
AcDbPolyline
 90
        4
 70
     1
 43
0.0
 10
169.4999999999999
 20
130.0
 10
175.5
 20
130.0
 10
175.5
 20
133.9999999999999
 10
169.4999999999999
 20
133.9999999999999
  0
LWPOLYLINE
  5
D8
330
1F
100
AcDbEntity
  8
VERSCHRAUBUNG
  6
Continuous
 62
     8
100
AcDbPolyline
 90
        4
 70
     1
 43
0.0
 10
166.0
 20
102.0
 10
179.0
 20
102.0
 10
179.0
 20
101.0
 10
166.0
 20
101.0
  0
LWPOLYLINE
  5
D9
330
1F
100
AcDbEntity
  8
VERSCHRAUBUNG
  6
Continuous
 62
     8
100
AcDbPolyline
 90
        4
 70
     1
 43
0.0
 10
169.9999999999999
 20
101.0
 10
175.0
 20
101.0
 10
175.0
 20
100.0
 10
169.9999999999999
 20
100.0
  0
LWPOLYLINE
  5
DA
330
1F
100
AcDbEntity
  8
VERSCHRAUBUNG
  6
Continuous
 62
     8
100
AcDbPolyline
 90
        4
 70
     1
 43
0.0
 10
169.4999999999999
 20
100.0
 10
175.5
 20
100.0
 10
175.5
 20
96.0
 10
169.4999999999999
 20
96.0
  0
LWPOLYLINE
  5
DB
330
1F
100
AcDbEntity
  8
VERSCHRAUBUNG
  6
Continuous
 62
     8
100
AcDbPolyline
 90
        4
 70
     1
 43
0.0
 10
39.99999999999998
 20
77.99999999999998
 10
52.99999999999999
 20
77.99999999999998
 10
52.99999999999999
 20
76.99999999999999
 10
39.99999999999998
 20
76.99999999999999
  0
LWPOLYLINE
  5
DC
330
1F
100
AcDbEntity
  8
VERSCHRAUBUNG
  6
Continuous
 62
     8
100
AcDbPolyline
 90
        4
 70
     1
 43
0.0
 10
44.0
 20
78.99999999999998
 10
48.99999999999999
 20
78.99999999999998
 10
48.99999999999999
 20
77.99999999999998
 10
44.0
 20
77.99999999999998
  0
LWPOLYLINE
  5
DD
330
1F
100
AcDbEntity
  8
VERSCHRAUBUNG
  6
Continuous
 62
     8
100
AcDbPolyline
 90
        4
 70
     1
 43
0.0
 10
43.5
 20
78.99999999999998
 10
49.5
 20
78.99999999999998
 10
49.5
 20
83.0
 10
43.5
 20
83.0
  0
LWPOLYLINE
  5
DE
330
1F
100
AcDbEntity
  8
VERSCHRAUBUNG
  6
Continuous
 62
     8
100
AcDbPolyline
 90
        4
 70
     1
 43
0.0
 10
166.0
 20
77.99999999999998
 10
179.0
 20
77.99999999999998
 10
179.0
 20
77.0
 10
166.0
 20
77.0
  0
LWPOLYLINE
  5
DF
330
1F
100
AcDbEntity
  8
VERSCHRAUBUNG
  6
Continuous
 62
     8
100
AcDbPolyline
 90
        4
 70
     1
 43
0.0
 10
169.9999999999999
 20
78.99999999999998
 10
175.0
 20
78.99999999999998
 10
175.0
 20
77.99999999999998
 10
169.9999999999999
 20
77.99999999999998
  0
LWPOLYLINE
  5
E0
330
1F
100
AcDbEntity
  8
VERSCHRAUBUNG
  6
Continuous
 62
     8
100
AcDbPolyline
 90
        4
 70
     1
 43
0.0
 10
169.4999999999999
 20
78.99999999999998
 10
175.5
 20
78.99999999999998
 10
175.5
 20
83.0
 10
169.4999999999999
 20
83.0
  0
LWPOLYLINE
  5
E1
330
1F
100
AcDbEntity
  8
VERSCHRAUBUNG
  6
Continuous
 62
     8
100
AcDbPolyline
 90
        4
 70
     1
 43
0.0
 10
166.0
 20
213.9999999999999
 10
179.0
 20
213.9999999999999
 10
179.0
 20
212.9999999999999
 10
166.0
 20
212.9999999999999
  0
LWPOLYLINE
  5
E2
330
1F
100
AcDbEntity
  8
VERSCHRAUBUNG
  6
Continuous
 62
     8
100
AcDbPolyline
 90
        4
 70
     1
 43
0.0
 10
169.9999999999999
 20
212.9999999999999
 10
175.0
 20
212.9999999999999
 10
175.0
 20
211.9999999999999
 10
169.9999999999999
 20
211.9999999999999
  0
LWPOLYLINE
  5
E3
330
1F
100
AcDbEntity
  8
VERSCHRAUBUNG
  6
Continuous
 62
     8
100
AcDbPolyline
 90
        4
 70
     1
 43
0.0
 10
169.4999999999999
 20
211.9999999999999
 10
175.5
 20
211.9999999999999
 10
175.5
 20
207.9999999999999
 10
169.4999999999999
 20
207.9999999999999
  0
LWPOLYLINE
  5
E4
330
1F
100
AcDbEntity
  8
VERSCHRAUBUNG
  6
Continuous
 62
     8
100
AcDbPolyline
 90
        4
 70
     1
 43
0.0
 10
166.0
 20
240.9999999999999
 10
179.0
 20
240.9999999999999
 10
179.0
 20
239.9999999999999
 10
166.0
 20
239.9999999999999
  0
LWPOLYLINE
  5
E5
330
1F
100
AcDbEntity
  8
VERSCHRAUBUNG
  6
Continuous
 62
     8
100
AcDbPolyline
 90
        4
 70
     1
 43
0.0
 10
169.9999999999999
 20
241.9999999999999
 10
175.0
 20
241.9999999999999
 10
175.0
 20
240.9999999999999
 10
169.9999999999999
 20
240.9999999999999
  0
LWPOLYLINE
  5
E6
330
1F
100
AcDbEntity
  8
VERSCHRAUBUNG
  6
Continuous
 62
     8
100
AcDbPolyline
 90
        4
 70
     1
 43
0.0
 10
169.4999999999999
 20
241.9999999999999
 10
175.5
 20
241.9999999999999
 10
175.5
 20
246.0
 10
169.4999999999999
 20
246.0
  0
LWPOLYLINE
  5
E7
330
1F
100
AcDbEntity
  8
VERSCHRAUBUNG
  6
Continuous
 62
     8
100
AcDbPolyline
 90
        4
 70
     1
 43
0.0
 10
39.99999999999999
 20
240.9999999999999
 10
52.99999999999999
 20
240.9999999999999
 10
52.99999999999999
 20
239.9999999999999
 10
39.99999999999999
 20
239.9999999999999
  0
LWPOLYLINE
  5
E8
330
1F
100
AcDbEntity
  8
VERSCHRAUBUNG
  6
Continuous
 62
     8
100
AcDbPolyline
 90
        4
 70
     1
 43
0.0
 10
44.0
 20
241.9999999999999
 10
48.99999999999999
 20
241.9999999999999
 10
48.99999999999999
 20
240.9999999999999
 10
44.0
 20
240.9999999999999
  0
LWPOLYLINE
  5
E9
330
1F
100
AcDbEntity
  8
VERSCHRAUBUNG
  6
Continuous
 62
     8
100
AcDbPolyline
 90
        4
 70
     1
 43
0.0
 10
43.5
 20
241.9999999999999
 10
49.5
 20
241.9999999999999
 10
49.5
 20
246.0
 10
43.5
 20
246.0
  0
LWPOLYLINE
  5
EA
330
1F
100
AcDbEntity
  8
VERSCHRAUBUNG
  6
Continuous
 62
     8
100
AcDbPolyline
 90
        4
 70
     1
 43
0.0
 10
39.99999999999999
 20
213.9999999999999
 10
52.99999999999999
 20
213.9999999999999
 10
52.99999999999999
 20
212.9999999999999
 10
39.99999999999999
 20
212.9999999999999
  0
LWPOLYLINE
  5
EB
330
1F
100
AcDbEntity
  8
VERSCHRAUBUNG
  6
Continuous
 62
     8
100
AcDbPolyline
 90
        4
 70
     1
 43
0.0
 10
44.0
 20
212.9999999999999
 10
48.99999999999999
 20
212.9999999999999
 10
48.99999999999999
 20
211.9999999999999
 10
44.0
 20
211.9999999999999
  0
LWPOLYLINE
  5
EC
330
1F
100
AcDbEntity
  8
VERSCHRAUBUNG
  6
Continuous
 62
     8
100
AcDbPolyline
 90
        4
 70
     1
 43
0.0
 10
43.5
 20
211.9999999999999
 10
49.49999999999999
 20
211.9999999999999
 10
49.49999999999999
 20
207.9999999999999
 10
43.5
 20
207.9999999999999
  0
TEXT
  5
EE
330
1F
100
AcDbEntity
  8
BEMASSUNG-HILFSLINIEN
  6
Continuous
 62
    14
100
AcDbText
 10
192.2422144837677
 20
249.0
 30
0.0
 40
3.999999999999999
  1
6.00 mm
  7
ARIAL
 72
     1
 11
202.0
 21
251.0
 31
0.0
100
AcDbText
 73
     2
  0
LINE
  5
EF
330
1F
100
AcDbEntity
  8
BEMASSUNG-HILFSLINIEN
  6
Continuous
 62
    14
100
AcDbLine
 10
193.9999999999999
 20
265.9999999999999
 30
0.0
 11
204.9999999999999
 21
265.9999999999999
 31
0.0
  0
LINE
  5
F0
330
1F
100
AcDbEntity
  8
BEMASSUNG-HILFSLINIEN
  6
Continuous
 62
    14
100
AcDbLine
 10
193.9999999999999
 20
260.0
 30
0.0
 11
204.9999999999999
 21
260.0
 31
0.0
  0
LINE
  5
F1
330
1F
100
AcDbEntity
  8
BEMASSUNG-HILFSLINIEN
  6
Continuous
 62
    14
100
AcDbLine
 10
202.0
 20
265.9999999999999
 30
0.0
 11
202.0
 21
271.9999999999999
 31
0.0
  0
LINE
  5
F2
330
1F
100
AcDbEntity
  8
BEMASSUNG-HILFSLINIEN
  6
Continuous
 62
    14
100
AcDbLine
 10
202.0
 20
260.0
 30
0.0
 11
202.0
 21
254.0
 31
0.0
  0
INSERT
  5
F8
330
1F
100
AcDbEntity
  8
BEMASSUNG-HILFSLINIEN
  6
Continuous
 62
    14
100
AcDbBlockReference
  2
LONGARROW
 10
202.0
 20
265.9999999999999
 30
0.0
 41
0.078740157480315
 42
0.078740157480315
 50
90.00000000000007
  0
INSERT
  5
F9
330
1F
100
AcDbEntity
  8
BEMASSUNG-HILFSLINIEN
  6
Continuous
 62
    14
100
AcDbBlockReference
  2
LONGARROW
 10
202.0
 20
260.0
 30
0.0
 41
0.078740157480315
 42
0.078740157480315
 50
270.0
  0
TEXT
  5
FA
330
1F
100
AcDbEntity
  8
BEMASSUNG-HILFSLINIEN
  6
Continuous
 62
    14
100
AcDbText
 10
190.8470587760209
 20
248.0
 30
0.0
 40
3.999999999999999
  1
20.00 mm
  7
ARIAL
 72
     1
 11
202.0
 21
250.0
 31
0.0
100
AcDbText
 73
     2
  0
LINE
  5
FB
330
1F
100
AcDbEntity
  8
BEMASSUNG-HILFSLINIEN
  6
Continuous
 62
    14
100
AcDbLine
 10
193.9999999999999
 20
260.0
 30
0.0
 11
204.9999999999999
 21
260.0
 31
0.0
  0
LINE
  5
FC
330
1F
100
AcDbEntity
  8
BEMASSUNG-HILFSLINIEN
  6
Continuous
 62
    14
100
AcDbLine
 10
193.9999999999999
 20
239.9999999999999
 30
0.0
 11
205.0
 21
239.9999999999999
 31
0.0
  0
LINE
  5
FD
330
1F
100
AcDbEntity
  8
BEMASSUNG-HILFSLINIEN
  6
Continuous
 62
    14
100
AcDbLine
 10
202.0
 20
260.0
 30
0.0
 11
202.0
 21
253.0
 31
0.0
  0
LINE
  5
FE
330
1F
100
AcDbEntity
  8
BEMASSUNG-HILFSLINIEN
  6
Continuous
 62
    14
100
AcDbLine
 10
202.0
 20
239.9999999999999
 30
0.0
 11
202.0
 21
246.9999999999999
 31
0.0
  0
INSERT
  5
FF
330
1F
100
AcDbEntity
  8
BEMASSUNG-HILFSLINIEN
  6
Continuous
 62
    14
100
AcDbBlockReference
  2
LONGARROW
 10
202.0
 20
260.0
 30
0.0
 41
0.078740157480315
 42
0.078740157480315
 50
270.0
  0
INSERT
  5
100
330
1F
100
AcDbEntity
  8
BEMASSUNG-HILFSLINIEN
  6
Continuous
 62
    14
100
AcDbBlockReference
  2
LONGARROW
 10
202.0
 20
239.9999999999999
 30
0.0
 41
0.078740157480315
 42
0.078740157480315
 50
90.00000000000005
  0
TEXT
  5
101
330
1F
100
AcDbEntity
  8
BEMASSUNG-HILFSLINIEN
  6
Continuous
 62
    14
100
AcDbText
 10
190.8470587760209
 20
225.0
 30
0.0
 40
3.999999999999999
  1
26.00 mm
  7
ARIAL
 72
     1
 11
202.0
 21
227.0
 31
0.0
100
AcDbText
 73
     2
  0
LINE
  5
102
330
1F
100
AcDbEntity
  8
BEMASSUNG-HILFSLINIEN
  6
Continuous
 62
    14
100
AcDbLine
 10
193.9999999999999
 20
239.9999999999999
 30
0.0
 11
204.9999999999999
 21
239.9999999999999
 31
0.0
  0
LINE
  5
103
330
1F
100
AcDbEntity
  8
BEMASSUNG-HILFSLINIEN
  6
Continuous
 62
    14
100
AcDbLine
 10
193.9999999999999
 20
213.9999999999999
 30
0.0
 11
205.0
 21
213.9999999999999
 31
0.0
  0
LINE
  5
104
330
1F
100
AcDbEntity
  8
BEMASSUNG-HILFSLINIEN
  6
Continuous
 62
    14
100
AcDbLine
 10
202.0
 20
239.9999999999999
 30
0.0
 11
202.0
 21
229.9999999999999
 31
0.0
  0
LINE
  5
105
330
1F
100
AcDbEntity
  8
BEMASSUNG-HILFSLINIEN
  6
Continuous
 62
    14
100
AcDbLine
 10
202.0
 20
213.9999999999999
 30
0.0
 11
202.0
 21
223.9999999999999
 31
0.0
  0
INSERT
  5
106
330
1F
100
AcDbEntity
  8
BEMASSUNG-HILFSLINIEN
  6
Continuous
 62
    14
100
AcDbBlockReference
  2
LONGARROW
 10
202.0
 20
239.9999999999999
 30
0.0
 41
0.078740157480315
 42
0.078740157480315
 50
270.0
  0
INSERT
  5
107
330
1F
100
AcDbEntity
  8
BEMASSUNG-HILFSLINIEN
  6
Continuous
 62
    14
100
AcDbBlockReference
  2
LONGARROW
 10
202.0
 20
213.9999999999999
 30
0.0
 41
0.078740157480315
 42
0.078740157480315
 50
90.00000000000005
  0
TEXT
  5
108
330
1F
100
AcDbEntity
  8
BEMASSUNG-HILFSLINIEN
  6
Continuous
 62
    14
100
AcDbText
 10
190.8470587760209
 20
199.4999999999999
 30
0.0
 40
3.999999999999999
  1
25.00 mm
  7
ARIAL
 72
     1
 11
202.0
 21
201.4999999999999
 31
0.0
100
AcDbText
 73
     2
  0
LINE
  5
109
330
1F
100
AcDbEntity
  8
BEMASSUNG-HILFSLINIEN
  6
Continuous
 62
    14
100
AcDbLine
 10
193.9999999999999
 20
213.9999999999999
 30
0.0
 11
204.9999999999999
 21
213.9999999999999
 31
0.0
  0
LINE
  5
10A
330
1F
100
AcDbEntity
  8
BEMASSUNG-HILFSLINIEN
  6
Continuous
 62
    14
100
AcDbLine
 10
193.9999999999999
 20
189.0
 30
0.0
 11
205.0
 21
189.0
 31
0.0
  0
LINE
  5
10B
330
1F
100
AcDbEntity
  8
BEMASSUNG-HILFSLINIEN
  6
Continuous
 62
    14
100
AcDbLine
 10
202.0
 20
213.9999999999999
 30
0.0
 11
202.0
 21
204.4999999999999
 31
0.0
  0
LINE
  5
10C
330
1F
100
AcDbEntity
  8
BEMASSUNG-HILFSLINIEN
  6
Continuous
 62
    14
100
AcDbLine
 10
202.0
 20
189.0
 30
0.0
 11
202.0
 21
198.4999999999999
 31
0.0
  0
INSERT
  5
10D
330
1F
100
AcDbEntity
  8
BEMASSUNG-HILFSLINIEN
  6
Continuous
 62
    14
100
AcDbBlockReference
  2
LONGARROW
 10
202.0
 20
213.9999999999999
 30
0.0
 41
0.078740157480315
 42
0.078740157480315
 50
270.0
  0
INSERT
  5
10E
330
1F
100
AcDbEntity
  8
BEMASSUNG-HILFSLINIEN
  6
Continuous
 62
    14
100
AcDbBlockReference
  2
LONGARROW
 10
202.0
 20
189.0
 30
0.0
 41
0.078740157480315
 42
0.078740157480315
 50
90.00000000000005
  0
TEXT
  5
10F
330
1F
100
AcDbEntity
  8
BEMASSUNG-HILFSLINIEN
  6
Continuous
 62
    14
100
AcDbText
 10
190.8470587760209
 20
169.0
 30
0.0
 40
3.999999999999999
  1
36.00 mm
  7
ARIAL
 72
     1
 11
202.0
 21
171.0
 31
0.0
100
AcDbText
 73
     2
  0
LINE
  5
110
330
1F
100
AcDbEntity
  8
BEMASSUNG-HILFSLINIEN
  6
Continuous
 62
    14
100
AcDbLine
 10
193.9999999999999
 20
189.0
 30
0.0
 11
204.9999999999999
 21
189.0
 31
0.0
  0
LINE
  5
111
330
1F
100
AcDbEntity
  8
BEMASSUNG-HILFSLINIEN
  6
Continuous
 62
    14
100
AcDbLine
 10
193.9999999999999
 20
153.0
 30
0.0
 11
205.0
 21
153.0
 31
0.0
  0
LINE
  5
112
330
1F
100
AcDbEntity
  8
BEMASSUNG-HILFSLINIEN
  6
Continuous
 62
    14
100
AcDbLine
 10
202.0
 20
189.0
 30
0.0
 11
202.0
 21
174.0
 31
0.0
  0
LINE
  5
113
330
1F
100
AcDbEntity
  8
BEMASSUNG-HILFSLINIEN
  6
Continuous
 62
    14
100
AcDbLine
 10
202.0
 20
153.0
 30
0.0
 11
202.0
 21
167.9999999999999
 31
0.0
  0
INSERT
  5
114
330
1F
100
AcDbEntity
  8
BEMASSUNG-HILFSLINIEN
  6
Continuous
 62
    14
100
AcDbBlockReference
  2
LONGARROW
 10
202.0
 20
189.0
 30
0.0
 41
0.078740157480315
 42
0.078740157480315
 50
270.0
  0
INSERT
  5
115
330
1F
100
AcDbEntity
  8
BEMASSUNG-HILFSLINIEN
  6
Continuous
 62
    14
100
AcDbBlockReference
  2
LONGARROW
 10
202.0
 20
153.0
 30
0.0
 41
0.078740157480315
 42
0.078740157480315
 50
90.00000000000005
  0
TEXT
  5
116
330
1F
100
AcDbEntity
  8
BEMASSUNG-HILFSLINIEN
  6
Continuous
 62
    14
100
AcDbText
 10
192.2422144837677
 20
138.0
 30
0.0
 40
3.999999999999999
  1
4.00 mm
  7
ARIAL
 72
     1
 11
202.0
 21
140.0
 31
0.0
100
AcDbText
 73
     2
  0
LINE
  5
117
330
1F
100
AcDbEntity
  8
BEMASSUNG-HILFSLINIEN
  6
Continuous
 62
    14
100
AcDbLine
 10
193.9999999999999
 20
153.0
 30
0.0
 11
204.9999999999999
 21
153.0
 31
0.0
  0
LINE
  5
118
330
1F
100
AcDbEntity
  8
BEMASSUNG-HILFSLINIEN
  6
Continuous
 62
    14
100
AcDbLine
 10
193.9999999999999
 20
149.0
 30
0.0
 11
204.9999999999999
 21
149.0
 31
0.0
  0
LINE
  5
119
330
1F
100
AcDbEntity
  8
BEMASSUNG-HILFSLINIEN
  6
Continuous
 62
    14
100
AcDbLine
 10
202.0
 20
153.0
 30
0.0
 11
202.0
 21
158.9999999999999
 31
0.0
  0
LINE
  5
11A
330
1F
100
AcDbEntity
  8
BEMASSUNG-HILFSLINIEN
  6
Continuous
 62
    14
100
AcDbLine
 10
202.0
 20
149.0
 30
0.0
 11
202.0
 21
143.0
 31
0.0
  0
INSERT
  5
11B
330
1F
100
AcDbEntity
  8
BEMASSUNG-HILFSLINIEN
  6
Continuous
 62
    14
100
AcDbBlockReference
  2
LONGARROW
 10
202.0
 20
153.0
 30
0.0
 41
0.078740157480315
 42
0.078740157480315
 50
90.00000000000007
  0
INSERT
  5
11C
330
1F
100
AcDbEntity
  8
BEMASSUNG-HILFSLINIEN
  6
Continuous
 62
    14
100
AcDbBlockReference
  2
LONGARROW
 10
202.0
 20
149.0
 30
0.0
 41
0.078740157480315
 42
0.078740157480315
 50
270.0
  0
TEXT
  5
11D
330
1F
100
AcDbEntity
  8
BEMASSUNG-HILFSLINIEN
  6
Continuous
 62
    14
100
AcDbText
 10
192.847058776021
 20
136.4999999999999
 30
0.0
 40
3.999999999999999
  1
21.00 mm
  7
ARIAL
 72
     1
 11
204.0
 21
138.5
 31
0.0
100
AcDbText
 73
     2
  0
LINE
  5
11E
330
1F
100
AcDbEntity
  8
BEMASSUNG-HILFSLINIEN
  6
Continuous
 62
    14
100
AcDbLine
 10
195.9999999999999
 20
149.0
 30
0.0
 11
206.9999999999999
 21
149.0
 31
0.0
  0
LINE
  5
11F
330
1F
100
AcDbEntity
  8
BEMASSUNG-HILFSLINIEN
  6
Continuous
 62
    14
100
AcDbLine
 10
195.9999999999999
 20
127.9999999999999
 30
0.0
 11
206.9999999999999
 21
127.9999999999999
 31
0.0
  0
LINE
  5
120
330
1F
100
AcDbEntity
  8
BEMASSUNG-HILFSLINIEN
  6
Continuous
 62
    14
100
AcDbLine
 10
204.0
 20
149.0
 30
0.0
 11
204.0
 21
141.5
 31
0.0
  0
LINE
  5
121
330
1F
100
AcDbEntity
  8
BEMASSUNG-HILFSLINIEN
  6
Continuous
 62
    14
100
AcDbLine
 10
204.0
 20
127.9999999999999
 30
0.0
 11
204.0
 21
135.4999999999999
 31
0.0
  0
INSERT
  5
122
330
1F
100
AcDbEntity
  8
BEMASSUNG-HILFSLINIEN
  6
Continuous
 62
    14
100
AcDbBlockReference
  2
LONGARROW
 10
204.0
 20
149.0
 30
0.0
 41
0.078740157480315
 42
0.078740157480315
 50
270.0
  0
INSERT
  5
123
330
1F
100
AcDbEntity
  8
BEMASSUNG-HILFSLINIEN
  6
Continuous
 62
    14
100
AcDbBlockReference
  2
LONGARROW
 10
204.0
 20
127.9999999999999
 30
0.0
 41
0.078740157480315
 42
0.078740157480315
 50
90.00000000000005
  0
TEXT
  5
124
330
1F
100
AcDbEntity
  8
BEMASSUNG-HILFSLINIEN
  6
Continuous
 62
    14
100
AcDbText
 10
192.847058776021
 20
113.0
 30
0.0
 40
3.999999999999999
  1
26.00 mm
  7
ARIAL
 72
     1
 11
204.0
 21
114.9999999999999
 31
0.0
100
AcDbText
 73
     2
  0
LINE
  5
125
330
1F
100
AcDbEntity
  8
BEMASSUNG-HILFSLINIEN
  6
Continuous
 62
    14
100
AcDbLine
 10
195.9999999999999
 20
127.9999999999999
 30
0.0
 11
206.9999999999999
 21
127.9999999999999
 31
0.0
  0
LINE
  5
126
330
1F
100
AcDbEntity
  8
BEMASSUNG-HILFSLINIEN
  6
Continuous
 62
    14
100
AcDbLine
 10
195.9999999999999
 20
102.0
 30
0.0
 11
207.0
 21
102.0
 31
0.0
  0
LINE
  5
127
330
1F
100
AcDbEntity
  8
BEMASSUNG-HILFSLINIEN
  6
Continuous
 62
    14
100
AcDbLine
 10
204.0
 20
127.9999999999999
 30
0.0
 11
204.0
 21
117.9999999999999
 31
0.0
  0
LINE
  5
128
330
1F
100
AcDbEntity
  8
BEMASSUNG-HILFSLINIEN
  6
Continuous
 62
    14
100
AcDbLine
 10
204.0
 20
102.0
 30
0.0
 11
204.0
 21
112.0
 31
0.0
  0
INSERT
  5
129
330
1F
100
AcDbEntity
  8
BEMASSUNG-HILFSLINIEN
  6
Continuous
 62
    14
100
AcDbBlockReference
  2
LONGARROW
 10
204.0
 20
127.9999999999999
 30
0.0
 41
0.078740157480315
 42
0.078740157480315
 50
270.0
  0
INSERT
  5
12A
330
1F
100
AcDbEntity
  8
BEMASSUNG-HILFSLINIEN
  6
Continuous
 62
    14
100
AcDbBlockReference
  2
LONGARROW
 10
204.0
 20
102.0
 30
0.0
 41
0.078740157480315
 42
0.078740157480315
 50
90.00000000000005
  0
TEXT
  5
12B
330
1F
100
AcDbEntity
  8
BEMASSUNG-HILFSLINIEN
  6
Continuous
 62
    14
100
AcDbText
 10
192.847058776021
 20
87.5
 30
0.0
 40
3.999999999999999
  1
25.00 mm
  7
ARIAL
 72
     1
 11
204.0
 21
89.50000000000001
 31
0.0
100
AcDbText
 73
     2
  0
LINE
  5
12C
330
1F
100
AcDbEntity
  8
BEMASSUNG-HILFSLINIEN
  6
Continuous
 62
    14
100
AcDbLine
 10
195.9999999999999
 20
102.0
 30
0.0
 11
206.9999999999999
 21
102.0
 31
0.0
  0
LINE
  5
12D
330
1F
100
AcDbEntity
  8
BEMASSUNG-HILFSLINIEN
  6
Continuous
 62
    14
100
AcDbLine
 10
195.9999999999999
 20
77.0
 30
0.0
 11
207.0
 21
77.0
 31
0.0
  0
LINE
  5
12E
330
1F
100
AcDbEntity
  8
BEMASSUNG-HILFSLINIEN
  6
Continuous
 62
    14
100
AcDbLine
 10
204.0
 20
102.0
 30
0.0
 11
204.0
 21
92.49999999999998
 31
0.0
  0
LINE
  5
12F
330
1F
100
AcDbEntity
  8
BEMASSUNG-HILFSLINIEN
  6
Continuous
 62
    14
100
AcDbLine
 10
204.0
 20
77.0
 30
0.0
 11
204.0
 21
86.5
 31
0.0
  0
INSERT
  5
130
330
1F
100
AcDbEntity
  8
BEMASSUNG-HILFSLINIEN
  6
Continuous
 62
    14
100
AcDbBlockReference
  2
LONGARROW
 10
204.0
 20
102.0
 30
0.0
 41
0.078740157480315
 42
0.078740157480315
 50
270.0
  0
INSERT
  5
131
330
1F
100
AcDbEntity
  8
BEMASSUNG-HILFSLINIEN
  6
Continuous
 62
    14
100
AcDbBlockReference
  2
LONGARROW
 10
204.0
 20
77.0
 30
0.0
 41
0.078740157480315
 42
0.078740157480315
 50
90.00000000000005
  0
TEXT
  5
132
330
1F
100
AcDbEntity
  8
BEMASSUNG-HILFSLINIEN
  6
Continuous
 62
    14
100
AcDbText
 10
194.2422144837677
 20
58.0
 30
0.0
 40
3.999999999999999
  1
8.00 mm
  7
ARIAL
 72
     1
 11
204.0
 21
60.0
 31
0.0
100
AcDbText
 73
     2
  0
LINE
  5
133
330
1F
100
AcDbEntity
  8
BEMASSUNG-HILFSLINIEN
  6
Continuous
 62
    14
100
AcDbLine
 10
195.9999999999999
 20
77.0
 30
0.0
 11
206.9999999999999
 21
77.0
 31
0.0
  0
LINE
  5
134
330
1F
100
AcDbEntity
  8
BEMASSUNG-HILFSLINIEN
  6
Continuous
 62
    14
100
AcDbLine
 10
195.9999999999999
 20
69.0
 30
0.0
 11
206.9999999999999
 21
69.0
 31
0.0
  0
LINE
  5
135
330
1F
100
AcDbEntity
  8
BEMASSUNG-HILFSLINIEN
  6
Continuous
 62
    14
100
AcDbLine
 10
204.0
 20
77.0
 30
0.0
 11
204.0
 21
83.0
 31
0.0
  0
LINE
  5
136
330
1F
100
AcDbEntity
  8
BEMASSUNG-HILFSLINIEN
  6
Continuous
 62
    14
100
AcDbLine
 10
204.0
 20
69.0
 30
0.0
 11
204.0
 21
63.0
 31
0.0
  0
INSERT
  5
137
330
1F
100
AcDbEntity
  8
BEMASSUNG-HILFSLINIEN
  6
Continuous
 62
    14
100
AcDbBlockReference
  2
LONGARROW
 10
204.0
 20
77.0
 30
0.0
 41
0.078740157480315
 42
0.078740157480315
 50
90.00000000000007
  0
INSERT
  5
138
330
1F
100
AcDbEntity
  8
BEMASSUNG-HILFSLINIEN
  6
Continuous
 62
    14
100
AcDbBlockReference
  2
LONGARROW
 10
204.0
 20
69.0
 30
0.0
 41
0.078740157480315
 42
0.078740157480315
 50
270.0
  0
TEXT
  5
139
330
1F
100
AcDbEntity
  8
BEMASSUNG-HILFSLINIEN
  6
Continuous
 62
    14
100
AcDbText
 10
192.847058776021
 20
48.49999999999999
 30
0.0
 40
3.999999999999999
  1
37.00 mm
  7
ARIAL
 72
     1
 11
204.0
 21
50.5
 31
0.0
100
AcDbText
 73
     2
  0
LINE
  5
13A
330
1F
100
AcDbEntity
  8
BEMASSUNG-HILFSLINIEN
  6
Continuous
 62
    14
100
AcDbLine
 10
195.9999999999999
 20
69.0
 30
0.0
 11
206.9999999999999
 21
69.0
 31
0.0
  0
LINE
  5
13B
330
1F
100
AcDbEntity
  8
BEMASSUNG-HILFSLINIEN
  6
Continuous
 62
    14
100
AcDbLine
 10
195.9999999999999
 20
31.99999999999999
 30
0.0
 11
207.0
 21
31.99999999999999
 31
0.0
  0
LINE
  5
13C
330
1F
100
AcDbEntity
  8
BEMASSUNG-HILFSLINIEN
  6
Continuous
 62
    14
100
AcDbLine
 10
204.0
 20
69.0
 30
0.0
 11
204.0
 21
53.49999999999999
 31
0.0
  0
LINE
  5
13D
330
1F
100
AcDbEntity
  8
BEMASSUNG-HILFSLINIEN
  6
Continuous
 62
    14
100
AcDbLine
 10
204.0
 20
31.99999999999999
 30
0.0
 11
204.0
 21
47.5
 31
0.0
  0
INSERT
  5
13E
330
1F
100
AcDbEntity
  8
BEMASSUNG-HILFSLINIEN
  6
Continuous
 62
    14
100
AcDbBlockReference
  2
LONGARROW
 10
204.0
 20
69.0
 30
0.0
 41
0.078740157480315
 42
0.078740157480315
 50
270.0
  0
INSERT
  5
13F
330
1F
100
AcDbEntity
  8
BEMASSUNG-HILFSLINIEN
  6
Continuous
 62
    14
100
AcDbBlockReference
  2
LONGARROW
 10
204.0
 20
31.99999999999999
 30
0.0
 41
0.078740157480315
 42
0.078740157480315
 50
90.00000000000005
  0
TEXT
  5
140
330
1F
100
AcDbEntity
  8
BEMASSUNG-HILFSLINIEN
  6
Continuous
 62
    14
100
AcDbText
 10
150.1055365405976
 20
265.0
 30
0.0
 40
3.999999999999999
  1
4.00 mm
  7
ARIAL
 72
     1
 11
159.8633220568299
 21
267.0
 31
0.0
100
AcDbText
 73
     2
  0
LINE
  5
141
330
1F
100
AcDbEntity
  8
BEMASSUNG-HILFSLINIEN
  6
Continuous
 62
    14
100
AcDbLine
 10
184.4999999999999
 20
275.0
 30
0.0
 11
184.4999999999999
 21
264.0
 31
0.0
  0
LINE
  5
142
330
1F
100
AcDbEntity
  8
BEMASSUNG-HILFSLINIEN
  6
Continuous
 62
    14
100
AcDbLine
 10
180.4999999999999
 20
275.0
 30
0.0
 11
180.4999999999999
 21
264.0
 31
0.0
  0
LINE
  5
143
330
1F
100
AcDbEntity
  8
BEMASSUNG-HILFSLINIEN
  6
Continuous
 62
    14
100
AcDbLine
 10
184.4999999999999
 20
267.0
 30
0.0
 11
190.4999999999999
 21
267.0
 31
0.0
  0
LINE
  5
144
330
1F
100
AcDbEntity
  8
BEMASSUNG-HILFSLINIEN
  6
Continuous
 62
    14
100
AcDbLine
 10
180.4999999999999
 20
267.0
 30
0.0
 11
174.5
 21
267.0
 31
0.0
  0
INSERT
  5
145
330
1F
100
AcDbEntity
  8
BEMASSUNG-HILFSLINIEN
  6
Continuous
 62
    14
100
AcDbBlockReference
  2
LONGARROW
 10
184.4999999999999
 20
267.0
 30
0.0
 41
0.078740157480315
 42
0.078740157480315
  0
INSERT
  5
146
330
1F
100
AcDbEntity
  8
BEMASSUNG-HILFSLINIEN
  6
Continuous
 62
    14
100
AcDbBlockReference
  2
LONGARROW
 10
180.4999999999999
 20
267.0
 30
0.0
 41
0.078740157480315
 42
0.078740157480315
 50
180.0
  0
TEXT
  5
147
330
1F
100
AcDbEntity
  8
BEMASSUNG-HILFSLINIEN
  6
Continuous
 62
    14
100
AcDbText
 10
140.1055365405976
 20
271.0
 30
0.0
 40
3.999999999999999
  1
4.00 mm
  7
ARIAL
 72
     1
 11
149.8633220568299
 21
273.0
 31
0.0
100
AcDbText
 73
     2
  0
LINE
  5
148
330
1F
100
AcDbEntity
  8
BEMASSUNG-HILFSLINIEN
  6
Continuous
 62
    14
100
AcDbLine
 10
174.5
 20
281.0
 30
0.0
 11
174.5
 21
270.0
 31
0.0
  0
LINE
  5
149
330
1F
100
AcDbEntity
  8
BEMASSUNG-HILFSLINIEN
  6
Continuous
 62
    14
100
AcDbLine
 10
170.4999999999999
 20
281.0
 30
0.0
 11
170.4999999999999
 21
270.0
 31
0.0
  0
LINE
  5
14A
330
1F
100
AcDbEntity
  8
BEMASSUNG-HILFSLINIEN
  6
Continuous
 62
    14
100
AcDbLine
 10
174.5
 20
273.0
 30
0.0
 11
180.4999999999999
 21
273.0
 31
0.0
  0
LINE
  5
14B
330
1F
100
AcDbEntity
  8
BEMASSUNG-HILFSLINIEN
  6
Continuous
 62
    14
100
AcDbLine
 10
170.4999999999999
 20
273.0
 30
0.0
 11
164.5
 21
273.0
 31
0.0
  0
INSERT
  5
14C
330
1F
100
AcDbEntity
  8
BEMASSUNG-HILFSLINIEN
  6
Continuous
 62
    14
100
AcDbBlockReference
  2
LONGARROW
 10
174.5
 20
273.0
 30
0.0
 41
0.078740157480315
 42
0.078740157480315
  0
INSERT
  5
14D
330
1F
100
AcDbEntity
  8
BEMASSUNG-HILFSLINIEN
  6
Continuous
 62
    14
100
AcDbBlockReference
  2
LONGARROW
 10
170.4999999999999
 20
273.0
 30
0.0
 41
0.078740157480315
 42
0.078740157480315
 50
180.0
  0
TEXT
  5
14E
330
1F
100
AcDbEntity
  8
BEMASSUNG-HILFSLINIEN
  6
Continuous
 62
    14
100
AcDbText
 10
96.95190306827427
 20
229.9999999999998
 30
0.0
 40
3.999999999999999
  1
140.00 mm
  7
ARIAL
 72
     1
 11
109.4999999999999
 21
231.9999999999998
 31
0.0
100
AcDbText
 73
     2
  0
LINE
  5
14F
330
1F
100
AcDbEntity
  8
BEMASSUNG-HILFSLINIEN
  6
Continuous
 62
    14
100
AcDbLine
 10
39.49999999999999
 20
222.0
 30
0.0
 11
39.49999999999999
 21
234.9999999999998
 31
0.0
  0
LINE
  5
150
330
1F
100
AcDbEntity
  8
BEMASSUNG-HILFSLINIEN
  6
Continuous
 62
    14
100
AcDbLine
 10
179.4999999999999
 20
224.0
 30
0.0
 11
179.4999999999999
 21
234.9999999999998
 31
0.0
  0
LINE
  5
151
330
1F
100
AcDbEntity
  8
BEMASSUNG-HILFSLINIEN
  6
Continuous
 62
    14
100
AcDbLine
 10
39.49999999999999
 20
231.9999999999998
 30
0.0
 11
90.67785502821207
 21
231.9999999999998
 31
0.0
  0
LINE
  5
152
330
1F
100
AcDbEntity
  8
BEMASSUNG-HILFSLINIEN
  6
Continuous
 62
    14
100
AcDbLine
 10
179.4999999999999
 20
231.9999999999998
 30
0.0
 11
128.3221449717879
 21
231.9999999999998
 31
0.0
  0
INSERT
  5
153
330
1F
100
AcDbEntity
  8
BEMASSUNG-HILFSLINIEN
  6
Continuous
 62
    14
100
AcDbBlockReference
  2
LONGARROW
 10
39.49999999999999
 20
231.9999999999998
 30
0.0
 41
0.078740157480315
 42
0.078740157480315
  0
INSERT
  5
154
330
1F
100
AcDbEntity
  8
BEMASSUNG-HILFSLINIEN
  6
Continuous
 62
    14
100
AcDbBlockReference
  2
LONGARROW
 10
179.4999999999999
 20
231.9999999999998
 30
0.0
 41
0.078740157480315
 42
0.078740157480315
 50
180.0
  0
TEXT
  5
155
330
1F
100
AcDbEntity
  8
BEMASSUNG-HILFSLINIEN
  6
Continuous
 62
    14
100
AcDbText
 10
96.95190306827427
 20
138.0
 30
0.0
 40
3.999999999999999
  1
160.00 mm
  7
ARIAL
 72
     1
 11
109.4999999999999
 21
140.0
 31
0.0
100
AcDbText
 73
     2
  0
LINE
  5
156
330
1F
100
AcDbEntity
  8
BEMASSUNG-HILFSLINIEN
  6
Continuous
 62
    14
100
AcDbLine
 10
189.4999999999999
 20
148.0
 30
0.0
 11
189.4999999999999
 21
137.0
 31
0.0
  0
LINE
  5
157
330
1F
100
AcDbEntity
  8
BEMASSUNG-HILFSLINIEN
  6
Continuous
 62
    14
100
AcDbLine
 10
29.49999999999999
 20
148.0
 30
0.0
 11
29.49999999999999
 21
137.0
 31
0.0
  0
LINE
  5
158
330
1F
100
AcDbEntity
  8
BEMASSUNG-HILFSLINIEN
  6
Continuous
 62
    14
100
AcDbLine
 10
189.4999999999999
 20
140.0
 30
0.0
 11
128.3221449717879
 21
140.0
 31
0.0
  0
LINE
  5
159
330
1F
100
AcDbEntity
  8
BEMASSUNG-HILFSLINIEN
  6
Continuous
 62
    14
100
AcDbLine
 10
29.49999999999999
 20
140.0
 30
0.0
 11
90.67785502821207
 21
140.0
 31
0.0
  0
INSERT
  5
15A
330
1F
100
AcDbEntity
  8
BEMASSUNG-HILFSLINIEN
  6
Continuous
 62
    14
100
AcDbBlockReference
  2
LONGARROW
 10
189.4999999999999
 20
140.0
 30
0.0
 41
0.078740157480315
 42
0.078740157480315
 50
180.0
  0
INSERT
  5
15B
330
1F
100
AcDbEntity
  8
BEMASSUNG-HILFSLINIEN
  6
Continuous
 62
    14
100
AcDbBlockReference
  2
LONGARROW
 10
29.49999999999999
 20
140.0
 30
0.0
 41
0.078740157480315
 42
0.078740157480315
  0
TEXT
  5
15C
330
1F
100
AcDbEntity
  8
BEMASSUNG-HILFSLINIEN
  6
Continuous
 62
    14
100
AcDbText
 10
96.95190306827427
 20
163.4999999999999
 30
0.0
 40
3.999999999999999
  1
105.00 mm
  7
ARIAL
 72
     1
 11
109.4999999999999
 21
165.5
 31
0.0
100
AcDbText
 73
     2
  0
LINE
  5
15D
330
1F
100
AcDbEntity
  8
BEMASSUNG-HILFSLINIEN
  6
Continuous
 62
    14
100
AcDbLine
 10
162.0
 20
173.5
 30
0.0
 11
162.0
 21
162.5
 31
0.0
  0
LINE
  5
15E
330
1F
100
AcDbEntity
  8
BEMASSUNG-HILFSLINIEN
  6
Continuous
 62
    14
100
AcDbLine
 10
57.0
 20
176.0
 30
0.0
 11
57.0
 21
162.5
 31
0.0
  0
LINE
  5
15F
330
1F
100
AcDbEntity
  8
BEMASSUNG-HILFSLINIEN
  6
Continuous
 62
    14
100
AcDbLine
 10
162.0
 20
165.5
 30
0.0
 11
128.3221449717879
 21
165.5
 31
0.0
  0
LINE
  5
160
330
1F
100
AcDbEntity
  8
BEMASSUNG-HILFSLINIEN
  6
Continuous
 62
    14
100
AcDbLine
 10
57.0
 20
165.5
 30
0.0
 11
90.67785502821207
 21
165.5
 31
0.0
  0
INSERT
  5
161
330
1F
100
AcDbEntity
  8
BEMASSUNG-HILFSLINIEN
  6
Continuous
 62
    14
100
AcDbBlockReference
  2
LONGARROW
 10
162.0
 20
165.5
 30
0.0
 41
0.078740157480315
 42
0.078740157480315
 50
180.0
  0
INSERT
  5
162
330
1F
100
AcDbEntity
  8
BEMASSUNG-HILFSLINIEN
  6
Continuous
 62
    14
100
AcDbBlockReference
  2
LONGARROW
 10
57.0
 20
165.5
 30
0.0
 41
0.078740157480315
 42
0.078740157480315
  0
TEXT
  5
163
330
1F
100
AcDbEntity
  8
BEMASSUNG-HILFSLINIEN
  6
Continuous
 62
    14
100
AcDbText
 10
57.347058776021
 20
74.49999999999992
 30
0.0
 40
3.999999999999999
  1
78.00 mm
  7
ARIAL
 72
     1
 11
68.5
 21
76.4999999999999
 31
0.0
100
AcDbText
 73
     2
  0
LINE
  5
164
330
1F
100
AcDbEntity
  8
BEMASSUNG-HILFSLINIEN
  6
Continuous
 62
    14
100
AcDbLine
 10
29.50000000000001
 20
63.0
 30
0.0
 11
29.50000000000001
 21
79.4999999999999
 31
0.0
  0
LINE
  5
165
330
1F
100
AcDbEntity
  8
BEMASSUNG-HILFSLINIEN
  6
Continuous
 62
    14
100
AcDbLine
 10
107.4999999999999
 20
68.49999999999998
 30
0.0
 11
107.4999999999999
 21
79.4999999999999
 31
0.0
  0
LINE
  5
166
330
1F
100
AcDbEntity
  8
BEMASSUNG-HILFSLINIEN
  6
Continuous
 62
    14
100
AcDbLine
 10
29.50000000000001
 20
76.4999999999999
 30
0.0
 11
51.77058854252098
 21
76.4999999999999
 31
0.0
  0
LINE
  5
167
330
1F
100
AcDbEntity
  8
BEMASSUNG-HILFSLINIEN
  6
Continuous
 62
    14
100
AcDbLine
 10
107.4999999999999
 20
76.4999999999999
 30
0.0
 11
85.229411457479
 21
76.4999999999999
 31
0.0
  0
INSERT
  5
168
330
1F
100
AcDbEntity
  8
BEMASSUNG-HILFSLINIEN
  6
Continuous
 62
    14
100
AcDbBlockReference
  2
LONGARROW
 10
29.50000000000001
 20
76.4999999999999
 30
0.0
 41
0.078740157480315
 42
0.078740157480315
  0
INSERT
  5
169
330
1F
100
AcDbEntity
  8
BEMASSUNG-HILFSLINIEN
  6
Continuous
 62
    14
100
AcDbBlockReference
  2
LONGARROW
 10
107.4999999999999
 20
76.4999999999999
 30
0.0
 41
0.078740157480315
 42
0.078740157480315
 50
180.0
  0
TEXT
  5
16A
330
1F
100
AcDbEntity
  8
BEMASSUNG-HILFSLINIEN
  6
Continuous
 62
    14
100
AcDbText
 10
122.3788924269378
 20
80.49999999999998
 30
0.0
 40
3.999999999999999
  1
4.00 mm
  7
ARIAL
 72
     1
 11
132.13667794317
 21
82.49999999999998
 31
0.0
100
AcDbText
 73
     2
  0
LINE
  5
16B
330
1F
100
AcDbEntity
  8
BEMASSUNG-HILFSLINIEN
  6
Continuous
 62
    14
100
AcDbLine
 10
107.4999999999999
 20
74.49999999999999
 30
0.0
 11
107.4999999999999
 21
85.49999999999998
 31
0.0
  0
LINE
  5
16C
330
1F
100
AcDbEntity
  8
BEMASSUNG-HILFSLINIEN
  6
Continuous
 62
    14
100
AcDbLine
 10
111.4999999999999
 20
72.99999999999998
 30
0.0
 11
111.4999999999999
 21
85.49999999999998
 31
0.0
  0
LINE
  5
16D
330
1F
100
AcDbEntity
  8
BEMASSUNG-HILFSLINIEN
  6
Continuous
 62
    14
100
AcDbLine
 10
107.4999999999999
 20
82.49999999999998
 30
0.0
 11
101.4999999999999
 21
82.49999999999998
 31
0.0
  0
LINE
  5
16E
330
1F
100
AcDbEntity
  8
BEMASSUNG-HILFSLINIEN
  6
Continuous
 62
    14
100
AcDbLine
 10
111.4999999999999
 20
82.49999999999998
 30
0.0
 11
117.4999999999999
 21
82.49999999999998
 31
0.0
  0
INSERT
  5
16F
330
1F
100
AcDbEntity
  8
BEMASSUNG-HILFSLINIEN
  6
Continuous
 62
    14
100
AcDbBlockReference
  2
LONGARROW
 10
107.4999999999999
 20
82.49999999999998
 30
0.0
 41
0.078740157480315
 42
0.078740157480315
 50
180.0
  0
INSERT
  5
170
330
1F
100
AcDbEntity
  8
BEMASSUNG-HILFSLINIEN
  6
Continuous
 62
    14
100
AcDbBlockReference
  2
LONGARROW
 10
111.4999999999999
 20
82.49999999999998
 30
0.0
 41
0.078740157480315
 42
0.078740157480315
  0
TEXT
  5
171
330
1F
100
AcDbEntity
  8
BEMASSUNG-HILFSLINIEN
  6
Continuous
 62
    14
100
AcDbText
 10
128.097058776021
 20
78.99999999999998
 30
0.0
 40
3.999999999999999
  1
55.50 mm
  7
ARIAL
 72
     1
 11
139.25
 21
80.99999999999999
 31
0.0
100
AcDbText
 73
     2
  0
LINE
  5
172
330
1F
100
AcDbEntity
  8
BEMASSUNG-HILFSLINIEN
  6
Continuous
 62
    14
100
AcDbLine
 10
111.4999999999999
 20
72.99999999999998
 30
0.0
 11
111.4999999999999
 21
83.99999999999998
 31
0.0
  0
LINE
  5
173
330
1F
100
AcDbEntity
  8
BEMASSUNG-HILFSLINIEN
  6
Continuous
 62
    14
100
AcDbLine
 10
167.0
 20
71.0
 30
0.0
 11
167.0
 21
83.99999999999998
 31
0.0
  0
LINE
  5
174
330
1F
100
AcDbEntity
  8
BEMASSUNG-HILFSLINIEN
  6
Continuous
 62
    14
100
AcDbLine
 10
111.4999999999999
 20
80.99999999999999
 30
0.0
 11
122.520588542521
 21
80.99999999999999
 31
0.0
  0
LINE
  5
175
330
1F
100
AcDbEntity
  8
BEMASSUNG-HILFSLINIEN
  6
Continuous
 62
    14
100
AcDbLine
 10
167.0
 20
80.99999999999999
 30
0.0
 11
155.979411457479
 21
80.99999999999999
 31
0.0
  0
INSERT
  5
176
330
1F
100
AcDbEntity
  8
BEMASSUNG-HILFSLINIEN
  6
Continuous
 62
    14
100
AcDbBlockReference
  2
LONGARROW
 10
111.4999999999999
 20
80.99999999999999
 30
0.0
 41
0.078740157480315
 42
0.078740157480315
  0
INSERT
  5
177
330
1F
100
AcDbEntity
  8
BEMASSUNG-HILFSLINIEN
  6
Continuous
 62
    14
100
AcDbBlockReference
  2
LONGARROW
 10
167.0
 20
80.99999999999999
 30
0.0
 41
0.078740157480315
 42
0.078740157480315
 50
180.0
  0
TEXT
  5
178
330
1F
100
AcDbEntity
  8
BEMASSUNG-HILFSLINIEN
  6
Continuous
 62
    14
100
AcDbText
 10
49.24221448376776
 20
66.0
 30
0.0
 40
3.999999999999999
  1
6.00 mm
  7
ARIAL
 72
     1
 11
59.00000000000002
 21
68.0
 31
0.0
100
AcDbText
 73
     2
  0
LINE
  5
179
330
1F
100
AcDbEntity
  8
BEMASSUNG-HILFSLINIEN
  6
Continuous
 62
    14
100
AcDbLine
 10
51.0
 20
83.0
 30
0.0
 11
61.99999999999999
 21
83.0
 31
0.0
  0
LINE
  5
17A
330
1F
100
AcDbEntity
  8
BEMASSUNG-HILFSLINIEN
  6
Continuous
 62
    14
100
AcDbLine
 10
51.0
 20
77.0
 30
0.0
 11
62.0
 21
77.0
 31
0.0
  0
LINE
  5
17B
330
1F
100
AcDbEntity
  8
BEMASSUNG-HILFSLINIEN
  6
Continuous
 62
    14
100
AcDbLine
 10
58.99999999999999
 20
83.0
 30
0.0
 11
58.99999999999999
 21
89.0
 31
0.0
  0
LINE
  5
17C
330
1F
100
AcDbEntity
  8
BEMASSUNG-HILFSLINIEN
  6
Continuous
 62
    14
100
AcDbLine
 10
59.00000000000001
 20
77.0
 30
0.0
 11
59.00000000000001
 21
71.0
 31
0.0
  0
INSERT
  5
17D
330
1F
100
AcDbEntity
  8
BEMASSUNG-HILFSLINIEN
  6
Continuous
 62
    14
100
AcDbBlockReference
  2
LONGARROW
 10
58.99999999999999
 20
83.0
 30
0.0
 41
0.078740157480315
 42
0.078740157480315
 50
90.00000000000007
  0
INSERT
  5
17E
330
1F
100
AcDbEntity
  8
BEMASSUNG-HILFSLINIEN
  6
Continuous
 62
    14
100
AcDbBlockReference
  2
LONGARROW
 10
59.00000000000001
 20
77.0
 30
0.0
 41
0.078740157480315
 42
0.078740157480315
 50
270.0
  0
LWPOLYLINE
  5
17F
330
1F
100
AcDbEntity
  8
VERSCHRAUBUNG
  6
Continuous
 62
     8
100
AcDbPolyline
 90
        4
 70
     1
 43
0.0
 10
44.0
 20
37.0
 10
48.99999999999999
 20
37.0
 10
48.99999999999999
 20
35.99999999999999
 10
44.0
 20
35.99999999999999
  0
LWPOLYLINE
  5
180
330
1F
100
AcDbEntity
  8
VERSCHRAUBUNG
  6
Continuous
 62
     8
100
AcDbPolyline
 90
        4
 70
     1
 43
0.0
 10
43.5
 20
35.99999999999999
 10
49.49999999999999
 20
35.99999999999999
 10
49.49999999999999
 20
31.99999999999999
 10
43.5
 20
31.99999999999999
  0
LINE
  5
181
330
1F
100
AcDbEntity
  8
GEWINDESTANGEN
  6
Continuous
 62
     3
100
AcDbLine
 10
44.5
 20
31.99999999999999
 30
0.0
 11
48.49999999999999
 21
31.99999999999999
 31
0.0
  0
LWPOLYLINE
  5
182
330
1F
100
AcDbEntity
  8
VERSCHRAUBUNG
  6
Continuous
 62
     8
100
AcDbPolyline
 90
        4
 70
     1
 43
0.0
 10
39.99999999999999
 20
38.0
 10
52.99999999999999
 20
38.0
 10
52.99999999999999
 20
37.0
 10
39.99999999999999
 20
37.0
  0
LINE
  5
183
330
1F
100
AcDbEntity
  8
BEMASSUNG-HILFSLINIEN
  6
Continuous
 62
     7
100
AcDbLine
 10
38.99999999999999
 20
31.99999999999999
 30
0.0
 11
38.99999999999999
 21
38.0
 31
0.0
  0
LINE
  5
184
330
1F
100
AcDbEntity
  8
BEMASSUNG-HILFSLINIEN
  6
Continuous
 62
     7
100
AcDbLine
 10
38.99999999999999
 20
38.0
 30
0.0
 11
53.99999999999999
 21
38.0
 31
0.0
  0
LINE
  5
185
330
1F
100
AcDbEntity
  8
BEMASSUNG-HILFSLINIEN
  6
Continuous
 62
     7
100
AcDbLine
 10
53.99999999999999
 20
38.0
 30
0.0
 11
53.99999999999999
 21
31.99999999999999
 31
0.0
  0
LWPOLYLINE
  5
186
330
1F
100
AcDbEntity
  8
VERSCHRAUBUNG
  6
Continuous
 62
     8
100
AcDbPolyline
 90
        4
 70
     1
 43
0.0
 10
166.0
 20
38.0
 10
179.0
 20
38.0
 10
179.0
 20
37.0
 10
166.0
 20
37.0
  0
LWPOLYLINE
  5
187
330
1F
100
AcDbEntity
  8
VERSCHRAUBUNG
  6
Continuous
 62
     8
100
AcDbPolyline
 90
        4
 70
     1
 43
0.0
 10
169.9999999999999
 20
37.0
 10
175.0
 20
37.0
 10
175.0
 20
35.99999999999999
 10
169.9999999999999
 20
35.99999999999999
  0
LWPOLYLINE
  5
188
330
1F
100
AcDbEntity
  8
VERSCHRAUBUNG
  6
Continuous
 62
     8
100
AcDbPolyline
 90
        4
 70
     1
 43
0.0
 10
169.4999999999999
 20
35.99999999999999
 10
175.5
 20
35.99999999999999
 10
175.5
 20
31.99999999999999
 10
169.4999999999999
 20
31.99999999999999
  0
LINE
  5
189
330
1F
100
AcDbEntity
  8
BEMASSUNG-HILFSLINIEN
  6
Continuous
 62
     7
100
AcDbLine
 10
165.0
 20
31.99999999999999
 30
0.0
 11
165.0
 21
38.0
 31
0.0
  0
LINE
  5
18A
330
1F
100
AcDbEntity
  8
BEMASSUNG-HILFSLINIEN
  6
Continuous
 62
     7
100
AcDbLine
 10
165.0
 20
38.0
 30
0.0
 11
180.0
 21
38.0
 31
0.0
  0
LINE
  5
18B
330
1F
100
AcDbEntity
  8
BEMASSUNG-HILFSLINIEN
  6
Continuous
 62
     7
100
AcDbLine
 10
180.0
 20
38.0
 30
0.0
 11
180.0
 21
31.99999999999999
 31
0.0
  0
TEXT
  5
18C
330
1F
100
AcDbEntity
  8
BEMASSUNG-HILFSLINIEN
  6
Continuous
 62
    14
100
AcDbText
 10
128.117647318542
 20
26.49999999999999
 30
0.0
 40
3.999999999999999
  1
27.50 mm
  7
ARIAL
 72
     1
 11
139.2705885425209
 21
28.5
 31
0.0
100
AcDbText
 73
     2
  0
LINE
  5
18D
330
1F
100
AcDbEntity
  8
BEMASSUNG-HILFSLINIEN
  6
Continuous
 62
    14
100
AcDbLine
 10
189.4999999999999
 20
36.49999999999999
 30
0.0
 11
189.4999999999999
 21
25.5
 31
0.0
  0
LINE
  5
18E
330
1F
100
AcDbEntity
  8
BEMASSUNG-HILFSLINIEN
  6
Continuous
 62
    14
100
AcDbLine
 10
162.0
 20
36.49999999999999
 30
0.0
 11
162.0
 21
25.5
 31
0.0
  0
LINE
  5
18F
330
1F
100
AcDbEntity
  8
BEMASSUNG-HILFSLINIEN
  6
Continuous
 62
    14
100
AcDbLine
 10
189.4999999999999
 20
28.5
 30
0.0
 11
195.4999999999999
 21
28.5
 31
0.0
  0
LINE
  5
190
330
1F
100
AcDbEntity
  8
BEMASSUNG-HILFSLINIEN
  6
Continuous
 62
    14
100
AcDbLine
 10
162.0
 20
28.5
 30
0.0
 11
156.0
 21
28.5
 31
0.0
  0
INSERT
  5
191
330
1F
100
AcDbEntity
  8
BEMASSUNG-HILFSLINIEN
  6
Continuous
 62
    14
100
AcDbBlockReference
  2
LONGARROW
 10
189.4999999999999
 20
28.5
 30
0.0
 41
0.078740157480315
 42
0.078740157480315
  0
INSERT
  5
192
330
1F
100
AcDbEntity
  8
BEMASSUNG-HILFSLINIEN
  6
Continuous
 62
    14
100
AcDbBlockReference
  2
LONGARROW
 10
162.0
 20
28.5
 30
0.0
 41
0.078740157480315
 42
0.078740157480315
 50
180.0
  0
TEXT
  5
193
330
1F
100
AcDbEntity
  8
BEMASSUNG-HILFSLINIEN
  6
Continuous
 62
    14
100
AcDbText
 10
68.57647023350001
 20
58.99999999999998
 30
0.0
 40
3.999999999999999
  1
27.50 mm
  7
ARIAL
 72
     1
 11
79.729411457479
 21
60.99999999999997
 31
0.0
100
AcDbText
 73
     2
  0
LINE
  5
194
330
1F
100
AcDbEntity
  8
BEMASSUNG-HILFSLINIEN
  6
Continuous
 62
    14
100
AcDbLine
 10
29.49999999999999
 20
52.99999999999999
 30
0.0
 11
29.49999999999999
 21
63.99999999999997
 31
0.0
  0
LINE
  5
195
330
1F
100
AcDbEntity
  8
BEMASSUNG-HILFSLINIEN
  6
Continuous
 62
    14
100
AcDbLine
 10
57.0
 20
52.99999999999999
 30
0.0
 11
57.0
 21
63.99999999999997
 31
0.0
  0
LINE
  5
196
330
1F
100
AcDbEntity
  8
BEMASSUNG-HILFSLINIEN
  6
Continuous
 62
    14
100
AcDbLine
 10
29.49999999999999
 20
60.99999999999997
 30
0.0
 11
23.49999999999999
 21
60.99999999999997
 31
0.0
  0
LINE
  5
197
330
1F
100
AcDbEntity
  8
BEMASSUNG-HILFSLINIEN
  6
Continuous
 62
    14
100
AcDbLine
 10
57.0
 20
60.99999999999997
 30
0.0
 11
63.0
 21
60.99999999999997
 31
0.0
  0
INSERT
  5
198
330
1F
100
AcDbEntity
  8
BEMASSUNG-HILFSLINIEN
  6
Continuous
 62
    14
100
AcDbBlockReference
  2
LONGARROW
 10
29.49999999999999
 20
60.99999999999997
 30
0.0
 41
0.078740157480315
 42
0.078740157480315
 50
180.0
  0
INSERT
  5
199
330
1F
100
AcDbEntity
  8
BEMASSUNG-HILFSLINIEN
  6
Continuous
 62
    14
100
AcDbBlockReference
  2
LONGARROW
 10
57.0
 20
60.99999999999997
 30
0.0
 41
0.078740157480315
 42
0.078740157480315
  0
TEXT
  5
19A
330
1F
100
AcDbEntity
  8
BEMASSUNG-HILFSLINIEN
  6
Continuous
 62
    14
100
AcDbText
 10
68.847058776021
 20
248.0
 30
0.0
 40
3.999999999999999
  1
20.00 mm
  7
ARIAL
 72
     1
 11
80.0
 21
250.0
 31
0.0
100
AcDbText
 73
     2
  0
LINE
  5
19B
330
1F
100
AcDbEntity
  8
BEMASSUNG-HILFSLINIEN
  6
Continuous
 62
    14
100
AcDbLine
 10
71.99999999999999
 20
260.0
 30
0.0
 11
82.99999999999998
 21
260.0
 31
0.0
  0
LINE
  5
19C
330
1F
100
AcDbEntity
  8
BEMASSUNG-HILFSLINIEN
  6
Continuous
 62
    14
100
AcDbLine
 10
70.5
 20
239.9999999999999
 30
0.0
 11
83.0
 21
239.9999999999999
 31
0.0
  0
LINE
  5
19D
330
1F
100
AcDbEntity
  8
BEMASSUNG-HILFSLINIEN
  6
Continuous
 62
    14
100
AcDbLine
 10
79.99999999999999
 20
260.0
 30
0.0
 11
79.99999999999999
 21
253.0
 31
0.0
  0
LINE
  5
19E
330
1F
100
AcDbEntity
  8
BEMASSUNG-HILFSLINIEN
  6
Continuous
 62
    14
100
AcDbLine
 10
80.00000000000001
 20
239.9999999999999
 30
0.0
 11
80.00000000000001
 21
246.9999999999999
 31
0.0
  0
INSERT
  5
19F
330
1F
100
AcDbEntity
  8
BEMASSUNG-HILFSLINIEN
  6
Continuous
 62
    14
100
AcDbBlockReference
  2
LONGARROW
 10
79.99999999999999
 20
260.0
 30
0.0
 41
0.078740157480315
 42
0.078740157480315
 50
270.0
  0
INSERT
  5
1A0
330
1F
100
AcDbEntity
  8
BEMASSUNG-HILFSLINIEN
  6
Continuous
 62
    14
100
AcDbBlockReference
  2
LONGARROW
 10
80.00000000000001
 20
239.9999999999999
 30
0.0
 41
0.078740157480315
 42
0.078740157480315
 50
90.00000000000005
  0
TEXT
  5
1A1
330
1F
100
AcDbEntity
  8
BEMASSUNG-HILFSLINIEN
  6
Continuous
 62
    14
100
AcDbText
 10
84.34705877602098
 20
199.4999999999999
 30
0.0
 40
3.999999999999999
  1
25.00 mm
  7
ARIAL
 72
     1
 11
95.49999999999998
 21
201.4999999999999
 31
0.0
100
AcDbText
 73
     2
  0
LINE
  5
1A2
330
1F
100
AcDbEntity
  8
BEMASSUNG-HILFSLINIEN
  6
Continuous
 62
    14
100
AcDbLine
 10
87.49999999999998
 20
213.9999999999999
 30
0.0
 11
98.49999999999997
 21
213.9999999999999
 31
0.0
  0
LINE
  5
1A3
330
1F
100
AcDbEntity
  8
BEMASSUNG-HILFSLINIEN
  6
Continuous
 62
    14
100
AcDbLine
 10
80.99999999999999
 20
189.0
 30
0.0
 11
98.50000000000001
 21
189.0
 31
0.0
  0
LINE
  5
1A4
330
1F
100
AcDbEntity
  8
BEMASSUNG-HILFSLINIEN
  6
Continuous
 62
    14
100
AcDbLine
 10
95.49999999999998
 20
213.9999999999999
 30
0.0
 11
95.5
 21
204.4999999999999
 31
0.0
  0
LINE
  5
1A5
330
1F
100
AcDbEntity
  8
BEMASSUNG-HILFSLINIEN
  6
Continuous
 62
    14
100
AcDbLine
 10
95.5
 20
189.0
 30
0.0
 11
95.5
 21
198.4999999999999
 31
0.0
  0
INSERT
  5
1A6
330
1F
100
AcDbEntity
  8
BEMASSUNG-HILFSLINIEN
  6
Continuous
 62
    14
100
AcDbBlockReference
  2
LONGARROW
 10
95.49999999999998
 20
213.9999999999999
 30
0.0
 41
0.078740157480315
 42
0.078740157480315
 50
270.0
  0
INSERT
  5
1A7
330
1F
100
AcDbEntity
  8
BEMASSUNG-HILFSLINIEN
  6
Continuous
 62
    14
100
AcDbBlockReference
  2
LONGARROW
 10
95.5
 20
189.0
 30
0.0
 41
0.078740157480315
 42
0.078740157480315
 50
90.00000000000005
  0
TEXT
  5
1A8
330
1F
100
AcDbEntity
  8
BEMASSUNG-HILFSLINIEN
  6
Continuous
 62
    14
100
AcDbText
 10
64.84705877602097
 20
136.4999999999999
 30
0.0
 40
3.999999999999999
  1
21.00 mm
  7
ARIAL
 72
     1
 11
75.99999999999996
 21
138.5
 31
0.0
100
AcDbText
 73
     2
  0
LINE
  5
1A9
330
1F
100
AcDbEntity
  8
BEMASSUNG-HILFSLINIEN
  6
Continuous
 62
    14
100
AcDbLine
 10
67.49999999999999
 20
149.0
 30
0.0
 11
78.99999999999995
 21
149.0
 31
0.0
  0
LINE
  5
1AA
330
1F
100
AcDbEntity
  8
BEMASSUNG-HILFSLINIEN
  6
Continuous
 62
    14
100
AcDbLine
 10
67.99999999999998
 20
127.9999999999999
 30
0.0
 11
78.99999999999997
 21
127.9999999999999
 31
0.0
  0
LINE
  5
1AB
330
1F
100
AcDbEntity
  8
BEMASSUNG-HILFSLINIEN
  6
Continuous
 62
    14
100
AcDbLine
 10
75.99999999999996
 20
149.0
 30
0.0
 11
75.99999999999996
 21
141.5
 31
0.0
  0
LINE
  5
1AC
330
1F
100
AcDbEntity
  8
BEMASSUNG-HILFSLINIEN
  6
Continuous
 62
    14
100
AcDbLine
 10
75.99999999999997
 20
127.9999999999999
 30
0.0
 11
75.99999999999997
 21
135.4999999999999
 31
0.0
  0
INSERT
  5
1AD
330
1F
100
AcDbEntity
  8
BEMASSUNG-HILFSLINIEN
  6
Continuous
 62
    14
100
AcDbBlockReference
  2
LONGARROW
 10
75.99999999999996
 20
149.0
 30
0.0
 41
0.078740157480315
 42
0.078740157480315
 50
270.0
  0
INSERT
  5
1AE
330
1F
100
AcDbEntity
  8
BEMASSUNG-HILFSLINIEN
  6
Continuous
 62
    14
100
AcDbBlockReference
  2
LONGARROW
 10
75.99999999999997
 20
127.9999999999999
 30
0.0
 41
0.078740157480315
 42
0.078740157480315
 50
90.00000000000005
  0
TEXT
  5
1AF
330
1F
100
AcDbEntity
  8
BEMASSUNG-HILFSLINIEN
  6
Continuous
 62
    14
100
AcDbText
 10
83.84705877602094
 20
87.5
 30
0.0
 40
3.999999999999999
  1
25.00 mm
  7
ARIAL
 72
     1
 11
94.99999999999994
 21
89.50000000000001
 31
0.0
100
AcDbText
 73
     2
  0
LINE
  5
1B0
330
1F
100
AcDbEntity
  8
BEMASSUNG-HILFSLINIEN
  6
Continuous
 62
    14
100
AcDbLine
 10
83.49999999999999
 20
102.0
 30
0.0
 11
97.99999999999993
 21
102.0
 31
0.0
  0
LINE
  5
1B1
330
1F
100
AcDbEntity
  8
BEMASSUNG-HILFSLINIEN
  6
Continuous
 62
    14
100
AcDbLine
 10
86.99999999999999
 20
77.0
 30
0.0
 11
97.99999999999995
 21
77.0
 31
0.0
  0
LINE
  5
1B2
330
1F
100
AcDbEntity
  8
BEMASSUNG-HILFSLINIEN
  6
Continuous
 62
    14
100
AcDbLine
 10
94.99999999999992
 20
102.0
 30
0.0
 11
94.99999999999994
 21
92.49999999999998
 31
0.0
  0
LINE
  5
1B3
330
1F
100
AcDbEntity
  8
BEMASSUNG-HILFSLINIEN
  6
Continuous
 62
    14
100
AcDbLine
 10
94.99999999999994
 20
77.0
 30
0.0
 11
94.99999999999994
 21
86.5
 31
0.0
  0
INSERT
  5
1B4
330
1F
100
AcDbEntity
  8
BEMASSUNG-HILFSLINIEN
  6
Continuous
 62
    14
100
AcDbBlockReference
  2
LONGARROW
 10
94.99999999999992
 20
102.0
 30
0.0
 41
0.078740157480315
 42
0.078740157480315
 50
270.0
  0
INSERT
  5
1B5
330
1F
100
AcDbEntity
  8
BEMASSUNG-HILFSLINIEN
  6
Continuous
 62
    14
100
AcDbBlockReference
  2
LONGARROW
 10
94.99999999999994
 20
77.0
 30
0.0
 41
0.078740157480315
 42
0.078740157480315
 50
90.00000000000005
  0
LWPOLYLINE
  5
1B6
330
1F
100
AcDbEntity
  8
GEHÄUSE
  6
Continuous
 62
     7
100
AcDbPolyline
 90
        4
 70
     1
 43
0.0
 10
29.49999999999999
 20
260.0
 10
35.49999999999994
 20
260.0
 10
35.49999999999994
 20
213.9999999999999
 10
29.49999999999999
 20
213.9999999999999
  0
LWPOLYLINE
  5
1B7
330
1F
100
AcDbEntity
  8
MAGNETE
  6
Continuous
 62
     6
100
AcDbPolyline
 90
        4
 70
     1
 43
0.0
 10
30.5
 20
260.0
 10
34.5
 20
260.0
 10
34.5
 20
261.9999999999999
 10
30.5
 20
261.9999999999999
  0
LWPOLYLINE
  5
1B8
330
1F
100
AcDbEntity
  8
MAGNETE
  6
Continuous
 62
     6
100
AcDbPolyline
 90
        4
 70
     1
 43
0.0
 10
30.5
 20
260.0
 10
34.5
 20
260.0
 10
34.5
 20
258.0
 10
30.5
 20
258.0
  0
LWPOLYLINE
  5
1B9
330
1F
100
AcDbEntity
  8
MAGNETE
  6
Continuous
 62
     6
100
AcDbPolyline
 90
        4
 70
     1
 43
0.0
 10
30.5
 20
213.9999999999999
 10
34.5
 20
213.9999999999999
 10
34.5
 20
215.9999999999999
 10
30.5
 20
215.9999999999999
  0
LWPOLYLINE
  5
1BA
330
1F
100
AcDbEntity
  8
MAGNETE
  6
Continuous
 62
     6
100
AcDbPolyline
 90
        4
 70
     1
 43
0.0
 10
30.5
 20
213.9999999999999
 10
34.5
 20
213.9999999999999
 10
34.5
 20
211.9999999999999
 10
30.5
 20
211.9999999999999
  0
ARC
  5
1BB
330
1F
100
AcDbEntity
  8
GEHÄUSE
  6
Continuous
 62
     7
100
AcDbCircle
 10
53.34456274192866
 20
212.7613239580586
 30
0.0
 40
23.87671440317223
100
AcDbArc
 50
177.0262750093503
 51
264.9434610225894
  0
ARC
  5
1BC
330
1F
100
AcDbEntity
  8
GEHÄUSE
  6
Continuous
 62
     7
100
AcDbCircle
 10
55.58451898124009
 20
215.0627451629821
 30
0.0
 40
20.11261618957702
100
AcDbArc
 50
183.0289039735459
 51
274.0356851942357
  0
LINE
  5
1BD
330
1F
100
AcDbEntity
  8
BEMASSUNG-HILFSLINIEN
  6
Continuous
 62
     7
100
AcDbLine
 10
189.4999999999999
 20
146.9999999999999
 30
0.0
 11
189.4999999999999
 21
230.9999999999999
 31
0.0
  0
LINE
  5
1BE
330
1F
100
AcDbEntity
  8
BEMASSUNG-HILFSLINIEN
  6
Continuous
 62
     7
100
AcDbLine
 10
189.4999999999999
 20
229.4999999999999
 30
0.0
 11
189.4999999999999
 21
269.4999999999999
 31
0.0
  0
LWPOLYLINE
  5
1BF
330
1F
100
AcDbEntity
  8
BEMASSUNG-HILFSLINIEN
  6
Continuous
 62
     7
100
AcDbPolyline
 90
        4
 70
     1
 43
0.0
 10
189.4999999999999
 20
260.0
 10
183.4999999999999
 20
260.0
 10
183.4999999999999
 20
213.9999999999999
 10
189.4999999999999
 20
213.9999999999999
  0
TEXT
  5
1C0
330
1F
100
AcDbEntity
  8
BEMASSUNG-HILFSLINIEN
  6
Continuous
 62
    14
100
AcDbText
 10
200.3788924269378
 20
251.4999999999999
 30
0.0
 40
3.999999999999999
  1
6.00 mm
  7
ARIAL
 72
     1
 11
210.13667794317
 21
253.4999999999999
 31
0.0
100
AcDbText
 73
     2
  0
LINE
  5
1C1
330
1F
100
AcDbEntity
  8
BEMASSUNG-HILFSLINIEN
  6
Continuous
 62
    14
100
AcDbLine
 10
183.4999999999999
 20
244.9999999999999
 30
0.0
 11
183.4999999999999
 21
256.4999999999999
 31
0.0
  0
LINE
  5
1C2
330
1F
100
AcDbEntity
  8
BEMASSUNG-HILFSLINIEN
  6
Continuous
 62
    14
100
AcDbLine
 10
189.4999999999999
 20
245.4999999999999
 30
0.0
 11
189.4999999999999
 21
256.4999999999999
 31
0.0
  0
LINE
  5
1C3
330
1F
100
AcDbEntity
  8
BEMASSUNG-HILFSLINIEN
  6
Continuous
 62
    14
100
AcDbLine
 10
183.4999999999999
 20
253.4999999999999
 30
0.0
 11
177.5
 21
253.4999999999999
 31
0.0
  0
LINE
  5
1C4
330
1F
100
AcDbEntity
  8
BEMASSUNG-HILFSLINIEN
  6
Continuous
 62
    14
100
AcDbLine
 10
189.4999999999999
 20
253.4999999999999
 30
0.0
 11
195.4999999999999
 21
253.4999999999999
 31
0.0
  0
INSERT
  5
1C5
330
1F
100
AcDbEntity
  8
BEMASSUNG-HILFSLINIEN
  6
Continuous
 62
    14
100
AcDbBlockReference
  2
LONGARROW
 10
183.4999999999999
 20
253.4999999999999
 30
0.0
 41
0.078740157480315
 42
0.078740157480315
 50
180.0
  0
INSERT
  5
1C6
330
1F
100
AcDbEntity
  8
BEMASSUNG-HILFSLINIEN
  6
Continuous
 62
    14
100
AcDbBlockReference
  2
LONGARROW
 10
189.4999999999999
 20
253.4999999999999
 30
0.0
 41
0.078740157480315
 42
0.078740157480315
  0
TEXT
  5
1C7
330
1F
100
AcDbEntity
  8
BEMASSUNG-HILFSLINIEN
  6
Continuous
 62
    14
100
AcDbText
 10
96.95190306827427
 20
281.9999999999997
 30
0.0
 40
3.999999999999999
  1
160.00 mm
  7
ARIAL
 72
     1
 11
109.4999999999999
 21
283.9999999999997
 31
0.0
100
AcDbText
 73
     2
  0
LINE
  5
1C8
330
1F
100
AcDbEntity
  8
BEMASSUNG-HILFSLINIEN
  6
Continuous
 62
    14
100
AcDbLine
 10
29.49999999999999
 20
272.0
 30
0.0
 11
29.49999999999999
 21
286.9999999999997
 31
0.0
  0
LINE
  5
1C9
330
1F
100
AcDbEntity
  8
BEMASSUNG-HILFSLINIEN
  6
Continuous
 62
    14
100
AcDbLine
 10
189.4999999999999
 20
276.0
 30
0.0
 11
189.4999999999999
 21
286.9999999999997
 31
0.0
  0
LINE
  5
1CA
330
1F
100
AcDbEntity
  8
BEMASSUNG-HILFSLINIEN
  6
Continuous
 62
    14
100
AcDbLine
 10
29.49999999999999
 20
283.9999999999997
 30
0.0
 11
90.67785502821207
 21
283.9999999999997
 31
0.0
  0
LINE
  5
1CB
330
1F
100
AcDbEntity
  8
BEMASSUNG-HILFSLINIEN
  6
Continuous
 62
    14
100
AcDbLine
 10
189.4999999999999
 20
283.9999999999997
 30
0.0
 11
128.3221449717879
 21
283.9999999999997
 31
0.0
  0
INSERT
  5
1CC
330
1F
100
AcDbEntity
  8
BEMASSUNG-HILFSLINIEN
  6
Continuous
 62
    14
100
AcDbBlockReference
  2
LONGARROW
 10
29.49999999999999
 20
283.9999999999997
 30
0.0
 41
0.078740157480315
 42
0.078740157480315
  0
INSERT
  5
1CD
330
1F
100
AcDbEntity
  8
BEMASSUNG-HILFSLINIEN
  6
Continuous
 62
    14
100
AcDbBlockReference
  2
LONGARROW
 10
189.4999999999999
 20
283.9999999999997
 30
0.0
 41
0.078740157480315
 42
0.078740157480315
 50
180.0
  0
LWPOLYLINE
  5
1CE
330
1F
100
AcDbEntity
  8
MAGNETE
  6
Continuous
 62
     6
100
AcDbPolyline
 90
        4
 70
     1
 43
0.0
 10
184.4999999999999
 20
213.9999999999999
 10
188.4999999999999
 20
213.9999999999999
 10
188.4999999999999
 20
215.9999999999999
 10
184.4999999999999
 20
215.9999999999999
  0
LWPOLYLINE
  5
1CF
330
1F
100
AcDbEntity
  8
MAGNETE
  6
Continuous
 62
     6
100
AcDbPolyline
 90
        4
 70
     1
 43
0.0
 10
184.4999999999999
 20
213.9999999999999
 10
188.4999999999999
 20
213.9999999999999
 10
188.4999999999999
 20
211.9999999999999
 10
184.4999999999999
 20
211.9999999999999
  0
LWPOLYLINE
  5
1D0
330
1F
100
AcDbEntity
  8
STARWARSGALAXIESLOGO
  6
Continuous
 62
     2
100
AcDbPolyline
 90
        4
 70
     1
 43
0.0
 10
189.4999999999999
 20
260.0
 10
192.4999999999999
 20
260.0
 10
192.4999999999999
 20
213.9999999999999
 10
189.4999999999999
 20
213.9999999999999
  0
ARC
  5
1D1
330
1F
100
AcDbEntity
  8
GEHÄUSE
  6
Continuous
 62
     7
100
AcDbCircle
 10
163.4387329801491
 20
214.9402248700497
 30
0.0
 40
20.11261618957707
100
AcDbArc
 50
265.9643148057644
 51
356.9710960264539
  0
ARC
  5
1D2
330
1F
100
AcDbEntity
  8
GEHÄUSE
  6
Continuous
 62
     7
100
AcDbCircle
 10
165.6786892194604
 20
212.6388036651261
 30
0.0
 40
23.87671440317228
100
AcDbArc
 50
275.0565389774105
 51
2.973724990649486
  0
LINE
  5
1D3
330
1F
100
AcDbEntity
  8
GEHÄUSE
  6
Continuous
 62
     7
100
AcDbLine
 10
57.00683496899312
 20
189.0008175792847
 30
0.0
 11
57.00000000000001
 21
194.9999999999999
 31
0.0
  0
LWPOLYLINE
  5
1D4
330
1F
100
AcDbEntity
  8
MAGNETE
  6
Continuous
 62
     6
100
AcDbPolyline
 90
        4
 70
     1
 43
0.0
 10
188.4999999999999
 20
260.0
 10
184.4999999999999
 20
260.0
 10
184.4999999999999
 20
261.9999999999999
 10
188.4999999999999
 20
261.9999999999999
  0
LWPOLYLINE
  5
1D5
330
1F
100
AcDbEntity
  8
MAGNETE
  6
Continuous
 62
     6
100
AcDbPolyline
 90
        4
 70
     1
 43
0.0
 10
184.4999999999999
 20
260.0
 10
188.4999999999999
 20
260.0
 10
188.4999999999999
 20
258.0
 10
184.4999999999999
 20
258.0
  0
TEXT
  5
1D6
330
1F
100
AcDbEntity
  8
DURCKSTÜCK
  6
Continuous
 62
   134
100
AcDbText
 10
101.0458088830717
 20
261.6796459324433
 30
0.0
 40
3.0
  1
1
  7
ARIAL
100
AcDbText
  0
TEXT
  5
1D7
330
1F
100
AcDbEntity
  8
DURCKSTÜCK
  6
Continuous
 62
   134
100
AcDbText
 10
185.3946427323766
 20
238.2711798955667
 30
0.0
 40
3.0
  1
2
  7
ARIAL
100
AcDbText
  0
TEXT
  5
1D8
330
1F
100
AcDbEntity
  8
DURCKSTÜCK
  6
Continuous
 62
   134
100
AcDbText
 10
31.00610482662053
 20
239.2554992308734
 30
0.0
 40
3.0
  1
3
  7
ARIAL
100
AcDbText
  0
TEXT
  5
1D9
330
1F
100
AcDbEntity
  8
DURCKSTÜCK
  6
Continuous
 62
   134
100
AcDbText
 10
38.0
 20
197.9999999999999
 30
0.0
 40
3.0
  1
5
  7
ARIAL
100
AcDbText
  0
TEXT
  5
1DA
330
1F
100
AcDbEntity
  8
DURCKSTÜCK
  6
Continuous
 62
   134
100
AcDbText
 10
180.4999999999999
 20
198.5
 30
0.0
 40
3.0
  1
4
  7
ARIAL
100
AcDbText
  0
TEXT
  5
1DB
330
1F
100
AcDbEntity
  8
DURCKSTÜCK
  6
Continuous
 62
   134
100
AcDbText
 10
165.0
 20
169.4999999999999
 30
0.0
 40
3.0
  1
6
  7
ARIAL
100
AcDbText
  0
TEXT
  5
1DC
330
1F
100
AcDbEntity
  8
DURCKSTÜCK
  6
Continuous
 62
   134
100
AcDbText
 10
53.99999999999999
 20
169.4999999999999
 30
0.0
 40
3.0
  1
7
  7
ARIAL
100
AcDbText
  0
TEXT
  5
1DD
330
1F
100
AcDbEntity
  8
DURCKSTÜCK
  6
Continuous
 62
   134
100
AcDbText
 10
186.0
 20
111.4999999999999
 30
0.0
 40
3.0
  1
8
  7
ARIAL
100
AcDbText
  0
TEXT
  5
1DE
330
1F
100
AcDbEntity
  8
DURCKSTÜCK
  6
Continuous
 62
   134
100
AcDbText
 10
31.99999999999999
 20
110.4999999999999
 30
0.0
 40
3.0
  1
9
  7
ARIAL
100
AcDbText
  0
TEXT
  5
1DF
330
1F
100
AcDbEntity
  8
DURCKSTÜCK
  6
Continuous
 62
   134
100
AcDbText
 10
118.4999999999999
 20
71.5
 30
0.0
 40
3.0
  1
10
  7
ARIAL
100
AcDbText
  0
TEXT
  5
1E0
330
1F
100
AcDbEntity
  8
DURCKSTÜCK
  6
Continuous
 62
   134
100
AcDbText
 10
191.0
 20
240.9999999999999
 30
0.0
 40
3.0
  1
11
  7
ARIAL
100
AcDbText
  0
ENDSEC
  0
SECTION
  2
OBJECTS
  0
DICTIONARY
  5
C
330
0
100
AcDbDictionary
281
     1
  3
ACAD_GROUP
350
D
  3
ACAD_PLOTSTYLENAME
350
E
  3
ACAD_MLINESTYLE
350
17
  3
ACAD_PLOTSETTINGS
350
19
  3
ACAD_LAYOUT
350
1A
  0
DICTIONARY
  5
D
102
{ACAD_REACTORS
330
C
102
}
330
C
100
AcDbDictionary
281
     1
  0
ACDBDICTIONARYWDFLT
  5
E
102
{ACAD_REACTORS
330
C
102
}
330
C
100
AcDbDictionary
281
     1
  3
Normal
350
F
100
AcDbDictionaryWithDefault
340
F
  0
DICTIONARY
  5
17
102
{ACAD_REACTORS
330
C
102
}
330
C
100
AcDbDictionary
281
     1
  3
Standard
350
18
  0
DICTIONARY
  5
19
102
{ACAD_REACTORS
330
C
102
}
330
C
100
AcDbDictionary
281
     1
  0
DICTIONARY
  5
1A
102
{ACAD_REACTORS
330
C
102
}
330
C
100
AcDbDictionary
281
     1
  3
Layout1
350
1E
  3
Model
350
22
  3
Layout2
350
26
  0
ACDBPLACEHOLDER
  5
F
102
{ACAD_REACTORS
330
E
102
}
330
E
  0
MLINESTYLE
  5
18
102
{ACAD_REACTORS
330
17
102
}
330
17
100
AcDbMlineStyle
  2
STANDARD
 70
     0
  3

 62
   256
 51
90.0
 52
90.0
 71
     2
 49
0.5
 62
   256
  6
BYLAYER
 49
-0.5
 62
   256
  6
BYLAYER
  0
LAYOUT
  5
1E
102
{ACAD_REACTORS
330
1A
102
}
330
1A
100
AcDbPlotSettings
  1

  2

  4

  6

 40
0.0
 41
0.0
 42
0.0
 43
0.0
 44
0.0
 45
0.0
 46
0.0
 47
0.0
 48
0.0
 49
0.0
140
0.0
141
0.0
142
1.0
143
1.0
 70
   688
 72
     0
 73
     0
 74
     5
  7

 75
    16
147
1.0
148
0.0
149
0.0
100
AcDbLayout
  1
Layout1
 70
     1
 71
     1
 10
0.0
 20
0.0
 11
12.0
 21
9.0
 12
0.0
 22
0.0
 32
0.0
 14
1.000000000000000E+20
 24
1.000000000000000E+20
 34
1.000000000000000E+20
 15
-1.000000000000000E+20
 25
-1.000000000000000E+20
 35
-1.000000000000000E+20
146
0.0
 13
0.0
 23
0.0
 33
0.0
 16
1.0
 26
0.0
 36
0.0
 17
0.0
 27
1.0
 37
0.0
 76
     0
330
1B
  0
LAYOUT
  5
22
102
{ACAD_REACTORS
330
1A
102
}
330
1A
100
AcDbPlotSettings
  1

  2

  4

  6

 40
0.0
 41
0.0
 42
0.0
 43
0.0
 44
0.0
 45
0.0
 46
0.0
 47
0.0
 48
0.0
 49
0.0
140
0.0
141
0.0
142
1.0
143
1.0
 70
  1712
 72
     0
 73
     0
 74
     0
  7

 75
     0
147
1.0
148
0.0
149
0.0
100
AcDbLayout
  1
Model
 70
     1
 71
     0
 10
0.0
 20
0.0
 11
12.0
 21
9.0
 12
0.0
 22
0.0
 32
0.0
 14
0.0
 24
0.0
 34
0.0
 15
0.0
 25
0.0
 35
0.0
146
0.0
 13
0.0
 23
0.0
 33
0.0
 16
1.0
 26
0.0
 36
0.0
 17
0.0
 27
1.0
 37
0.0
 76
     0
330
1F
  0
LAYOUT
  5
26
102
{ACAD_REACTORS
330
1A
102
}
330
1A
100
AcDbPlotSettings
  1

  2

  4

  6

 40
0.0
 41
0.0
 42
0.0
 43
0.0
 44
0.0
 45
0.0
 46
0.0
 47
0.0
 48
0.0
 49
0.0
140
0.0
141
0.0
142
1.0
143
1.0
 70
   688
 72
     0
 73
     0
 74
     5
  7

 75
    16
147
1.0
148
0.0
149
0.0
100
AcDbLayout
  1
Layout2
 70
     1
 71
     2
 10
0.0
 20
0.0
 11
12.0
 21
9.0
 12
0.0
 22
0.0
 32
0.0
 14
0.0
 24
0.0
 34
0.0
 15
0.0
 25
0.0
 35
0.0
146
0.0
 13
0.0
 23
0.0
 33
0.0
 16
1.0
 26
0.0
 36
0.0
 17
0.0
 27
1.0
 37
0.0
 76
     0
330
23
  0
ENDSEC
  0
EOF
