0
SECTION
2
HEADER
9
$ACADVER
1
AC1009
9
$INSUNITS
70
4
0
ENDSEC
0
SECTION
2
TABLES
0
TABLE
2
LAYER
70
1
0
LAYER
2
LOGO
70
0
62
7
6
CONTINUOUS
0
ENDTAB
0
ENDSEC
0
SECTION
2
ENTITIES
0
LWPOLYLINE
8
LOGO
90
6
70
0
10
10.716
20
4.051
10
17.315
20
0.784
10
22.347
20
0.000
10
26.528
20
0.196
10
18.949
20
0.653
10
10.781
20
3.986
0
LWPOLYLINE
8
LOGO
90
14
70
0
10
39.139
20
7.710
10
31.756
20
3.594
10
24.830
20
2.287
10
17.185
20
3.202
10
8.886
20
7.449
10
12.741
20
4.705
10
16.074
20
3.398
10
25.548
20
2.026
10
33.912
20
4.182
10
38.486
20
7.449
10
40.773
20
7.318
10
39.009
20
5.293
10
41.426
20
7.449
10
39.205
20
7.645
0
LWPOLYLINE
8
LOGO
90
4
70
0
10
37.048
20
14.179
10
36.526
20
8.102
10
37.179
20
8.886
10
37.114
20
14.114
0
LWPOLYLINE
8
LOGO
90
5
70
0
10
34.108
20
14.571
10
35.807
20
14.571
10
35.676
20
8.233
10
34.108
20
8.298
10
34.108
20
14.506
0
LWPOLYLINE
8
LOGO
90
13
70
0
10
27.835
20
14.571
10
29.861
20
14.636
10
30.580
20
12.415
10
31.625
20
14.636
10
32.997
20
14.571
10
31.037
20
11.696
10
33.062
20
8.233
10
31.298
20
8.233
10
30.318
20
10.585
10
29.142
20
8.233
10
27.770
20
8.298
10
29.861
20
11.239
10
27.835
20
14.506
0
LWPOLYLINE
8
LOGO
90
8
70
0
10
24.045
20
14.636
10
27.051
20
8.233
10
25.287
20
8.233
10
24.699
20
10.324
10
22.739
20
10.324
10
22.281
20
8.298
10
20.909
20
8.298
10
23.980
20
14.636
0
LWPOLYLINE
8
LOGO
90
9
70
0
10
16.531
20
14.636
10
17.707
20
14.571
10
17.446
20
9.082
10
19.602
20
8.952
10
20.256
20
9.605
10
19.994
20
8.233
10
16.009
20
8.298
10
15.878
20
14.571
10
16.466
20
14.636
0
LWPOLYLINE
8
LOGO
90
16
70
0
10
43.060
20
14.702
10
45.347
20
14.440
10
45.281
20
13.330
10
44.170
20
14.244
10
42.668
20
13.395
10
45.673
20
10.585
10
45.412
20
9.017
10
43.844
20
8.102
10
41.557
20
8.494
10
41.622
20
9.736
10
42.733
20
8.690
10
43.909
20
8.756
10
44.366
20
10.455
10
41.491
20
12.545
10
41.753
20
13.918
10
42.994
20
14.702
0
LWPOLYLINE
8
LOGO
90
8
70
0
10
11.565
20
14.702
10
14.767
20
8.233
10
12.872
20
8.233
10
12.415
20
10.324
10
10.193
20
10.324
10
9.736
20
8.298
10
8.233
20
8.298
10
11.500
20
14.702
0
LWPOLYLINE
8
LOGO
90
16
70
0
10
4.770
20
14.832
10
7.253
20
14.636
10
7.318
20
13.330
10
5.031
20
14.244
10
3.528
20
13.656
10
3.071
20
10.128
10
3.986
20
8.952
10
5.685
20
8.690
10
6.207
20
9.148
10
5.685
20
11.304
10
7.710
20
11.369
10
7.318
20
8.298
10
3.920
20
8.037
10
1.568
20
10.259
10
1.764
20
12.872
10
4.705
20
14.832
0
LWPOLYLINE
8
LOGO
90
17
70
0
10
43.190
20
14.963
10
41.295
20
13.199
10
41.491
20
11.827
10
44.301
20
9.866
10
42.929
20
8.952
10
41.426
20
10.259
10
41.426
20
8.298
10
42.602
20
7.841
10
45.216
20
8.364
10
46.000
20
9.605
10
45.673
20
11.304
10
42.864
20
13.068
10
43.190
20
13.852
10
44.170
20
13.918
10
45.412
20
12.807
10
45.477
20
14.636
10
43.256
20
14.963
0
LWPOLYLINE
8
LOGO
90
18
70
0
10
4.574
20
15.028
10
2.614
20
14.375
10
1.503
20
13.068
10
1.568
20
10.193
10
3.332
20
8.233
10
6.469
20
7.776
10
7.645
20
8.364
10
8.168
20
11.435
10
5.293
20
11.500
10
6.011
20
9.082
10
4.770
20
8.821
10
3.398
20
9.866
10
3.006
20
11.696
10
4.574
20
13.918
10
6.077
20
13.918
10
7.384
20
12.807
10
7.449
20
14.702
10
4.639
20
15.028
0
LWPOLYLINE
8
LOGO
90
66
70
0
10
11.957
20
15.094
10
11.043
20
14.636
10
7.906
20
8.102
10
10.128
20
8.102
10
9.736
20
8.952
10
10.324
20
10.193
10
12.284
20
10.193
10
12.676
20
8.037
10
22.543
20
8.037
10
22.869
20
10.128
10
24.830
20
9.997
10
24.895
20
8.037
10
29.403
20
8.037
10
30.318
20
10.259
10
30.972
20
8.037
10
36.003
20
8.037
10
35.611
20
13.852
10
36.264
20
14.636
10
40.511
20
14.571
10
40.446
20
13.591
10
38.290
20
13.918
10
38.290
20
11.957
10
39.923
20
11.957
10
39.989
20
11.043
10
38.355
20
11.239
10
38.224
20
9.344
10
38.747
20
8.821
10
40.577
20
9.148
10
40.707
20
8.298
10
38.094
20
8.037
10
40.838
20
8.102
10
41.034
20
9.801
10
39.923
20
9.017
10
38.420
20
9.148
10
38.551
20
11.108
10
40.119
20
10.651
10
40.119
20
12.349
10
38.486
20
12.023
10
38.420
20
13.722
10
40.642
20
13.134
10
40.642
20
14.767
10
33.716
20
14.767
10
34.173
20
8.821
10
33.520
20
8.298
10
31.233
20
11.565
10
33.389
20
14.767
10
31.168
20
14.767
10
31.560
20
14.048
10
30.710
20
12.741
10
29.795
20
13.983
10
30.057
20
14.767
10
27.443
20
14.767
10
29.665
20
11.239
10
27.182
20
8.560
10
24.111
20
15.094
10
20.386
20
8.298
10
20.452
20
10.062
10
19.210
20
9.082
10
17.577
20
9.278
10
17.577
20
13.983
10
18.165
20
14.767
10
15.420
20
14.767
10
16.009
20
13.983
10
16.009
20
8.952
10
15.159
20
8.364
10
12.023
20
15.094
0
LWPOLYLINE
8
LOGO
90
21
70
0
10
25.483
20
24.960
10
32.082
20
25.026
10
33.520
20
24.438
10
34.500
20
23.196
10
34.631
20
21.432
10
33.193
20
19.080
10
37.963
20
19.014
10
36.003
20
22.085
10
36.330
20
23.849
10
37.702
20
24.895
10
44.366
20
24.960
10
44.432
20
22.281
10
40.119
20
22.151
10
42.080
20
18.884
10
41.753
20
17.250
10
40.381
20
16.074
10
31.952
20
15.943
10
28.946
20
18.557
10
28.815
20
16.009
10
25.548
20
16.009
10
25.483
20
24.895
0
LWPOLYLINE
8
LOGO
90
9
70
0
10
16.858
20
24.960
10
21.889
20
24.895
10
24.503
20
16.009
10
21.366
20
16.009
10
20.844
20
17.315
10
17.838
20
17.315
10
17.381
20
16.009
10
14.114
20
16.074
10
16.793
20
24.895
0
LWPOLYLINE
8
LOGO
90
14
70
0
10
1.764
20
25.026
10
4.901
20
25.091
10
5.815
20
22.739
10
6.795
20
25.026
10
10.128
20
25.026
10
11.043
20
22.739
10
12.023
20
25.026
10
15.290
20
25.026
10
12.611
20
16.074
10
9.736
20
16.009
10
8.429
20
19.276
10
7.384
20
16.009
10
4.705
20
16.009
10
1.699
20
25.026
0
LWPOLYLINE
8
LOGO
90
21
70
0
10
25.940
20
25.222
10
25.287
20
25.026
10
25.483
20
15.812
10
28.946
20
15.812
10
29.142
20
18.034
10
31.168
20
15.878
10
40.903
20
16.009
10
42.014
20
17.381
10
42.210
20
19.080
10
40.315
20
21.955
10
44.628
20
22.281
10
44.366
20
25.156
10
37.832
20
25.091
10
36.395
20
24.241
10
35.807
20
22.804
10
36.264
20
20.974
10
37.702
20
19.341
10
33.520
20
19.276
10
34.827
20
21.693
10
33.912
20
24.568
10
26.006
20
25.222
0
LWPOLYLINE
8
LOGO
90
9
70
0
10
16.989
20
25.222
10
13.852
20
15.812
10
17.315
20
15.812
10
18.034
20
17.185
10
20.713
20
17.185
10
21.497
20
15.812
10
24.699
20
15.812
10
21.889
20
25.222
10
17.054
20
25.222
0
LWPOLYLINE
8
LOGO
90
14
70
0
10
1.503
20
25.222
10
4.378
20
15.943
10
7.514
20
15.878
10
8.494
20
18.688
10
9.605
20
15.878
10
12.807
20
16.009
10
15.420
20
25.222
10
11.827
20
25.156
10
11.173
20
23.261
10
10.193
20
25.222
10
6.730
20
25.222
10
5.946
20
23.261
10
5.031
20
25.222
10
1.568
20
25.222
0
LWPOLYLINE
8
LOGO
90
7
70
0
10
0.065
20
25.222
10
0.000
20
23.131
10
0.327
20
24.568
10
2.614
20
15.224
10
1.438
20
18.949
10
0.980
20
23.915
10
0.131
20
25.222
0
LWPOLYLINE
8
LOGO
90
12
70
0
10
31.886
20
34.565
10
38.747
20
34.631
10
40.119
20
34.043
10
41.099
20
31.494
10
39.466
20
29.077
10
44.497
20
29.077
10
44.562
20
26.071
10
38.094
20
26.006
10
35.349
20
28.554
10
35.088
20
26.136
10
31.952
20
26.202
10
31.886
20
34.500
0
LWPOLYLINE
8
LOGO
90
9
70
0
10
23.327
20
34.565
10
28.619
20
34.500
10
31.037
20
26.202
10
27.966
20
26.202
10
27.443
20
27.378
10
24.503
20
27.378
10
24.045
20
26.202
10
20.844
20
26.267
10
23.327
20
34.500
0
LWPOLYLINE
8
LOGO
90
17
70
0
10
8.102
20
34.631
10
21.693
20
34.696
10
21.759
20
32.082
10
17.903
20
31.886
10
17.773
20
26.202
10
14.767
20
26.267
10
14.702
20
31.952
10
10.651
20
31.886
10
12.480
20
29.207
10
12.153
20
27.443
10
11.043
20
26.463
10
1.241
20
26.267
10
0.653
20
29.338
10
8.233
20
29.403
10
6.403
20
32.148
10
6.665
20
33.585
10
8.037
20
34.631
0
LWPOLYLINE
8
LOGO
90
12
70
0
10
31.886
20
34.827
10
31.821
20
26.006
10
35.219
20
26.006
10
35.415
20
28.031
10
38.094
20
26.006
10
44.628
20
26.136
10
44.497
20
29.077
10
39.923
20
29.207
10
41.230
20
31.364
10
41.230
20
33.062
10
40.315
20
34.304
10
31.952
20
34.827
0
LWPOLYLINE
8
LOGO
90
9
70
0
10
23.392
20
34.827
10
20.648
20
26.071
10
23.980
20
26.006
10
24.634
20
27.247
10
27.312
20
27.247
10
27.901
20
26.006
10
31.168
20
26.006
10
28.750
20
34.631
10
23.457
20
34.827
0
LWPOLYLINE
8
LOGO
90
18
70
0
10
8.429
20
34.892
10
7.122
20
34.369
10
6.273
20
32.932
10
6.730
20
30.710
10
7.906
20
29.534
10
0.523
20
29.469
10
1.045
20
26.136
10
11.108
20
26.332
10
12.676
20
28.685
10
12.480
20
30.057
10
10.912
20
31.756
10
14.506
20
31.821
10
14.571
20
26.202
10
17.969
20
26.071
10
18.099
20
31.756
10
21.955
20
31.952
10
21.824
20
34.827
10
8.494
20
34.892
0
LWPOLYLINE
8
LOGO
90
18
70
0
10
22.477
20
44.366
10
28.031
20
43.844
10
34.043
20
41.622
10
39.335
20
37.506
10
40.446
20
35.480
10
37.767
20
35.545
10
35.023
20
38.420
10
29.273
20
41.426
10
21.170
20
42.472
10
15.486
20
41.295
10
10.259
20
38.943
10
4.378
20
33.324
10
2.940
20
30.645
10
2.091
20
30.841
10
5.489
20
36.395
10
10.847
20
40.969
10
16.466
20
43.648
10
22.412
20
44.366
0
LWPOLYLINE
8
LOGO
90
17
70
0
10
21.040
20
44.628
10
14.832
20
43.256
10
9.213
20
40.250
10
3.790
20
34.631
10
1.895
20
30.841
10
3.136
20
30.580
10
6.142
20
35.023
10
10.912
20
39.009
10
19.080
20
42.145
10
28.554
20
41.361
10
33.847
20
38.878
10
37.506
20
35.349
10
40.707
20
35.219
10
38.028
20
38.943
10
32.801
20
42.472
10
27.312
20
44.170
10
21.105
20
44.628
0
ENDSEC
0
EOF
