0
SECTION
2
HEADER
9
$ACADVER
1
AC1009
9
$INSUNITS
70
4
0
ENDSEC
0
SECTION
2
TABLES
0
TABLE
2
LAYER
70
1
0
LAYER
2
LOGO
70
0
62
7
6
CONTINUOUS
0
ENDTAB
0
ENDSEC
0
SECTION
2
ENTITIES
0
LWPOLYLINE
8
LOGO
90
20
70
0
10
46.0000
20
35.9317
10
45.5580
20
36.3701
10
44.6751
20
37.2824
10
43.7922
20
37.7208
10
42.9093
20
38.1593
10
42.0264
20
38.5977
10
41.1435
20
39.0361
10
40.2606
20
39.4745
10
39.3777
20
39.9129
10
38.4948
20
40.3513
10
37.6119
20
40.7897
10
36.7290
20
41.2281
10
35.8461
20
41.6665
10
34.9632
20
42.1049
10
34.0803
20
42.5433
10
33.1974
20
42.9817
10
32.3145
20
43.4201
10
31.4316
20
43.8585
10
30.5487
20
44.2969
0
LWPOLYLINE
8
LOGO
90
18
70
0
10
2.3569
20
35.5649
10
1.4739
20
35.1265
10
0.5910
20
34.6881
10
0.1496
20
33.7758
10
0.5910
20
32.8635
10
1.0324
20
31.9512
10
1.9153
20
31.5128
10
2.7982
20
31.0744
10
3.6811
20
30.6360
10
4.5640
20
30.1976
10
5.4469
20
29.7592
10
6.3298
20
29.3208
10
7.2127
20
28.8824
10
8.0956
20
28.4440
10
8.9785
20
28.0056
10
9.8614
20
27.5672
10
10.7443
20
27.1288
10
11.6272
20
26.6904
0
LWPOLYLINE
8
LOGO
90
14
70
0
10
10.1126
20
25.7770
10
10.9955
20
25.3386
10
11.8784
20
24.9002
10
12.7613
20
24.4618
10
13.6442
20
24.0234
10
14.5271
20
23.5850
10
15.4100
20
23.1466
10
16.2929
20
22.7082
10
17.1758
20
22.2698
10
18.0587
20
21.8314
10
18.9416
20
21.3930
10
19.8245
20
20.9546
10
20.7074
20
20.5162
10
21.5903
20
20.0778
0
LWPOLYLINE
8
LOGO
90
17
70
0
10
2.3570
20
23.0000
10
3.2399
20
22.5616
10
4.1228
20
22.1232
10
5.0057
20
21.6848
10
5.8886
20
21.2464
10
6.7715
20
20.8080
10
7.6544
20
20.3696
10
8.5373
20
19.9312
10
9.4202
20
19.4928
10
10.3031
20
19.0544
10
11.1860
20
18.6160
10
12.0689
20
18.1776
10
12.9518
20
17.7392
10
13.8347
20
17.3008
10
14.7176
20
16.8624
10
15.6005
20
16.4240
10
16.4834
20
15.9856
0
LWPOLYLINE
8
LOGO
90
16
70
0
10
27.3735
20
16.0210
10
28.2564
20
16.4594
10
29.1393
20
16.8978
10
30.0222
20
17.3362
10
30.9051
20
17.7746
10
31.7880
20
18.2130
10
32.6709
20
18.6514
10
33.5538
20
19.0898
10
34.4367
20
19.5282
10
35.3196
20
19.9666
10
36.2025
20
20.4050
10
37.0854
20
20.8434
10
37.9683
20
21.2818
10
38.8512
20
21.7202
10
39.7341
20
22.1586
0
LWPOLYLINE
8
LOGO
90
18
70
0
10
39.7341
20
23.0710
10
38.8512
20
23.5094
10
37.9683
20
23.9478
10
37.0854
20
24.3862
10
36.2025
20
24.8246
10
35.3196
20
25.2630
10
34.4367
20
25.7014
10
33.5538
20
26.1398
10
32.6709
20
26.5782
10
31.7880
20
27.0166
10
30.9051
20
27.4550
10
30.0222
20
27.8934
10
29.1393
20
28.3318
10
28.2564
20
28.7702
10
27.3735
20
29.2086
10
26.4906
20
29.6470
10
25.6077
20
30.0854
0
LWPOLYLINE
8
LOGO
90
15
70
0
10
24.7248
20
31.3778
10
23.8419
20
31.8162
10
22.9590
20
32.2546
10
22.0761
20
32.6930
10
21.1932
20
33.1314
10
20.3103
20
33.5698
10
19.4274
20
34.0082
10
18.5445
20
34.4466
10
17.6616
20
34.8850
10
16.7787
20
35.3234
10
15.8958
20
35.7618
10
15.0129
20
36.2002
10
14.1300
20
36.6386
10
13.2471
20
37.0770
0
LWPOLYLINE
8
LOGO
90
18
70
0
10
11.9227
20
12.8800
10
12.8056
20
13.3184
10
13.6885
20
13.7568
10
14.5714
20
14.1952
10
15.4543
20
14.6336
10
16.3372
20
15.0720
10
17.2201
20
15.5104
10
18.1030
20
15.9488
10
18.9859
20
16.3872
10
19.8688
20
16.8256
10
20.7517
20
17.2640
10
21.6346
20
17.7024
10
22.5175
20
18.1408
10
23.4004
20
18.5792
10
24.2833
20
19.0176
10
25.1662
20
19.4560
10
26.0491
20
19.8944
0
LWPOLYLINE
8
LOGO
90
16
70
0
10
28.6983
20
10.5340
10
29.5812
20
10.9724
10
30.4641
20
11.4108
10
31.3470
20
11.8492
10
32.2299
20
12.2876
10
33.1128
20
12.7260
10
33.9957
20
13.1644
10
34.8786
20
13.6028
10
35.7615
20
14.0412
10
36.6444
20
14.4796
10
37.5273
20
14.9180
10
38.4102
20
15.3564
10
39.2931
20
15.7948
10
40.1760
20
16.2332
10
41.0589
20
16.6716
0
LWPOLYLINE
8
LOGO
90
14
70
0
10
41.5003
20
17.5840
10
40.6174
20
18.0224
10
39.7345
20
18.4608
10
38.8516
20
18.8992
10
37.9687
20
19.3376
10
37.0858
20
19.7760
10
36.2029
20
20.2144
10
35.3200
20
20.6528
10
34.4371
20
21.0912
10
33.5542
20
21.5296
10
32.6713
20
21.9680
10
31.7884
20
22.4064
10
30.9055
20
22.8448
0
LWPOLYLINE
8
LOGO
90
19
70
0
10
5.4450
20
12.4410
10
6.3279
20
12.8794
10
7.2108
20
13.3178
10
8.0937
20
13.7562
10
8.9766
20
14.1946
10
9.8595
20
14.6330
10
10.7424
20
15.0714
10
11.6253
20
15.5098
10
12.5082
20
15.9482
10
13.3911
20
16.3866
10
14.2740
20
16.8250
10
15.1569
20
17.2634
10
16.0398
20
17.7018
10
16.9227
20
18.1402
10
17.8056
20
18.5786
10
18.6885
20
19.0170
10
19.5714
20
19.4554
10
20.4543
20
19.8938
0
LWPOLYLINE
8
LOGO
90
15
70
0
10
22.2210
20
9.3600
10
23.1039
20
9.7984
10
23.9868
20
10.2368
10
24.8697
20
10.6752
10
25.7526
20
11.1136
10
26.6355
20
11.5520
10
27.5184
20
11.9904
10
28.4013
20
12.4288
10
29.2842
20
12.8672
10
30.1671
20
13.3056
10
31.0500
20
13.7440
10
31.9329
20
14.1824
10
32.8158
20
14.6208
10
33.6987
20
15.0592
0
LWPOLYLINE
8
LOGO
90
15
70
0
10
4.1217
20
8.6320
10
5.0046
20
9.0704
10
5.8875
20
9.5088
10
6.7704
20
9.9472
10
7.6533
20
10.3856
10
8.5362
20
10.8240
10
9.4191
20
11.2624
10
10.3020
20
11.7008
10
11.1849
20
12.1392
10
12.0678
20
12.5776
10
12.9507
20
13.0160
10
13.8336
20
13.4544
10
14.7165
20
13.8928
10
15.5994
20
14.3312
0
LWPOLYLINE
8
LOGO
90
15
70
0
10
42.8832
20
8.1936
10
41. ...
0
ENDSEC
0
EOF
